<svg width="43" height="61" fill="none" xmlns="http://www.w3.org/2000/svg"><path d="M31.022 22.178c0-5.1-4.3-9.3-9.521-9.3-5.222 0-9.83 4.2-9.83 9.3 0 5.1 4.3 9.3 9.83 9.3 5.22 0 9.52-4.2 9.52-9.3z" fill="#1F1A3D"/><path d="M21.5 60.278l3.993-5.1c3.993-5.4 17.507-23.4 17.507-33.3 0-12.9-8.6-21.6-21.5-21.6S0 8.978 0 21.878c0 10.5 15.664 30.9 17.507 33.3l3.993 5.1zm-13.514-38.1c0-7.2 6.143-13.2 13.514-13.2 7.371 0 13.514 6 13.514 13.2 0 7.2-6.143 13.2-13.514 13.2-7.371 0-13.514-6-13.514-13.2z" fill="#1F1A3D"/></svg>