<svg width="52" height="71" fill="none" xmlns="http://www.w3.org/2000/svg"><path d="M51.198 27c-1 14-25 44-25 44s-24-30-25-44C-.786 13 12.303 0 26 0s27.182 13 25.198 27z" fill="url(#paint0_linear)"/><path d="M37.544 26.441a4.902 4.902 0 00-3.512-1.47h-.006a4.888 4.888 0 00-1.612.27 5.144 5.144 0 00-.634-.354 4.715 4.715 0 002.384-3.244 4.759 4.759 0 00-.266-2.728 4.714 4.714 0 00-1.725-2.12A4.655 4.655 0 0029.572 16H17.72v1.043h2.073v4.043H17.72v1.043h2.073v2.916a5.013 5.013 0 00-.857-.074 4.951 4.951 0 00-3.492 1.48A5.035 5.035 0 0014 29.985c0 1.323.519 2.593 1.444 3.532a4.951 4.951 0 003.492 1.48h10.636a5.196 5.196 0 002.26-.511 4.935 4.935 0 003.407.364 4.972 4.972 0 002.832-1.944 5.045 5.045 0 00-.527-6.464zm-17.75 7.512h-.858c-2.17 0-3.936-1.78-3.936-3.97 0-2.189 1.766-3.969 3.936-3.969.288 0 .576.031.857.094v7.845zm1.034-16.91h4.061v4.043h-4.061v-4.043zm4.061 16.91h-4.061v-7.452c.149.083.292.175.43.276l3.631 2.679v4.497zm-3.02-8.018a5.022 5.022 0 00-1.041-.59V22.13h4.061v6.033l-3.02-2.227zm7.703 8.018h-3.648V30.22l4.831 3.564c-.384.113-.783.17-1.183.17zm2.268-.668a4.211 4.211 0 01-.135-.095l-5.781-4.264V22.13h1.955v-1.043h-1.955v-4.043h3.648c2.012 0 3.648 1.65 3.648 3.679 0 2.028-1.636 3.678-3.648 3.678h-1.67v1.044h1.67c2.327 0 4.22 1.908 4.22 4.255 0 .714-.18 1.418-.52 2.045a4.242 4.242 0 01-1.432 1.541zm2.186.668a3.92 3.92 0 01-1.117-.161 5.32 5.32 0 001.917-4.015 5.322 5.322 0 00-1.43-3.713c.208-.033.419-.05.63-.05h.005c2.168.003 3.932 1.784 3.932 3.97 0 2.185-1.765 3.97-3.937 3.97z" fill="#1F1A3D"/><defs><linearGradient id="paint0_linear" x1=".998" y1="0" x2="68.021" y2="47.573" gradientUnits="userSpaceOnUse"><stop stop-color="#FDC8A4"/><stop offset="1" stop-color="#AC7C4A"/></linearGradient></defs></svg>