<?xml version="1.0" encoding="utf-8"?><svg xmlns="http://www.w3.org/2000/svg" xmlns:xlink="http://www.w3.org/1999/xlink"><symbol fill="none" viewBox="0 0 200 35" id="aizel" xmlns="http://www.w3.org/2000/svg"><path d="M183.048 30.003h16.202v4.884h-22.441V0h6.239v30.003zm-30.592-10.666h-14.692v10.666h17.208v4.884h-23.447V0h23.246v4.884h-17.007v9.669h14.692v4.784zm-62.19 10.666h19.12v4.884H82.82V31l18.516-26.116H82.92V0h25.963v3.788L90.266 30.003zM53.838 0h6.239v34.887h-6.24V0zM19.12 0h-5.535L0 34.887h6.44l2.919-8.074h13.887l2.918 8.074h6.44L19.12 0zm-8.05 21.83l5.232-14.454 5.233 14.453H11.07z" fill="#000"/></symbol><symbol fill="none" viewBox="0 0 16 8" id="arrow" xmlns="http://www.w3.org/2000/svg"><path d="M.646 4.354a.5.5 0 010-.708L3.828.464a.5.5 0 11.708.708L1.707 4l2.829 2.828a.5.5 0 01-.708.708L.646 4.354zM16 4.5H1v-1h15v1z" fill="#fff"/></symbol><symbol fill="none" viewBox="0 0 150 38" id="asna" xmlns="http://www.w3.org/2000/svg"><path d="M32.323 4.66C28.883 1.793 24.457 0 19.543 0 8.726 0 0 8.484 0 19s8.726 19 19.542 19c4.916 0 9.34-1.792 12.782-4.66v3.823h7.005V.717h-7.006V4.66zM19.665 31.667c-6.78 0-12.348-5.509-12.348-12.215 0-6.706 5.568-12.214 12.348-12.214 6.779 0 12.347 5.508 12.347 12.214 0 6.826-5.568 12.215-12.347 12.215zm41.798-.478c3.78 0 7.196-1.674 9.391-4.302L75 32.504C71.586 35.969 66.707 38 61.463 38c-10.731 0-19.39-8.484-19.39-19s8.659-19 19.39-19c5.244 0 10 2.15 13.537 5.496l-4.146 5.617c-2.195-2.629-5.61-4.302-9.39-4.302-6.952 0-12.44 5.497-12.44 12.189 0 6.811 5.61 12.189 12.44 12.189zM142.994.717V4.66C139.553 1.792 135.128 0 130.213 0c-10.817 0-19.542 8.484-19.542 19s8.725 19 19.542 19c4.916 0 9.34-1.792 12.782-4.66v3.823H150V.717h-7.006zm-12.659 30.95c-6.779 0-12.347-5.509-12.347-12.215 0-6.706 5.568-12.214 12.347-12.214 6.78 0 12.348 5.508 12.348 12.214 0 6.826-5.568 12.215-12.348 12.215zm-29.389-16.049V.905h6.981v36.19h-6.981V22.382H85.639v14.713h-6.98V.905h6.98v14.713h15.307z" fill="#212121"/></symbol><symbol fill="none" viewBox="0 0 150 46" id="auchan" xmlns="http://www.w3.org/2000/svg"><path d="M36.784 11.987c-.4.4-.4 1 0 1.3.4.399 1 .399 1.3 0 .4-.4.4-1 0-1.3-.4-.4-1-.4-1.3 0z" fill="#FEFEFE"/><path d="M45.981 11.383h-3.998l-1 1.199c-.2.2-.1.3.1.4l1.3.599 3.698-1.699c.3-.1.2-.5-.1-.5zm-14.894 19.58H26.19c-1.3.799-1.699.999-3.398 1.698-.1 0-.2.2-.1.3l4.398 12.287h2.499L25.59 33.96c2.599 0 8.896-.7 12.294-6.194-1.1 1.598-3.598 3.197-6.797 3.197zm6.997-17.682c-.4.4-1 .4-1.3 0-.399-.4-.399-1 0-1.299.4-.4 1-.4 1.3 0-.8-.799-2.099-.799-2.799 0-.7.8-.8 1.998 0 2.797.8.8 2.1.8 2.8 0 .7-.799.799-1.998 0-2.797.3.4.3.9 0 1.299zm-9.696 22.377l3.399 9.59h2.499l-3.599-10.09c-.6.2-1.399.3-2.299.5zm3.399-11.988c.3-.4.5-.799.8-1.299-.1-.1-.2 0-.3.1-5.098 5.395-9.996 6.094-13.794 6.094h-5.798c-.2 0-.3-.2-.2-.4 4.498-6.193 9.396-11.088 13.095-14.185l-9.696 8.092c-.8.6-1.7.999-2.9.999H.8c-.3 0-.2.3-.2.5.8 2.597 3.199 4.994 7.197 4.994l-2.899 2.897c-.1.1-.1.4.2.4h10.896c7.796 0 12.694-3.397 15.793-8.192z" fill="#00985F"/><path d="M140.541 45.253h8.897V17.78h-8.897v10.09h-8.396V17.78h-8.896v27.472h8.896v-10.39h8.396v10.39zM35.285 14.785c-.8-.8-.8-1.998 0-2.797.8-.8 2.1-.8 2.8 0 .699.799.799 1.997 0 2.796-.8.8-2.1.8-2.8 0zm2.5 12.986c3.398-5.494 4.597-14.185 4.597-14.185l-1.3-.6c-.2-.1-.2-.2-.1-.4l1-1.198c-.6-1.199-2.798-3.197-5.997-3.197-1.9 0-3.599.5-5.098 1.499 0 0-2.199 1.498-5.298 4.196-3.698 3.196-8.596 7.991-13.094 14.185-.1.2 0 .4.2.4h5.797c3.799 0 8.697-.7 13.794-6.094.1-.1.2-.1.3-.1.1.1.1.2.1.3-.8 1.997-2.799 5.893-6.497 8.29h4.898c3.299 0 5.698-1.498 6.697-3.096zm-4.999 6.593l3.799 10.789H47.38c-2.199-6.693-4.598-12.887-6.897-18.58-1.8 3.895-3.498 5.793-7.697 7.791zM0 45.253h10.895l3.699-11.488H3.998C2.698 37.16 1.4 40.957 0 45.253zm14.694-24.675l5.498-4.495c1.2-3.196 2.399-6.393 3.598-9.09.6 1.398 1.2 2.897 1.8 4.395 2.998-2.497 4.897-3.996 7.396-4.695C31.486 3.396 30.387.999 29.888 0H17.692c-1 2.198-4.898 10.29-9.496 21.178h4.398c.9 0 1.6-.1 2.099-.6zm67.372 21.578l.6 2.997h7.197V17.78h-8.897v19.08c-.8.9-2.299 1.899-3.698 1.899-2.5 0-3.799-1.4-3.799-3.996V17.78h-8.896v19.08c-.8.9-2.499 1.899-3.998 1.899-2.3 0-3.599-1.4-3.599-3.996V17.78H48.08v18.181c0 6.593 2.899 9.89 8.896 9.89 4.298 0 6.897-1.598 8.897-3.696 1.399 2.497 3.898 3.696 7.596 3.696 4.299-.1 6.698-1.598 8.597-3.696zm28.288-5.394c-.8.899-2.099 1.898-4.298 1.898-2.399 0-3.699-2.198-3.699-6.494 0-5.294 1.4-7.891 4.298-7.891 1.7 0 2.499.1 3.699.4v12.087zm-7.397 8.99h.3c3.998 0 6.697-1.398 8.196-3.596l.5 2.997h7.297V18.88c-2.899-.899-6.297-1.698-12.495-1.698-8.896 0-13.694 5.394-13.694 15.384 0 9.19 3.399 13.186 9.896 13.186z" fill="#DC000F"/></symbol><symbol fill="none" viewBox="0 0 150 55" id="beru" xmlns="http://www.w3.org/2000/svg"><path fill-rule="evenodd" clip-rule="evenodd" d="M140.455 44.49H150v-9.145h-9.545v9.146zm.417-13.826h8.772V1.154h-8.773v29.51h.001zM20.91 35.445c-1.333 1.447-3.037 2.17-5.113 2.17-2.036 0-3.722-.732-5.053-2.2-1.332-1.466-1.998-3.723-1.998-6.775 0-2.931.666-5.132 1.998-6.598 1.33-1.466 3.017-2.2 5.053-2.2 2.076 0 3.78.734 5.113 2.2 1.331 1.466 1.998 3.685 1.998 6.657 0 3.05-.668 5.3-1.998 6.746zm-4.455-22c-3.236 0-6.329.977-8.926 2.648.273-.772.555-1.54.845-2.306 1.184-3.085 3.952-4.63 7.311-4.935L29.256 7.62V0L20.87.949C6.383 2.333 0 5.864 0 25.63c0 12.624 6.495 18.417 15.828 18.417 9.333 0 15.515-5.798 15.515-15.301 0-9.504-6.32-15.3-14.888-15.3v-.002zM91.372 35.45c-1.331 1.466-3.017 2.2-5.054 2.2-2.076 0-3.78-.734-5.112-2.2-1.332-1.467-1.999-3.686-1.999-6.657 0-3.052.668-5.3 1.999-6.746 1.332-1.447 3.036-2.17 5.112-2.17 2.037 0 3.723.731 5.054 2.199 1.332 1.466 1.998 3.724 1.998 6.775 0 2.932-.666 5.132-1.998 6.599zm-3.52-22.006c-4.042 0-7.133 1.528-9.27 4.027v-3.404h-7.497V55h8.12V40.693c2.1 2.097 4.981 3.354 8.648 3.354 8.568 0 13.949-6.85 13.949-15.301 0-8.45-5.381-15.302-13.95-15.302zm38.076.623l-7.055 19.782-7.254-19.781h-8.833l11.903 29.69c-1.453 2.432-3.532 3.14-6.268 3.14h-3.281v7.49h4.18c5.829 0 11.017-3.256 13.716-10.446l11.137-29.874h-8.245v-.001zM44.515 25.436c.167-2.862 2.911-6.022 6.98-6.022 4.069 0 6.597 3.16 6.765 6.021H44.514h.001zm21.718 3.222c0-8.509-4.508-15.427-14.662-15.427-10.153 0-15.6 6.918-15.6 15.427 0 8.958 6.082 15.769 17.613 15.769 5.93 0 9.968-2.307 9.968-2.307v-6.26s-3.193 1.92-8.666 1.92c-6.092 0-9.9-2.78-10.361-6.478h21.584c.078-.725.124-1.89.124-2.644z" fill="#422891"/></symbol><symbol fill="none" viewBox="0 0 7 13" id="fb" xmlns="http://www.w3.org/2000/svg"><path d="M4.751 2.508h1.5a.25.25 0 00.25-.25v-1.5a.25.25 0 00-.25-.25h-1.5a2.753 2.753 0 00-2.75 2.75v1.75H.251a.25.25 0 00-.25.25v1.5c0 .138.112.25.25.25h1.75v5.25c0 .138.112.25.25.25h1.5a.25.25 0 00.25-.25v-5.25h1.75a.25.25 0 00.237-.171l.5-1.5a.25.25 0 00-.237-.33h-2.25v-1.75a.75.75 0 01.75-.75z" fill="#1F1A3D"/></symbol><symbol fill="none" viewBox="0 0 13 13" id="instagram" xmlns="http://www.w3.org/2000/svg"><path d="M6.617 12.508h-.12c-.94.002-1.809-.022-2.654-.073a3.55 3.55 0 01-2.046-.775c-.544-.443-.915-1.043-1.103-1.78C.53 9.236.52 8.605.513 7.994a131.48 131.48 0 01-.014-1.485c.001-.53.008-1.05.014-1.487.008-.61.017-1.242.18-1.885.19-.739.56-1.338 1.104-1.782A3.55 3.55 0 013.843.581 41.812 41.812 0 016.5.508C7.441.506 8.31.53 9.155.581a3.549 3.549 0 012.046.774c.544.444.915 1.043 1.103 1.782.164.643.173 1.274.181 1.885.007.438.013.957.014 1.485v.002a130.64 130.64 0 01-.014 1.485c-.008.61-.016 1.242-.18 1.885-.19.739-.56 1.338-1.104 1.781a3.55 3.55 0 01-2.046.775c-.81.049-1.64.073-2.538.073zm-.12-.938a40.9 40.9 0 002.601-.071c.586-.036 1.094-.226 1.51-.565.385-.314.65-.747.788-1.287.137-.535.144-1.11.152-1.666.006-.435.012-.95.014-1.473-.002-.523-.008-1.038-.014-1.474-.008-.555-.015-1.13-.152-1.666-.138-.54-.403-.972-.788-1.286-.416-.34-.924-.53-1.51-.565A40.97 40.97 0 006.5 1.445a40.86 40.86 0 00-2.6.072c-.586.035-1.094.226-1.51.565-.385.314-.65.746-.788 1.286-.137.536-.144 1.11-.152 1.666-.006.436-.012.952-.013 1.475 0 .52.007 1.037.013 1.472.008.556.015 1.13.152 1.666.138.54.403.973.788 1.287.416.339.924.53 1.51.565.825.05 1.675.073 2.598.071zm-.021-2.133a2.933 2.933 0 01-2.93-2.93 2.933 2.933 0 012.93-2.929 2.933 2.933 0 012.93 2.93 2.933 2.933 0 01-2.93 2.93zm0-4.921a1.995 1.995 0 00-1.993 1.992c0 1.098.894 1.992 1.993 1.992a1.994 1.994 0 001.992-1.992 1.994 1.994 0 00-1.992-1.992zM9.733 2.64a.703.703 0 100 1.406.703.703 0 000-1.406z" fill="#1F1A3D"/></symbol><symbol fill="none" viewBox="0 0 200 24" id="kupivip" xmlns="http://www.w3.org/2000/svg"><path d="M74.657 23.543h4.11V0h-4.11v23.543zm38.357 0h4.109V0h-4.109v23.543zM95.89 14.629L89.041 0h-4.338L95.89 24l11.188-24h-4.338l-6.85 14.629zM0 23.543h4.11V0H0v23.543zM19.178 0h-5.023l-9.36 11.657 9.36 11.886h5.023l-9.36-11.886L19.177 0zm144.977 9.829V3.886h3.882c2.739 0 3.424 1.828 3.424 2.971 0 1.829-1.141 2.972-3.424 2.972h-3.882zm11.187-2.972c0-4.343-3.881-6.857-7.305-6.857h-8.22v23.543h4.11v-9.829l7.762 9.829h5.023l-7.991-9.829c3.653-.457 6.621-2.971 6.621-6.857zM38.128 15.314c0 2.743-1.827 4.8-4.338 4.8s-4.338-1.828-4.338-4.8V0h-4.11v15.543c0 5.486 3.882 8.457 8.448 8.457 4.566 0 8.447-2.971 8.447-8.457V0h-4.11v15.314zm20.32-2.514H55.48V4.114h2.968c2.968 0 4.794 1.829 4.794 4.343 0 2.514-1.826 4.343-4.794 4.343zM58.675 0H51.37v23.543h4.11v-6.629h3.196c5.48 0 8.447-4.114 8.447-8.457C67.123 4.114 64.155 0 58.676 0zm75.342 12.8h-2.968V4.114h2.968c2.74 0 4.566 1.829 4.566 4.343 0 2.514-1.826 4.343-4.566 4.343zm.229-12.8h-7.306v23.543h4.109v-6.629h3.197c5.479 0 8.447-4.114 8.447-8.457 0-4.343-2.968-8.457-8.447-8.457zm61.643 0v15.314c0 2.743-1.826 4.8-4.337 4.8-2.74 0-4.338-2.057-4.338-4.8V0h-4.11v15.543c0 5.486 3.881 8.457 8.448 8.457 4.566 0 8.447-2.971 8.447-8.457V0h-4.11zm-49.315 23.543h4.11v-4.114h-4.11v4.114z" fill="#000"/></symbol><symbol fill="none" viewBox="0 0 200 40" id="lamoda" xmlns="http://www.w3.org/2000/svg"><path d="M90.368 34.897h7.159V20.053c0-7.841-4.991-12.004-10.996-12.004-3.975 0-6.978 1.728-9.14 4.12h-.972c-1.632-2.127-4.458-4.12-8.652-4.12-3.805 0-6.845 1.683-8.434 3.633h-.972v-2.88h-6.668v26.095h7.114V21.252c0-4.655 1.37-6.248 6.137-6.248 4.767 0 6.09 1.593 6.09 6.248v13.643h7.161V21.252c0-4.655 1.324-6.248 6.093-6.248 4.772 0 6.092 1.593 6.092 6.248l-.01 13.643-.002.002zm-67.194-3.736c-1.279-.929-1.854-2.302-1.854-4.383 0-2.614.797-5.836 2.12-7.222.927-.931 2.25-1.373 4.062-1.373 2.562 0 5.696.674 7.02 2.038.884.886 1.283 2.125 1.283 3.853 0 2.482-.708 5.98-2.255 7.442-.882.799-2.073 1.15-3.75 1.15-2.293 0-5.174-.533-6.626-1.505zm11.263 5.494l-.312 2.392 6.663.825 3.158-25.855-6.661-.821-.311 2.507h-.77c-.997-1.77-3.669-4.166-8.702-4.166-7.02 0-12.185 5.185-13.114 12.27-.086.691-.13 1.388-.132 2.085 0 6.775 4.592 12.359 11.744 13.155.398.038.794.05 1.193.045 3.003 0 5.255-1.283 6.404-2.434h.837l.003-.003zm150.729-7.652c-5.342 0-7.109-1.77-7.109-7.13 0-5.361 1.769-7.184 7.109-7.184 5.343 0 7.109 1.816 7.109 7.185 0 5.366-1.766 7.13-7.109 7.13zm-34.262 0c-5.345 0-7.109-1.77-7.109-7.13 0-5.361 1.764-7.184 7.106-7.184 5.343 0 7.112 1.816 7.112 7.185 0 5.366-1.769 7.13-7.112 7.13h.003zm-33.383 0c-5.34 0-7.106-1.77-7.106-7.13 0-5.361 1.766-7.184 7.106-7.184s7.112 1.816 7.112 7.185c0 5.366-1.769 7.13-7.112 7.13zM4.341 0L0 34.845l7.087.866L11.357.864 4.342 0zm188.243 32.372v2.523h6.666V8.805h-6.666v2.528h-.971c-1.062-1.419-3.753-3.28-7.384-3.28-7.948 0-13.376 6.062-13.376 13.823 0 7.76 5.43 13.778 13.376 13.778 3.623 0 6.315-1.86 7.384-3.28h.971v-.002zm-75.063-24.32c-8.831 0-14.303 6.06-14.303 13.822 0 7.759 5.472 13.777 14.303 13.777s14.321-6.026 14.321-13.777c0-7.754-5.477-13.823-14.321-13.823zm40.888 24.32v2.523h6.666V.3h-7.062v11.03h-.972c-1.059-1.418-3.446-3.279-7.064-3.279-7.949 0-13.381 6.061-13.381 13.823 0 7.759 5.432 13.777 13.381 13.777 3.618 0 6.444-1.86 7.46-3.279h.972z" fill="#000"/></symbol><symbol fill="none" viewBox="0 0 160 30" id="logo" xmlns="http://www.w3.org/2000/svg"><path d="M37.324 16.472a7.859 7.859 0 00-5.56-2.313c-.904 0-1.738.14-2.572.42-.348-.21-.625-.42-.973-.56.625-.35 1.251-.771 1.738-1.332A7.46 7.46 0 0032.11 7.43c0-2.033-.764-3.855-2.154-5.257A7.334 7.334 0 0024.744 0H5.977v1.682h3.267v6.309H5.977v1.682h3.267v4.626a8.486 8.486 0 00-1.39-.14c-2.085 0-4.1.841-5.56 2.313A7.994 7.994 0 000 22.079c0 2.103.834 4.136 2.294 5.608A7.859 7.859 0 007.854 30h16.82c1.251 0 2.502-.28 3.545-.841 1.043.56 2.294.841 3.475.841a7.857 7.857 0 005.56-2.313 7.994 7.994 0 002.294-5.608 8.051 8.051 0 00-2.224-5.607zM9.244 28.388h-1.39c-3.406 0-6.255-2.804-6.255-6.309 0-3.504 2.78-6.308 6.255-6.308.487 0 .904.07 1.39.14v12.477zm1.599-26.776h6.394v6.379h-6.394V1.612zm6.464 26.776h-6.464V16.612c.208.14.486.28.695.42l5.769 4.206v7.15zM12.51 15.7a5.185 5.185 0 00-.834-.49l-.834-.421V9.673h6.394v9.533L12.511 15.7zm12.163 12.687h-5.769V22.5l7.646 5.608c-.556.21-1.182.28-1.877.28zm3.614-1.052c-.07-.07-.139-.07-.208-.14l-9.105-6.729V9.673h3.058V7.99h-3.128V1.612h5.77c3.196 0 5.768 2.594 5.768 5.818 0 3.224-2.572 5.818-5.769 5.818h-2.641v1.682h2.641c3.684 0 6.673 3.014 6.673 6.729 0 2.383-1.182 4.486-3.059 5.677zm3.476 1.052c-.626 0-1.182-.07-1.807-.28.208-.14.417-.351.625-.561 1.599-1.612 2.433-3.715 2.433-5.958a8.33 8.33 0 00-2.294-5.748c.348-.07.695-.07.973-.07 3.406 0 6.256 2.804 6.256 6.308 0 3.505-2.78 6.309-6.186 6.309zm16.68-25.234h3.893c.348 0 .626.07.904.14s.556.21.834.42c.347.281.625.562.764.982.209.35.278.771.278 1.192v.14c0 .56-.139 1.051-.417 1.472-.278.49-.695.771-1.181.981.625.14 1.181.491 1.529.982.347.49.556 1.121.556 1.682v.42c-.07.421-.14.912-.348 1.332-.208.42-.486.771-.903 1.052-.278.14-.556.28-.834.35a4.07 4.07 0 01-.973.14h-4.17l.069-11.285zm1.738 4.767h1.182c.487 0 .904-.14 1.251-.35.417-.211.556-.562.626-1.122v-.14c0-.702-.209-1.192-.695-1.332-.487-.21-.974-.28-1.599-.28h-.765V7.92zm.209 5.046h1.043c.556 0 1.112-.14 1.598-.35.487-.21.695-.701.695-1.402v-.07c0-.701-.208-1.192-.695-1.402-.486-.21-.973-.35-1.529-.35h-1.251v3.644c0-.07.07-.07.139-.07zm7.507-9.813h6.255v1.612h-4.448V7.57h4.448v1.612h-4.448v3.645h4.448v1.682h-6.256V3.154zm15.151 8.411H68.6l-1.32 2.944h-1.947l5.422-11.775 5.421 11.775H74.23l-1.181-2.944zM70.686 6.8c-.07.21-.139.42-.278.63l-1.181 2.594h3.127l-1.18-2.594c-.07-.14-.14-.35-.209-.49a1.33 1.33 0 01-.139-.562c0-.07 0-.07-.07-.14 0-.07 0-.07-.069-.14.14.28.07.49 0 .701zm9.175-3.645v6.94c0 .91.209 1.682.626 2.242.417.561 1.181.842 2.154.842.973 0 1.668-.28 2.155-.842.486-.56.695-1.331.695-2.242v-6.87h1.807v7.08c0 1.542-.417 2.663-1.182 3.434-.764.771-1.946 1.122-3.475 1.122-1.529 0-2.71-.35-3.475-1.122-.765-.77-1.182-1.892-1.182-3.364v-7.15l1.877-.07zm13.97 11.355h-1.876V4.766h-2.989V3.154h7.785v1.612h-2.99v9.743h.07zm7.09-5.187l-3.753-6.168h1.946l2.363 3.855c.069.07.069.14.139.21.069.07.069.14.139.21 0 0 0 .071.069.071 0 0 .001.07.07.07 0 .07.07.07.07.14s.069.07.069.14c.07-.14.139-.35.209-.49.069-.14.139-.28.278-.49l2.432-3.786h1.807l-3.822 6.168v5.187h-1.808l-.208-5.117zm12.65 5.187V2.804h5.769v.981h-4.657V7.43h4.518v.981h-4.518v6.028l-1.112.07zm12.928.28c-1.112 0-2.085-.21-3.059-.7a5.563 5.563 0 01-2.293-2.103c-.556-.911-.834-2.033-.834-3.365 0-1.191.278-2.313.903-3.224.626-.911 1.39-1.612 2.363-2.103.974-.49 2.016-.77 3.059-.77.903 0 1.737.14 2.502.49.764.35 1.39.771 1.946 1.332.556.56.973 1.191 1.251 1.962.278.771.487 1.613.487 2.454 0 1.191-.278 2.313-.834 3.224-.556.911-1.321 1.682-2.294 2.173-.973.42-2.016.63-3.197.63zm0-.91c.973 0 1.807-.21 2.571-.701.765-.421 1.39-1.052 1.877-1.893.487-.771.695-1.682.695-2.664 0-.84-.208-1.682-.556-2.453-.417-.84-.973-1.472-1.738-2.032-.764-.561-1.668-.772-2.78-.772-.764 0-1.529.21-2.363.561-.834.42-1.46.982-2.016 1.753-.556.77-.764 1.752-.764 2.873 0 .912.208 1.823.625 2.594.417.77 1.043 1.402 1.808 1.892.834.631 1.668.841 2.641.841zm15.152.63h-1.321l-4.101-5.607h-.625v5.607h-1.043V2.804h2.155c2.502 0 3.753 1.051 3.753 3.224 0 1.051-.278 1.752-.903 2.243-.626.42-1.321.701-2.086.771l4.171 5.467zm-5.213-6.448c.903 0 1.598-.14 2.085-.42.487-.281.765-.842.765-1.753 0-.841-.209-1.402-.695-1.752-.487-.351-1.182-.491-2.225-.491h-.834V7.99l.904.07zm12.372-4.556c-1.043 0-1.877.21-2.641.63-.765.421-1.321 1.052-1.738 1.823-.417.771-.626 1.682-.626 2.734 0 1.612.487 2.873 1.39 3.785.904.91 2.086 1.402 3.545 1.402 1.321 0 2.572-.491 3.753-1.402v1.261c-.556.35-1.112.561-1.737.771-.626.21-1.321.28-2.016.28-.903 0-1.876-.14-2.78-.49-.904-.35-1.668-.981-2.363-1.893-.626-.91-.973-2.102-.973-3.644 0-1.122.208-2.173.625-3.084.417-.912 1.112-1.683 2.016-2.243.904-.561 2.085-.842 3.545-.842 1.32 0 2.571.421 3.753 1.262l-.07 1.192c-.417-.35-.973-.701-1.529-1.052-.556-.35-1.251-.49-2.154-.49zm5.421 11.004V2.804H160v.981h-4.657V7.43H160v.981h-4.657v5.047H160v.981l-5.769.07zM53.727 23.061v.49c-.278-.28-.556-.56-.903-.7-.348-.14-.695-.28-1.112-.28-.765 0-1.39.28-1.877.77-.487.56-.765 1.192-.765 1.963 0 .42.07.84.278 1.191.14.35.348.631.626.841.278.21.556.421.834.491.278.14.626.21.904.21.347 0 .695-.07 1.042-.21.348-.14.695-.35.973-.7v.49c-.486.56-1.181.77-1.876.77-.904 0-1.599-.28-2.225-.91-.625-.631-.903-1.332-.903-2.173s.278-1.612.903-2.173c.626-.56 1.321-.911 2.155-.911.765.07 1.39.28 1.946.84zm3.614.07c.626-.631 1.321-.911 2.225-.911.834 0 1.598.28 2.224.91.625.632.903 1.333.903 2.174 0 .84-.278 1.612-.903 2.173-.626.63-1.32.91-2.224.91-.835 0-1.599-.28-2.225-.91-.625-.561-.903-1.332-.903-2.173s.347-1.542.903-2.173zm.279 4.135a2.551 2.551 0 001.876.771c.765 0 1.39-.28 1.877-.77.486-.561.764-1.192.764-1.963 0-.771-.278-1.402-.764-1.963a2.556 2.556 0 00-1.877-.77c-.765 0-1.39.28-1.877.77-.486.56-.764 1.192-.764 1.963 0 .84.278 1.472.765 1.962zm11.05-4.135l-.277.21c-.278-.49-.626-.77-1.182-.77-.347 0-.625.14-.834.35-.209.21-.278.49-.278.77 0 .14 0 .281.07.421.069.14.139.21.208.28.14.07.209.14.278.21.07.07.209.141.417.211.626.28 1.043.49 1.182.63.417.281.625.702.625 1.192 0 .491-.208.912-.556 1.262-.347.35-.764.49-1.32.49s-1.043-.21-1.39-.63l-.418-.63.348-.141c.07.21.208.42.347.56.278.351.626.491 1.113.491.417 0 .764-.14 1.042-.42.278-.28.417-.56.417-.982 0-.42-.208-.7-.556-.91-.139-.07-.486-.281-1.112-.561-.278-.14-.486-.28-.626-.35a.716.716 0 01-.347-.422 1.191 1.191 0 01-.209-.7c0-.421.14-.701.418-1.052.278-.35.625-.42 1.112-.42.278 0 .556.07.834.21.347.21.556.42.695.7zm3.615 5.187h-.417l.695-6.169 2.572 5.538 2.571-5.538.695 6.169h-.347l-.556-4.767-2.363 4.977-2.364-4.977-.486 4.767zm12.302-5.958v.35h-2.432v2.173h2.432v.35h-2.432v2.734h2.432v.35h-2.85V22.36h2.85zm5.839.35h-1.53v5.608h-.416V22.71h-1.53v-.35h3.476v.35zm2.64-.35h.418v5.958h-.417V22.36zm8.55.7v.491c-.278-.28-.556-.56-.904-.7-.347-.14-.695-.28-1.112-.28-.764 0-1.39.28-1.876.77-.487.56-.765 1.192-.765 1.963 0 .42.07.84.278 1.191.14.35.348.631.626.841.278.21.556.421.834.491.278.14.625.21.903.21.348 0 .695-.07 1.043-.21.347-.14.695-.35.973-.7v.49c-.556.49-1.251.77-1.946.77-.904 0-1.599-.28-2.224-.91-.626-.631-.904-1.332-.904-2.173s.278-1.612.904-2.173c.625-.631 1.32-.911 2.154-.911.765.07 1.46.28 2.016.84zm11.607 0v.491c-.278-.28-.556-.56-.903-.7-.348-.14-.695-.28-1.112-.28-.765 0-1.39.28-1.877.77-.487.56-.765 1.192-.765 1.963 0 .42.07.84.278 1.191.139.35.348.631.626.841.278.21.556.421.834.491.278.14.626.21.904.21.347 0 .695-.07 1.042-.21.348-.14.695-.35.973-.7v.49c-.556.49-1.251.77-1.946.77-.903 0-1.598-.28-2.224-.91-.626-.631-.904-1.332-.904-2.173s.278-1.612.904-2.173c.626-.631 1.321-.911 2.155-.911.834.07 1.459.28 2.015.84zm3.615.07c.625-.63 1.32-.91 2.224-.91.834 0 1.598.28 2.224.91.625.632.903 1.333.903 2.174 0 .84-.278 1.612-.903 2.173-.626.63-1.321.91-2.224.91-.834 0-1.599-.28-2.224-.91-.626-.561-.904-1.332-.904-2.173s.347-1.542.904-2.173zm.278 4.136a2.553 2.553 0 001.876.771c.765 0 1.39-.28 1.877-.77.486-.561.764-1.192.764-1.963 0-.771-.278-1.402-.764-1.963a2.557 2.557 0 00-1.877-.77c-.764 0-1.39.28-1.876.77-.487.56-.765 1.192-.765 1.963 0 .84.278 1.472.765 1.962zm8.34 1.052h-.417l.695-6.169 2.572 5.538 2.571-5.538.696 6.169h-.417l-.557-4.767-2.293 4.977-2.363-4.977-.487 4.767zm10.565-2.804h-.765v2.804h-.417V22.36h1.182c.486 0 .903.14 1.251.42.347.28.486.631.486 1.122 0 .49-.139.911-.486 1.191-.348.28-.765.421-1.251.421zm-.765-2.804v2.454h.765c.417 0 .695-.14.973-.35.208-.211.347-.492.347-.912 0-.35-.139-.701-.347-.911-.209-.21-.556-.35-.973-.35l-.765.07zm9.175 5.608l-.765-1.963h-2.502l-.764 1.963h-.417l2.502-6.169 2.432 6.169h-.486zm-3.128-2.313h2.224l-1.112-2.804-1.112 2.804zm6.673 2.313h-.417V22.29l5.004 5.257V22.36h.417v6.098l-4.935-5.257-.069 5.117zm9.591 0v-2.594l-1.946-3.434h.417l1.738 3.014 1.737-3.014h.417l-2.015 3.434v2.594h-.348z" fill="#fff"/></symbol><symbol fill="none" viewBox="0 0 160 30" id="logo-footer" xmlns="http://www.w3.org/2000/svg"><path d="M37.324 16.472a7.859 7.859 0 00-5.56-2.313c-.904 0-1.738.14-2.572.42-.348-.21-.625-.42-.973-.56.625-.35 1.251-.771 1.738-1.332A7.46 7.46 0 0032.11 7.43c0-2.033-.764-3.855-2.154-5.257A7.334 7.334 0 0024.744 0H5.977v1.682h3.267v6.309H5.977v1.682h3.267v4.626a8.486 8.486 0 00-1.39-.14c-2.085 0-4.1.841-5.56 2.313A7.994 7.994 0 000 22.079c0 2.103.834 4.136 2.294 5.608A7.859 7.859 0 007.854 30h16.82c1.251 0 2.502-.28 3.545-.841 1.043.56 2.294.841 3.475.841a7.857 7.857 0 005.56-2.313 7.994 7.994 0 002.294-5.608 8.051 8.051 0 00-2.224-5.607zM9.244 28.388h-1.39c-3.406 0-6.255-2.804-6.255-6.309 0-3.504 2.78-6.308 6.255-6.308.487 0 .904.07 1.39.14v12.477zm1.599-26.776h6.394v6.379h-6.394V1.612zm6.464 26.776h-6.464V16.612c.208.14.486.28.695.42l5.769 4.206v7.15zM12.51 15.7a5.185 5.185 0 00-.834-.49l-.834-.421V9.673h6.394v9.533L12.511 15.7zm12.163 12.687h-5.769V22.5l7.646 5.608c-.556.21-1.182.28-1.877.28zm3.614-1.052c-.07-.07-.139-.07-.208-.14l-9.105-6.729V9.673h3.058V7.99h-3.128V1.612h5.77c3.196 0 5.768 2.594 5.768 5.818 0 3.224-2.572 5.818-5.769 5.818h-2.641v1.682h2.641c3.684 0 6.673 3.014 6.673 6.729 0 2.383-1.182 4.486-3.059 5.677zm3.476 1.052c-.626 0-1.182-.07-1.807-.28.208-.14.417-.351.625-.561 1.599-1.612 2.433-3.715 2.433-5.958a8.33 8.33 0 00-2.294-5.748c.348-.07.695-.07.973-.07 3.406 0 6.256 2.804 6.256 6.308 0 3.505-2.78 6.309-6.186 6.309zm16.68-25.234h3.893c.348 0 .626.07.904.14s.556.21.834.42c.347.281.625.562.764.982.209.35.278.771.278 1.192v.14c0 .56-.139 1.051-.417 1.472-.278.49-.695.771-1.181.981.625.14 1.181.491 1.529.982.347.49.556 1.121.556 1.682v.42c-.07.421-.14.912-.348 1.332-.208.42-.486.771-.903 1.052-.278.14-.556.28-.834.35a4.07 4.07 0 01-.973.14h-4.17l.069-11.285zm1.738 4.767h1.182c.487 0 .904-.14 1.251-.35.417-.211.556-.562.626-1.122v-.14c0-.702-.209-1.192-.695-1.332-.487-.21-.974-.28-1.599-.28h-.765V7.92zm.209 5.046h1.043c.556 0 1.112-.14 1.598-.35.487-.21.695-.701.695-1.402v-.07c0-.701-.208-1.192-.695-1.402-.486-.21-.973-.35-1.529-.35h-1.251v3.644c0-.07.07-.07.139-.07zm7.507-9.813h6.255v1.612h-4.448V7.57h4.448v1.612h-4.448v3.645h4.448v1.682h-6.256V3.154zm15.151 8.411H68.6l-1.32 2.944h-1.947l5.422-11.775 5.421 11.775H74.23l-1.181-2.944zM70.686 6.8c-.07.21-.139.42-.278.63l-1.181 2.594h3.127l-1.18-2.594c-.07-.14-.14-.35-.209-.49a1.33 1.33 0 01-.139-.562c0-.07 0-.07-.07-.14 0-.07 0-.07-.069-.14.14.28.07.49 0 .701zm9.175-3.645v6.94c0 .91.209 1.682.626 2.242.417.561 1.181.842 2.154.842.973 0 1.668-.28 2.155-.842.486-.56.695-1.331.695-2.242v-6.87h1.807v7.08c0 1.542-.417 2.663-1.182 3.434-.764.771-1.946 1.122-3.475 1.122-1.529 0-2.71-.35-3.475-1.122-.765-.77-1.182-1.892-1.182-3.364v-7.15l1.877-.07zm13.97 11.355h-1.876V4.766h-2.989V3.154h7.785v1.612h-2.99v9.743h.07zm7.09-5.187l-3.753-6.168h1.946l2.363 3.855c.069.07.069.14.139.21.069.07.069.14.139.21 0 0 0 .071.069.071 0 0 .001.07.07.07 0 .07.07.07.07.14s.069.07.069.14c.07-.14.139-.35.209-.49.069-.14.139-.28.278-.49l2.432-3.786h1.807l-3.822 6.168v5.187h-1.808l-.208-5.117zm12.65 5.187V2.804h5.769v.981h-4.657V7.43h4.518v.981h-4.518v6.028l-1.112.07zm12.928.28c-1.112 0-2.085-.21-3.059-.7a5.563 5.563 0 01-2.293-2.103c-.556-.911-.834-2.033-.834-3.365 0-1.191.278-2.313.903-3.224.626-.911 1.39-1.612 2.363-2.103.974-.49 2.016-.77 3.059-.77.903 0 1.737.14 2.502.49.764.35 1.39.771 1.946 1.332.556.56.973 1.191 1.251 1.962.278.771.487 1.613.487 2.454 0 1.191-.278 2.313-.834 3.224-.556.911-1.321 1.682-2.294 2.173-.973.42-2.016.63-3.197.63zm0-.91c.973 0 1.807-.21 2.571-.701.765-.421 1.39-1.052 1.877-1.893.487-.771.695-1.682.695-2.664 0-.84-.208-1.682-.556-2.453-.417-.84-.973-1.472-1.738-2.032-.764-.561-1.668-.772-2.78-.772-.764 0-1.529.21-2.363.561-.834.42-1.46.982-2.016 1.753-.556.77-.764 1.752-.764 2.873 0 .912.208 1.823.625 2.594.417.77 1.043 1.402 1.808 1.892.834.631 1.668.841 2.641.841zm15.152.63h-1.321l-4.101-5.607h-.625v5.607h-1.043V2.804h2.155c2.502 0 3.753 1.051 3.753 3.224 0 1.051-.278 1.752-.903 2.243-.626.42-1.321.701-2.086.771l4.171 5.467zm-5.213-6.448c.903 0 1.598-.14 2.085-.42.487-.281.765-.842.765-1.753 0-.841-.209-1.402-.695-1.752-.487-.351-1.182-.491-2.225-.491h-.834V7.99l.904.07zm12.372-4.556c-1.043 0-1.877.21-2.641.63-.765.421-1.321 1.052-1.738 1.823-.417.771-.626 1.682-.626 2.734 0 1.612.487 2.873 1.39 3.785.904.91 2.086 1.402 3.545 1.402 1.321 0 2.572-.491 3.753-1.402v1.261c-.556.35-1.112.561-1.737.771-.626.21-1.321.28-2.016.28-.903 0-1.876-.14-2.78-.49-.904-.35-1.668-.981-2.363-1.893-.626-.91-.973-2.102-.973-3.644 0-1.122.208-2.173.625-3.084.417-.912 1.112-1.683 2.016-2.243.904-.561 2.085-.842 3.545-.842 1.32 0 2.571.421 3.753 1.262l-.07 1.192c-.417-.35-.973-.701-1.529-1.052-.556-.35-1.251-.49-2.154-.49zm5.421 11.004V2.804H160v.981h-4.657V7.43H160v.981h-4.657v5.047H160v.981l-5.769.07zM53.727 23.061v.49c-.278-.28-.556-.56-.903-.7-.348-.14-.695-.28-1.112-.28-.765 0-1.39.28-1.877.77-.487.56-.765 1.192-.765 1.963 0 .42.07.84.278 1.191.14.35.348.631.626.841.278.21.556.421.834.491.278.14.626.21.904.21.347 0 .695-.07 1.042-.21.348-.14.695-.35.973-.7v.49c-.486.56-1.181.77-1.876.77-.904 0-1.599-.28-2.225-.91-.625-.631-.903-1.332-.903-2.173s.278-1.612.903-2.173c.626-.56 1.321-.911 2.155-.911.765.07 1.39.28 1.946.84zm3.614.07c.626-.631 1.321-.911 2.225-.911.834 0 1.598.28 2.224.91.625.632.903 1.333.903 2.174 0 .84-.278 1.612-.903 2.173-.626.63-1.32.91-2.224.91-.835 0-1.599-.28-2.225-.91-.625-.561-.903-1.332-.903-2.173s.347-1.542.903-2.173zm.279 4.135a2.551 2.551 0 001.876.771c.765 0 1.39-.28 1.877-.77.486-.561.764-1.192.764-1.963 0-.771-.278-1.402-.764-1.963a2.556 2.556 0 00-1.877-.77c-.765 0-1.39.28-1.877.77-.486.56-.764 1.192-.764 1.963 0 .84.278 1.472.765 1.962zm11.05-4.135l-.277.21c-.278-.49-.626-.77-1.182-.77-.347 0-.625.14-.834.35-.209.21-.278.49-.278.77 0 .14 0 .281.07.421.069.14.139.21.208.28.14.07.209.14.278.21.07.07.209.141.417.211.626.28 1.043.49 1.182.63.417.281.625.702.625 1.192 0 .491-.208.912-.556 1.262-.347.35-.764.49-1.32.49s-1.043-.21-1.39-.63l-.418-.63.348-.141c.07.21.208.42.347.56.278.351.626.491 1.113.491.417 0 .764-.14 1.042-.42.278-.28.417-.56.417-.982 0-.42-.208-.7-.556-.91-.139-.07-.486-.281-1.112-.561-.278-.14-.486-.28-.626-.35a.716.716 0 01-.347-.422 1.191 1.191 0 01-.209-.7c0-.421.14-.701.418-1.052.278-.35.625-.42 1.112-.42.278 0 .556.07.834.21.347.21.556.42.695.7zm3.615 5.187h-.417l.695-6.169 2.572 5.538 2.571-5.538.695 6.169h-.347l-.556-4.767-2.363 4.977-2.364-4.977-.486 4.767zm12.302-5.958v.35h-2.432v2.173h2.432v.35h-2.432v2.734h2.432v.35h-2.85V22.36h2.85zm5.839.35h-1.53v5.608h-.416V22.71h-1.53v-.35h3.476v.35zm2.64-.35h.418v5.958h-.417V22.36zm8.55.7v.491c-.278-.28-.556-.56-.904-.7-.347-.14-.695-.28-1.112-.28-.764 0-1.39.28-1.876.77-.487.56-.765 1.192-.765 1.963 0 .42.07.84.278 1.191.14.35.348.631.626.841.278.21.556.421.834.491.278.14.625.21.903.21.348 0 .695-.07 1.043-.21.347-.14.695-.35.973-.7v.49c-.556.49-1.251.77-1.946.77-.904 0-1.599-.28-2.224-.91-.626-.631-.904-1.332-.904-2.173s.278-1.612.904-2.173c.625-.631 1.32-.911 2.154-.911.765.07 1.46.28 2.016.84zm11.607 0v.491c-.278-.28-.556-.56-.903-.7-.348-.14-.695-.28-1.112-.28-.765 0-1.39.28-1.877.77-.487.56-.765 1.192-.765 1.963 0 .42.07.84.278 1.191.139.35.348.631.626.841.278.21.556.421.834.491.278.14.626.21.904.21.347 0 .695-.07 1.042-.21.348-.14.695-.35.973-.7v.49c-.556.49-1.251.77-1.946.77-.903 0-1.598-.28-2.224-.91-.626-.631-.904-1.332-.904-2.173s.278-1.612.904-2.173c.626-.631 1.321-.911 2.155-.911.834.07 1.459.28 2.015.84zm3.615.07c.625-.63 1.32-.91 2.224-.91.834 0 1.598.28 2.224.91.625.632.903 1.333.903 2.174 0 .84-.278 1.612-.903 2.173-.626.63-1.321.91-2.224.91-.834 0-1.599-.28-2.224-.91-.626-.561-.904-1.332-.904-2.173s.347-1.542.904-2.173zm.278 4.136a2.553 2.553 0 001.876.771c.765 0 1.39-.28 1.877-.77.486-.561.764-1.192.764-1.963 0-.771-.278-1.402-.764-1.963a2.557 2.557 0 00-1.877-.77c-.764 0-1.39.28-1.876.77-.487.56-.765 1.192-.765 1.963 0 .84.278 1.472.765 1.962zm8.34 1.052h-.417l.695-6.169 2.572 5.538 2.571-5.538.696 6.169h-.417l-.557-4.767-2.293 4.977-2.363-4.977-.487 4.767zm10.565-2.804h-.765v2.804h-.417V22.36h1.182c.486 0 .903.14 1.251.42.347.28.486.631.486 1.122 0 .49-.139.911-.486 1.191-.348.28-.765.421-1.251.421zm-.765-2.804v2.454h.765c.417 0 .695-.14.973-.35.208-.211.347-.492.347-.912 0-.35-.139-.701-.347-.911-.209-.21-.556-.35-.973-.35l-.765.07zm9.175 5.608l-.765-1.963h-2.502l-.764 1.963h-.417l2.502-6.169 2.432 6.169h-.486zm-3.128-2.313h2.224l-1.112-2.804-1.112 2.804zm6.673 2.313h-.417V22.29l5.004 5.257V22.36h.417v6.098l-4.935-5.257-.069 5.117zm9.591 0v-2.594l-1.946-3.434h.417l1.738 3.014 1.737-3.014h.417l-2.015 3.434v2.594h-.348z" fill="#1F1A3D"/></symbol><symbol fill="none" viewBox="0 0 160 30" id="logo-footer-white" xmlns="http://www.w3.org/2000/svg"><path d="M37.324 16.472a7.859 7.859 0 00-5.56-2.313c-.904 0-1.738.14-2.572.42-.348-.21-.625-.42-.973-.56.625-.35 1.251-.771 1.738-1.332A7.46 7.46 0 0032.11 7.43c0-2.033-.764-3.855-2.154-5.257A7.334 7.334 0 0024.744 0H5.977v1.682h3.267v6.309H5.977v1.682h3.267v4.626a8.486 8.486 0 00-1.39-.14c-2.085 0-4.1.841-5.56 2.313A7.994 7.994 0 000 22.079c0 2.103.834 4.136 2.294 5.608A7.859 7.859 0 007.854 30h16.82c1.251 0 2.502-.28 3.545-.841 1.043.56 2.294.841 3.475.841a7.857 7.857 0 005.56-2.313 7.994 7.994 0 002.294-5.608 8.051 8.051 0 00-2.224-5.607zM9.244 28.388h-1.39c-3.406 0-6.255-2.804-6.255-6.309 0-3.504 2.78-6.308 6.255-6.308.487 0 .904.07 1.39.14v12.477zm1.599-26.776h6.394v6.379h-6.394V1.612zm6.464 26.776h-6.464V16.612c.208.14.486.28.695.42l5.769 4.206v7.15zM12.51 15.7a5.185 5.185 0 00-.834-.49l-.834-.421V9.673h6.394v9.533L12.511 15.7zm12.163 12.687h-5.769V22.5l7.646 5.608c-.556.21-1.182.28-1.877.28zm3.614-1.052c-.07-.07-.139-.07-.208-.14l-9.105-6.729V9.673h3.058V7.99h-3.128V1.612h5.77c3.196 0 5.768 2.594 5.768 5.818 0 3.224-2.572 5.818-5.769 5.818h-2.641v1.682h2.641c3.684 0 6.673 3.014 6.673 6.729 0 2.383-1.182 4.486-3.059 5.677zm3.476 1.052c-.626 0-1.182-.07-1.807-.28.208-.14.417-.351.625-.561 1.599-1.612 2.433-3.715 2.433-5.958a8.33 8.33 0 00-2.294-5.748c.348-.07.695-.07.973-.07 3.406 0 6.256 2.804 6.256 6.308 0 3.505-2.78 6.309-6.186 6.309zm16.68-25.234h3.893c.348 0 .626.07.904.14s.556.21.834.42c.347.281.625.562.764.982.209.35.278.771.278 1.192v.14c0 .56-.139 1.051-.417 1.472-.278.49-.695.771-1.181.981.625.14 1.181.491 1.529.982.347.49.556 1.121.556 1.682v.42c-.07.421-.14.912-.348 1.332-.208.42-.486.771-.903 1.052-.278.14-.556.28-.834.35a4.07 4.07 0 01-.973.14h-4.17l.069-11.285zm1.738 4.767h1.182c.487 0 .904-.14 1.251-.35.417-.211.556-.562.626-1.122v-.14c0-.702-.209-1.192-.695-1.332-.487-.21-.974-.28-1.599-.28h-.765V7.92zm.209 5.046h1.043c.556 0 1.112-.14 1.598-.35.487-.21.695-.701.695-1.402v-.07c0-.701-.208-1.192-.695-1.402-.486-.21-.973-.35-1.529-.35h-1.251v3.644c0-.07.07-.07.139-.07zm7.507-9.813h6.255v1.612h-4.448V7.57h4.448v1.612h-4.448v3.645h4.448v1.682h-6.256V3.154zm15.151 8.411H68.6l-1.32 2.944h-1.947l5.422-11.775 5.421 11.775H74.23l-1.181-2.944zM70.686 6.8c-.07.21-.139.42-.278.63l-1.181 2.594h3.127l-1.18-2.594c-.07-.14-.14-.35-.209-.49a1.33 1.33 0 01-.139-.562c0-.07 0-.07-.07-.14 0-.07 0-.07-.069-.14.14.28.07.49 0 .701zm9.175-3.645v6.94c0 .91.209 1.682.626 2.242.417.561 1.181.842 2.154.842.973 0 1.668-.28 2.155-.842.486-.56.695-1.331.695-2.242v-6.87h1.807v7.08c0 1.542-.417 2.663-1.182 3.434-.764.771-1.946 1.122-3.475 1.122-1.529 0-2.71-.35-3.475-1.122-.765-.77-1.182-1.892-1.182-3.364v-7.15l1.877-.07zm13.97 11.355h-1.876V4.766h-2.989V3.154h7.785v1.612h-2.99v9.743h.07zm7.09-5.187l-3.753-6.168h1.946l2.363 3.855c.069.07.069.14.139.21.069.07.069.14.139.21 0 0 0 .071.069.071 0 0 .001.07.07.07 0 .07.07.07.07.14s.069.07.069.14c.07-.14.139-.35.209-.49.069-.14.139-.28.278-.49l2.432-3.786h1.807l-3.822 6.168v5.187h-1.808l-.208-5.117zm12.65 5.187V2.804h5.769v.981h-4.657V7.43h4.518v.981h-4.518v6.028l-1.112.07zm12.928.28c-1.112 0-2.085-.21-3.059-.7a5.563 5.563 0 01-2.293-2.103c-.556-.911-.834-2.033-.834-3.365 0-1.191.278-2.313.903-3.224.626-.911 1.39-1.612 2.363-2.103.974-.49 2.016-.77 3.059-.77.903 0 1.737.14 2.502.49.764.35 1.39.771 1.946 1.332.556.56.973 1.191 1.251 1.962.278.771.487 1.613.487 2.454 0 1.191-.278 2.313-.834 3.224-.556.911-1.321 1.682-2.294 2.173-.973.42-2.016.63-3.197.63zm0-.91c.973 0 1.807-.21 2.571-.701.765-.421 1.39-1.052 1.877-1.893.487-.771.695-1.682.695-2.664 0-.84-.208-1.682-.556-2.453-.417-.84-.973-1.472-1.738-2.032-.764-.561-1.668-.772-2.78-.772-.764 0-1.529.21-2.363.561-.834.42-1.46.982-2.016 1.753-.556.77-.764 1.752-.764 2.873 0 .912.208 1.823.625 2.594.417.77 1.043 1.402 1.808 1.892.834.631 1.668.841 2.641.841zm15.152.63h-1.321l-4.101-5.607h-.625v5.607h-1.043V2.804h2.155c2.502 0 3.753 1.051 3.753 3.224 0 1.051-.278 1.752-.903 2.243-.626.42-1.321.701-2.086.771l4.171 5.467zm-5.213-6.448c.903 0 1.598-.14 2.085-.42.487-.281.765-.842.765-1.753 0-.841-.209-1.402-.695-1.752-.487-.351-1.182-.491-2.225-.491h-.834V7.99l.904.07zm12.372-4.556c-1.043 0-1.877.21-2.641.63-.765.421-1.321 1.052-1.738 1.823-.417.771-.626 1.682-.626 2.734 0 1.612.487 2.873 1.39 3.785.904.91 2.086 1.402 3.545 1.402 1.321 0 2.572-.491 3.753-1.402v1.261c-.556.35-1.112.561-1.737.771-.626.21-1.321.28-2.016.28-.903 0-1.876-.14-2.78-.49-.904-.35-1.668-.981-2.363-1.893-.626-.91-.973-2.102-.973-3.644 0-1.122.208-2.173.625-3.084.417-.912 1.112-1.683 2.016-2.243.904-.561 2.085-.842 3.545-.842 1.32 0 2.571.421 3.753 1.262l-.07 1.192c-.417-.35-.973-.701-1.529-1.052-.556-.35-1.251-.49-2.154-.49zm5.421 11.004V2.804H160v.981h-4.657V7.43H160v.981h-4.657v5.047H160v.981l-5.769.07zM53.727 23.061v.49c-.278-.28-.556-.56-.903-.7-.348-.14-.695-.28-1.112-.28-.765 0-1.39.28-1.877.77-.487.56-.765 1.192-.765 1.963 0 .42.07.84.278 1.191.14.35.348.631.626.841.278.21.556.421.834.491.278.14.626.21.904.21.347 0 .695-.07 1.042-.21.348-.14.695-.35.973-.7v.49c-.486.56-1.181.77-1.876.77-.904 0-1.599-.28-2.225-.91-.625-.631-.903-1.332-.903-2.173s.278-1.612.903-2.173c.626-.56 1.321-.911 2.155-.911.765.07 1.39.28 1.946.84zm3.614.07c.626-.631 1.321-.911 2.225-.911.834 0 1.598.28 2.224.91.625.632.903 1.333.903 2.174 0 .84-.278 1.612-.903 2.173-.626.63-1.32.91-2.224.91-.835 0-1.599-.28-2.225-.91-.625-.561-.903-1.332-.903-2.173s.347-1.542.903-2.173zm.279 4.135a2.551 2.551 0 001.876.771c.765 0 1.39-.28 1.877-.77.486-.561.764-1.192.764-1.963 0-.771-.278-1.402-.764-1.963a2.556 2.556 0 00-1.877-.77c-.765 0-1.39.28-1.877.77-.486.56-.764 1.192-.764 1.963 0 .84.278 1.472.765 1.962zm11.05-4.135l-.277.21c-.278-.49-.626-.77-1.182-.77-.347 0-.625.14-.834.35-.209.21-.278.49-.278.77 0 .14 0 .281.07.421.069.14.139.21.208.28.14.07.209.14.278.21.07.07.209.141.417.211.626.28 1.043.49 1.182.63.417.281.625.702.625 1.192 0 .491-.208.912-.556 1.262-.347.35-.764.49-1.32.49s-1.043-.21-1.39-.63l-.418-.63.348-.141c.07.21.208.42.347.56.278.351.626.491 1.113.491.417 0 .764-.14 1.042-.42.278-.28.417-.56.417-.982 0-.42-.208-.7-.556-.91-.139-.07-.486-.281-1.112-.561-.278-.14-.486-.28-.626-.35a.716.716 0 01-.347-.422 1.191 1.191 0 01-.209-.7c0-.421.14-.701.418-1.052.278-.35.625-.42 1.112-.42.278 0 .556.07.834.21.347.21.556.42.695.7zm3.615 5.187h-.417l.695-6.169 2.572 5.538 2.571-5.538.695 6.169h-.347l-.556-4.767-2.363 4.977-2.364-4.977-.486 4.767zm12.302-5.958v.35h-2.432v2.173h2.432v.35h-2.432v2.734h2.432v.35h-2.85V22.36h2.85zm5.839.35h-1.53v5.608h-.416V22.71h-1.53v-.35h3.476v.35zm2.64-.35h.418v5.958h-.417V22.36zm8.55.7v.491c-.278-.28-.556-.56-.904-.7-.347-.14-.695-.28-1.112-.28-.764 0-1.39.28-1.876.77-.487.56-.765 1.192-.765 1.963 0 .42.07.84.278 1.191.14.35.348.631.626.841.278.21.556.421.834.491.278.14.625.21.903.21.348 0 .695-.07 1.043-.21.347-.14.695-.35.973-.7v.49c-.556.49-1.251.77-1.946.77-.904 0-1.599-.28-2.224-.91-.626-.631-.904-1.332-.904-2.173s.278-1.612.904-2.173c.625-.631 1.32-.911 2.154-.911.765.07 1.46.28 2.016.84zm11.607 0v.491c-.278-.28-.556-.56-.903-.7-.348-.14-.695-.28-1.112-.28-.765 0-1.39.28-1.877.77-.487.56-.765 1.192-.765 1.963 0 .42.07.84.278 1.191.139.35.348.631.626.841.278.21.556.421.834.491.278.14.626.21.904.21.347 0 .695-.07 1.042-.21.348-.14.695-.35.973-.7v.49c-.556.49-1.251.77-1.946.77-.903 0-1.598-.28-2.224-.91-.626-.631-.904-1.332-.904-2.173s.278-1.612.904-2.173c.626-.631 1.321-.911 2.155-.911.834.07 1.459.28 2.015.84zm3.615.07c.625-.63 1.32-.91 2.224-.91.834 0 1.598.28 2.224.91.625.632.903 1.333.903 2.174 0 .84-.278 1.612-.903 2.173-.626.63-1.321.91-2.224.91-.834 0-1.599-.28-2.224-.91-.626-.561-.904-1.332-.904-2.173s.347-1.542.904-2.173zm.278 4.136a2.553 2.553 0 001.876.771c.765 0 1.39-.28 1.877-.77.486-.561.764-1.192.764-1.963 0-.771-.278-1.402-.764-1.963a2.557 2.557 0 00-1.877-.77c-.764 0-1.39.28-1.876.77-.487.56-.765 1.192-.765 1.963 0 .84.278 1.472.765 1.962zm8.34 1.052h-.417l.695-6.169 2.572 5.538 2.571-5.538.696 6.169h-.417l-.557-4.767-2.293 4.977-2.363-4.977-.487 4.767zm10.565-2.804h-.765v2.804h-.417V22.36h1.182c.486 0 .903.14 1.251.42.347.28.486.631.486 1.122 0 .49-.139.911-.486 1.191-.348.28-.765.421-1.251.421zm-.765-2.804v2.454h.765c.417 0 .695-.14.973-.35.208-.211.347-.492.347-.912 0-.35-.139-.701-.347-.911-.209-.21-.556-.35-.973-.35l-.765.07zm9.175 5.608l-.765-1.963h-2.502l-.764 1.963h-.417l2.502-6.169 2.432 6.169h-.486zm-3.128-2.313h2.224l-1.112-2.804-1.112 2.804zm6.673 2.313h-.417V22.29l5.004 5.257V22.36h.417v6.098l-4.935-5.257-.069 5.117zm9.591 0v-2.594l-1.946-3.434h.417l1.738 3.014 1.737-3.014h.417l-2.015 3.434v2.594h-.348z" fill="#fff"/></symbol><symbol fill="none" viewBox="0 0 9 13" id="ok" xmlns="http://www.w3.org/2000/svg"><path d="M4.697.5c-1.654 0-3 1.345-3 3 0 1.654 1.346 3 3 3 1.655 0 3-1.346 3-3 0-1.655-1.345-3-3-3zm0 4.5c-.827 0-1.5-.673-1.5-1.5S3.87 2 4.697 2s1.5.673 1.5 1.5S5.524 5 4.697 5z" fill="#1F1A3D"/><path d="M8.676 6.423a.75.75 0 00-1.06 0 4.13 4.13 0 01-5.835 0A.75.75 0 10.72 7.484a5.59 5.59 0 003.335 1.604l-2.139 2.138a.75.75 0 101.06 1.06l1.72-1.72 1.72 1.72a.748.748 0 001.06 0 .75.75 0 000-1.06L5.34 9.088a5.59 5.59 0 003.335-1.604.75.75 0 000-1.06z" fill="#1F1A3D"/></symbol><symbol fill="none" viewBox="0 0 150 33" id="ozon" xmlns="http://www.w3.org/2000/svg"><path d="M17.51 25.245c-5.698.713-10.522-4.11-9.815-9.857.5-3.9 3.618-7.088 7.486-7.591 5.697-.755 10.52 4.11 9.814 9.856-.5 3.9-3.618 7.089-7.486 7.592zM17.966.079C7.654-.927-.954 7.797.085 18.241c.749 7.717 6.945 13.924 14.597 14.68 10.354 1.006 18.962-7.676 17.923-18.12C31.856 7.084 25.66.834 17.967.08zm75.187 25.082c-7.984.713-14.72-4.11-13.723-9.857.707-3.9 5.074-7.088 10.48-7.591 7.984-.755 14.721 4.11 13.723 9.856-.707 3.901-5.074 7.089-10.48 7.592zM93.777.079c-14.43-1.006-26.49 7.718-25.034 18.162 1.04 7.717 9.73 13.924 20.46 14.68 14.513 1.006 26.573-7.676 25.117-18.12C113.239 7.084 104.548.834 93.777.08zm-52.397.925c-2.371 0-4.243 2.181-3.744 4.656.375 1.803 2.038 3.061 3.868 3.061H52.15L35.64 30.784c-.54.713-.041 1.761.874 1.761l25.99-.042c1.83 0 3.535-1.258 3.868-3.062.499-2.474-1.373-4.655-3.743-4.655l-12.974.042L66.163 2.766c.54-.714.041-1.762-.874-1.762H41.38m103.879.083c-1.788.378-2.994 2.055-2.994 3.859V17.78L121.639 1.296c-.707-.587-1.788-.042-1.788.88l.041 26.467c0 1.845 1.206 3.481 2.994 3.859a3.87 3.87 0 004.658-3.775V15.809l20.668 16.484c.707.587 1.788.042 1.788-.88l-.042-26.551a3.9 3.9 0 00-4.699-3.775" fill="#0160F5"/></symbol><symbol fill="none" viewBox="0 0 12 11" id="telegram" xmlns="http://www.w3.org/2000/svg"><path d="M4.71 7.095l-.2 2.792c.284 0 .407-.122.555-.269l1.331-1.272 2.76 2.02c.505.282.862.134.998-.465l1.811-8.486c.161-.749-.27-1.041-.763-.858L.558 4.633c-.726.282-.715.687-.123.87l2.721.847 6.322-3.956c.297-.197.568-.088.345.11L4.71 7.093z" fill="#1F1A3D"/></symbol><symbol fill="none" viewBox="0 0 11 13" id="tiktok" xmlns="http://www.w3.org/2000/svg"><path d="M10.993 3.512a3.003 3.003 0 01-1.82-.61A3.032 3.032 0 017.972.508H6.02v5.354l-.003 2.932a1.773 1.773 0 01-1.868 1.77 1.775 1.775 0 01-1.671-1.743 1.771 1.771 0 012.326-1.71V5.122a3.825 3.825 0 00-.563-.042c-1.08 0-2.09.45-2.811 1.263A3.683 3.683 0 00.506 8.56a3.679 3.679 0 001.09 2.86 3.732 3.732 0 002.646 1.088 3.724 3.724 0 002.646-1.088 3.675 3.675 0 001.095-2.61l-.01-4.38A4.925 4.925 0 0011 5.463V3.512h-.006z" fill="#1F1A3D"/></symbol><symbol fill="none" viewBox="0 0 13 8" id="vk" xmlns="http://www.w3.org/2000/svg"><path d="M10.457 5.01c-.195-.245-.139-.354 0-.573.002-.002 1.603-2.215 1.768-2.966h.002c.082-.274 0-.475-.397-.475h-1.312c-.334 0-.488.173-.57.366 0 0-.668 1.599-1.613 2.635-.305.3-.446.396-.613.396-.082 0-.21-.096-.21-.37V1.471c0-.328-.093-.475-.37-.475H5.08c-.21 0-.334.153-.334.296 0 .31.472.382.521 1.257v1.899c0 .416-.075.492-.243.492-.446 0-1.528-1.605-2.17-3.443-.13-.356-.256-.5-.592-.5H.949c-.374 0-.45.172-.45.365 0 .341.446 2.037 2.074 4.277 1.085 1.529 2.613 2.357 4.003 2.357.836 0 .938-.184.938-.5 0-1.461-.076-1.6.343-1.6.194 0 .528.097 1.308.834.891.875 1.038 1.266 1.537 1.266h1.312c.373 0 .563-.184.454-.547-.25-.763-1.935-2.334-2.011-2.439z" fill="#1F1A3D"/></symbol><symbol fill="none" viewBox="0 0 200 24" id="wildberries" xmlns="http://www.w3.org/2000/svg"><path d="M6.06 23.414L0 .424h3.985L8.634 18.07 13.614.424h3.736l5.064 17.73L27.146.424h3.985l-6.06 22.99h-4.65L15.525 6.193l-4.898 17.22H6.06zM33.87.424h3.819v22.99H33.87V.424zm11.871 19.342h9.215v3.563h-12.95V.424h3.735v19.342zM66.661.424c3.154 0 5.728 1.103 7.72 3.309 2.076 2.205 3.155 4.92 3.155 8.144 0 3.223-1.08 5.938-3.155 8.143-2.075 2.206-4.649 3.309-7.72 3.309h-8.883V.424h8.883zm0 19.427c2.158 0 3.901-.764 5.23-2.206 1.328-1.527 2.075-3.393 2.075-5.684 0-2.29-.664-4.156-2.075-5.683-1.329-1.527-3.072-2.206-5.23-2.206h-5.147v15.779h5.147zm30.964-3.054c0 1.866-.664 3.478-1.992 4.666-1.328 1.187-2.906 1.866-4.815 1.866h-9.796V.424h9.049c1.826 0 3.403.679 4.732 1.866 1.328 1.188 1.909 2.715 1.909 4.497 0 2.036-.747 3.563-2.324 4.665 1.992 1.103 3.237 2.97 3.237 5.345zM84.758 3.987v6.023h5.313c1.66 0 2.905-1.357 2.905-3.054 0-1.696-1.245-3.054-2.905-3.054h-5.313v.085zm6.06 15.864c1.743 0 3.072-1.442 3.072-3.224 0-1.781-1.329-3.223-3.072-3.223h-5.977v6.447h5.977zm14.029-.085h10.045v3.648h-13.78V.424h13.614v3.648h-9.879v5.938h9.049v3.563h-9.049v6.193zm26.316 3.648l-4.815-8.399h-4.4v8.399h-3.735V.424h9.048c2.076 0 3.736.679 5.147 2.206 1.412 1.442 2.159 3.139 2.159 5.26 0 2.884-1.827 5.598-4.483 6.616l5.147 8.908h-4.068zm-9.215-19.427v7.72h5.313c1.993 0 3.57-1.697 3.57-3.818 0-2.12-1.577-3.817-3.57-3.817.083-.085-5.313-.085-5.313-.085zm29.139 19.427l-4.815-8.399h-4.4v8.399h-3.736V.424h9.049c2.075 0 3.736.679 5.147 2.206 1.411 1.442 2.158 3.139 2.158 5.26 0 2.884-1.826 5.598-4.483 6.616l5.147 8.908h-4.067zm-9.215-19.427v7.72h5.313c1.992 0 3.57-1.697 3.57-3.818 0-2.12-1.578-3.817-3.57-3.817h-5.313v-.085zM157.894.424h3.735v22.99h-3.735V.424zm11.871 19.342h10.045v3.648h-13.781V.424h13.615v3.648h-9.879v5.938h9.048v3.563h-9.048v6.193zm12.618-1.612l3.238-1.866c.913 2.63 2.739 3.902 5.645 3.902 2.822 0 4.233-1.188 4.233-3.054 0-.933-.415-1.612-1.162-2.12-.747-.51-2.075-1.103-4.068-1.612-2.158-.68-3.237-1.103-4.731-2.121-1.495-1.103-2.159-2.545-2.159-4.666 0-2.036.747-3.648 2.159-4.836C186.949.594 188.692 0 190.685 0c3.652 0 6.475 1.951 7.886 5.09l-3.155 1.866c-.913-2.12-2.573-3.223-4.731-3.223-2.159 0-3.57 1.102-3.57 2.884 0 1.697 1.079 2.46 4.566 3.563.83.254 1.494.509 1.909.679.415.17.996.339 1.66.678.747.255 1.329.679 1.661.933 1.245.934 2.49 2.545 2.324 4.751 0 2.036-.747 3.733-2.241 4.92-1.495 1.188-3.404 1.782-5.811 1.782-4.4-.085-7.555-2.206-8.8-5.769z" fill="#BF3D90"/></symbol><symbol fill="none" viewBox="0 0 13 9" id="youtube" xmlns="http://www.w3.org/2000/svg"><path d="M12.252 1.83A1.513 1.513 0 0011.194.76C10.255.5 6.5.5 6.5.5S2.743.5 1.804.75C1.3.89.884 1.31.746 1.83.5 2.78.5 4.75.5 4.75s0 1.98.247 2.92c.139.52.544.93 1.058 1.07C2.753 9 6.499 9 6.499 9s3.756 0 4.695-.25c.514-.14.92-.55 1.058-1.07.247-.95.247-2.92.247-2.92s.01-1.98-.247-2.93z" fill="#1F1A3D"/><path d="M5.002 6.508l3.5-1.75-3.5-1.75v3.5z" fill="#E9E8EC"/></symbol><symbol fill="none" viewBox="0 0 13 13" id="zen" xmlns="http://www.w3.org/2000/svg"><path fill-rule="evenodd" clip-rule="evenodd" d="M6.433.508c-2.473 0-4.187.008-5.067.867C.507 2.255.5 4.05.5 6.442c2.657-.08 3.872-.147 4.841-1.093.946-.97 1.013-2.184 1.093-4.841zM1.366 11.64C.507 10.76.5 8.967.5 6.574c2.657.08 3.872.147 4.84 1.093.947.97 1.014 2.184 1.094 4.84-2.473 0-4.187-.007-5.067-.866zm5.2.867c.08-2.657.146-3.872 1.092-4.84.97-.947 2.184-1.014 4.841-1.094 0 2.393-.008 4.187-.867 5.067-.88.859-2.593.867-5.067.867zm0-12c.08 2.657.146 3.872 1.092 4.84.97.947 2.184 1.013 4.841 1.094 0-2.393-.008-4.187-.867-5.067-.88-.859-2.593-.867-5.067-.867z" fill="#1F1A3D"/></symbol></svg>