<?xml version="1.0" encoding="utf-8"?><svg xmlns="http://www.w3.org/2000/svg" xmlns:xlink="http://www.w3.org/1999/xlink"><symbol fill="none" viewBox="0 0 16 8" id="arrow" xmlns="http://www.w3.org/2000/svg"><path d="M.646 4.354a.5.5 0 010-.708L3.828.464a.5.5 0 11.708.708L1.707 4l2.829 2.828a.5.5 0 01-.708.708L.646 4.354zM16 4.5H1v-1h15v1z" fill="#fff"/></symbol><symbol fill="none" viewBox="0 0 200 44" id="auchan" xmlns="http://www.w3.org/2000/svg"><path fill-rule="evenodd" clip-rule="evenodd" d="M45.225 12.615c.733-.264 1.67-.88 1.963-1.114a5.158 5.158 0 01-1.347-.998c-.47-.47-1.523-2.581-5.654-2.581-4.452 0-6.326 3.08-6.326 5.515 0 .293 0 .645.058 1.026-5.77 2.728-10.925 5.808-16.667 12.848h14.675c-.85.323-2.109.822-3.134 1.702l1.201 4.224c2.197-.117 4.277-.733 5.653-1.35 1.26-.586 6.825-3.109 8.934-10.12.205-.704 1.055-4.341 1.172-4.898.117-.558.44-1.819 1.523-2.582-.293-.264-1.113-.909-1.992-1.32-.38-.146-.38-.234-.059-.352z" fill="#fff"/><path fill-rule="evenodd" clip-rule="evenodd" d="M40.598 10.383c-1.23 0-2.226.997-2.226 2.23a2.227 2.227 0 104.452 0c.03-1.233-.967-2.23-2.226-2.23zM35.765 0H14.85L7.967 20.182h10.838c.352-.294.85-.704 1.523-1.115l4.775-15.43 3.25 10.649a42.025 42.025 0 011.993-1.027c.263-4.224 3.397-6.57 7.528-7.04L35.764 0zM5.243 28.223L0 43.476h12.683l3.75-12.027H7.878c.293-1.026.938-2.405 1.582-3.226H5.243zm27.007 4.69l3.192 10.56h3.28l-3.456-11.47c-.79.324-1.933.705-3.017.91zm12.068-8.155c-1.172 2.259-3.34 5.485-7.938 7.744l3.251 10.941h11.072c0 .03-6.385-18.685-6.385-18.685zm8.113-12.265c-.79-.322-2.226-.82-3.983-.82-.528 0-.996-.06-1.29-.177-.292.235-1.23.85-1.962 1.115-.293.117-.293.205 0 .322.908.411 1.728 1.056 1.992 1.32 1.289-.938 2.402-.117 5.214-1.408.351-.146.351-.234.03-.352z" fill="#fff"/><path fill-rule="evenodd" clip-rule="evenodd" d="M4.013 24.026c.059 0 .117.058.117.117a.126.126 0 01-.117.117c-1.963 0-3.28 1.38-3.456 2.992h10.896c-.79.763-1.699 1.995-2.255 3.286h16.666l3.837 12.936h3.34l-3.076-10.267-1.201-4.224c.996-.85 2.285-1.35 3.134-1.701H17.223c5.741-7.011 10.926-10.12 16.667-12.848-.059-.352-.059-.734-.059-1.027 0-2.435 1.875-5.515 6.327-5.515 1.465 0 3.105.293 4.306 1.173-.703-.674-3.017-2.024-5.507-1.994-4.95.03-7.938 3.226-7.703 6.776-3.164 1.437-8.641 4.37-12.127 7.216H.586c.234 1.76 1.552 2.963 3.427 2.963z" fill="#fff"/><path fill-rule="evenodd" clip-rule="evenodd" d="M40.51 12.878l2.167-1.085a2.246 2.246 0 00-1.406-1.32l-.996 2.17c-.088.235 0 .323.235.235zm159.256 21.647c0 4.9.234 8.947.234 8.947h-10.545l-.029-13.552c0-4.605-1.377-6.248-3.896-6.248-3.31 0-4.979 2.493-4.979 7.773l-.03 12.027h-10.339c.322-8.067 0-20.152-.235-27.603h9.344s.205 1.115.205 2.904v1.056c1.289-1.76 5.126-4.781 9.725-4.547 4.628.235 7.967 2.465 9.432 5.515.82 1.73 1.083 4.342 1.142 6.278l-.029 7.45zM69.742 39.983c-1.61 1.79-5.214 4.313-9.373 3.99-5.829-.44-10.428-3.05-10.428-11.675l.03-16.427h10.398v13.552c0 4.606 1.26 6.248 3.779 6.248 3.31 0 4.891-3.021 4.891-7.773V15.871h10.252c-.322 8.067 0 20.152.234 27.603h-9.343c-.498-.85-.44-3.49-.44-3.49zm88.166 3.516s-.205-1.027-.205-3.49c-3.222 4.018-8.67 3.725-8.67 3.725-4.745.146-10.135-2.729-10.017-8.86.146-7.831 8.23-9.063 14.645-9.063 1.992 0 3.369.058 3.369.058-.205-3.901-3.925-4.077-6.591-4.077-3.486 0-8.026 2.464-8.026 2.464V17.45c1.055-.763 8.026-3.286 14.617-1.966 6.406 1.29 8.037 4.9 8.792 6.57l.054.118c.738 1.566.705 6.942.703 7.367v.025c.029 9.211.263 13.934.263 13.934h-8.934zm-9.022-8.887c-.205-3.872 7.264-3.373 8.231-3.021.029 6.57-7.997 7.333-8.231 3.021zm-22.202-4.66c0-4.606-1.611-6.22-3.808-6.22-3.31 0-5.009 2.436-5.009 7.716l.029 12.027h-10.251l-.03-35.67h10.311l.029 10.853c1.728-1.525 4.833-3.55 8.612-3.373 4.628.235 10.515 2.376 10.515 12.32v15.84h-10.428l.03-13.493zm-22.144-5.105c-3.72-2.992-12.741-2.699-12.741 4.488 0 8.008 9.754 7.773 13.444 5.045l.264 7.832c-5.243 2.728-24.165 3.638-24.165-12.73 0-16.398 18.658-15.547 23.872-12.438l-.674 7.803z" fill="#fff"/></symbol><symbol viewBox="0 0 66 66" id="body" xmlns="http://www.w3.org/2000/svg"><path d="M62.531 24.25h-5.468v-7.656a9.855 9.855 0 00-9.844-9.844h-9.844V1.281A1.093 1.093 0 0036.281.188H25.344A1.094 1.094 0 0024.25 1.28v5.47h-9.844a9.855 9.855 0 00-9.844 9.844v31.29c-2.12.254-3.392.433-3.436.44a1.094 1.094 0 00-.938 1.082V64.72a1.094 1.094 0 001.093 1.094h59.063a1.093 1.093 0 001.093-1.094V49.406a1.094 1.094 0 00-.938-1.083c-.044-.006-1.316-.185-3.437-.44v-17.07h5.47a3.28 3.28 0 100-6.563zM6.75 16.594a7.665 7.665 0 017.656-7.657h10.938a1.094 1.094 0 001.093-1.093V2.375h8.75v5.469a1.093 1.093 0 001.094 1.093H47.22a7.665 7.665 0 017.656 7.657v7.656h-6.462l-.102-2.237a1.094 1.094 0 00-2.185.1l.097 2.137h-1.057l-3.402-.85a3.28 3.28 0 00-2.202-5.712h-1.28a3.28 3.28 0 00-3.094-4.375H24.25a5.469 5.469 0 000 10.937h.187c-.25.708-.25 1.48 0 2.188h-1.28a3.281 3.281 0 00-.977 6.414 5.466 5.466 0 004.258 8.898h7.656a3.282 3.282 0 003.094-4.375h1.28a3.28 3.28 0 002.422-5.494l4.276-1.069h.454l-.355.933c-1.19 3.104-2.421 6.314-2.421 10.005.013 1.64.237 3.27.668 4.852-4.045-.278-8.43-.477-12.7-.477s-8.654.199-12.7.477a19.04 19.04 0 00.67-4.852c0-3.691-1.231-6.901-2.421-10.005-.423-1.102-.823-2.148-1.155-3.183l.293-6.45a1.093 1.093 0 10-2.185-.1L12.22 46.076l-.001.05v.95c-2.037.187-3.888.38-5.469.555V16.594zm39.078 30.178c-.542-1.859-.797-3.47-.797-5.022 0-2.664.76-5.152 1.644-7.552l.544 11.952v.734c-.457-.038-.92-.076-1.391-.112zm.297-20.334h2.188v2.187h-2.188v-2.188zM34.094 37.374a1.093 1.093 0 110 2.188h-7.657a3.281 3.281 0 010-6.563 1.093 1.093 0 100-2.188h-3.28a1.093 1.093 0 110-2.187h4.374a1.093 1.093 0 100-2.188 1.093 1.093 0 110-2.187 1.093 1.093 0 100-2.188H24.25a3.281 3.281 0 010-6.562h10.938a1.093 1.093 0 110 2.188 1.093 1.093 0 100 2.187h4.374a1.093 1.093 0 110 2.188h-3.28a1.093 1.093 0 00-1.094 1.093v8.75A1.093 1.093 0 0036.28 33h2.188a1.093 1.093 0 110 2.188h-4.375a1.093 1.093 0 100 2.187zm3.281-6.87v-1.88h1.094a1.093 1.093 0 100-2.188h-1.094v-1.88l6.563 1.64v2.668l-6.563 1.64zM14.406 46.15l.544-11.952c.884 2.4 1.644 4.887 1.644 7.552 0 1.552-.255 3.163-.797 5.022-.47.036-.934.074-1.39.112v-.734zM59.25 63.625H2.375V50.362c3.537-.466 16.452-2.05 28.438-2.05 11.98 0 24.9 1.584 28.437 2.05v13.263zM54.875 47.63a281.097 281.097 0 00-5.469-.555v-1l-.695-15.263h6.164V47.63zm7.656-19.005H50.5v-2.188h12.031a1.093 1.093 0 110 2.188z"/></symbol><symbol viewBox="0 0 70 70" id="face" xmlns="http://www.w3.org/2000/svg"><path d="M66.719 2.188H55.78a1.094 1.094 0 00-1.093 1.093v4.59C49.03 4.194 42.121 2.187 35 2.187c-7.122 0-14.03 2.007-19.688 5.684v-4.59a1.093 1.093 0 00-1.093-1.094H3.28a1.094 1.094 0 00-1.094 1.094V37.25c.001.848.2 1.685.578 2.445l7.487 14.976a4.516 4.516 0 006.085 2.01c2.127 3.051 4.735 5.646 7.61 7.558 3.516 2.338 7.338 3.575 11.053 3.575 3.715 0 7.537-1.237 11.054-3.575 2.875-1.912 5.483-4.507 7.61-7.559a4.483 4.483 0 003.012.383 4.499 4.499 0 003.071-2.393l7.488-14.975c.379-.76.576-1.597.578-2.446V3.282a1.093 1.093 0 00-1.094-1.094zM50.682 24.095c-3.136-2.147-7.022-3.558-11.32-4.125 1.8-1.42 3.347-3.288 4.162-4.355 2.721-3.559 4.035-6.651 4.45-8.766a31.619 31.619 0 016.714 3.673v6.525l-.188.188a14.204 14.204 0 00-3.818 6.86zM35 4.375a35.174 35.174 0 0110.892 1.717c-.283 2.08-1.86 5.258-4.105 8.195-2.469 3.23-5.197 5.4-6.787 5.4-6.022 0-11.516 1.556-15.682 4.408a14.203 14.203 0 00-3.817-6.86l-.188-.188v-6.525C20.82 6.555 27.788 4.375 35 4.375zm-21.207 50.55a2.32 2.32 0 01-1.584-1.234L4.721 38.716a3.297 3.297 0 01-.346-1.468V4.376h8.75V17.5a1.095 1.095 0 00.32.773l.508.509a12.03 12.03 0 013.547 8.562V38.28a2.188 2.188 0 01-4.375 0v-7.656a1.093 1.093 0 10-2.188 0v9.844c0 .17.04.337.116.489l5.325 10.65a2.33 2.33 0 01-2.584 3.317zM35 65.625c-6.173 0-12.598-3.955-17.004-10.394a4.545 4.545 0 00.338-4.602l-4.047-8.094a4.378 4.378 0 005.4-4.254V27.344c0-.267-.008-.534-.022-.798 3.883-3.015 9.306-4.671 15.335-4.671 6.03 0 11.452 1.655 15.335 4.671-.014.265-.023.53-.023.798V38.28a4.376 4.376 0 005.4 4.254l-4.046 8.094a4.545 4.545 0 00.338 4.602C47.597 61.671 41.173 65.625 35 65.625zm30.625-28.377c0 .51-.12 1.012-.346 1.468L57.79 53.69a2.33 2.33 0 11-4.168-2.084l5.324-10.65c.076-.151.116-.318.115-.488v-9.844a1.093 1.093 0 10-2.187 0v7.656a2.188 2.188 0 01-4.375 0V27.344a12.03 12.03 0 013.547-8.563l.508-.508a1.096 1.096 0 00.32-.773V4.375h8.75v32.873z"/><path d="M28.438 40.469a1.093 1.093 0 10-2.188 0 1.093 1.093 0 11-2.188 0 1.093 1.093 0 10-2.187 0 3.28 3.28 0 106.563 0zm18.593-1.094a1.093 1.093 0 00-1.093 1.094 1.093 1.093 0 11-2.188 0 1.093 1.093 0 10-2.188 0 3.28 3.28 0 106.563 0 1.093 1.093 0 00-1.094-1.094zm-3.935 11.029a1.093 1.093 0 00-1.44.564c-.017.037-1.686 3.72-6.655 3.72-4.904 0-6.58-3.558-6.656-3.725a1.094 1.094 0 00-2.002.882c.09.205 2.274 5.03 8.658 5.03 6.384 0 8.568-4.825 8.658-5.03a1.094 1.094 0 00-.563-1.44zm-10.283-2.279h4.374a1.093 1.093 0 100-2.188h-3.28v-3.28a1.094 1.094 0 00-2.188 0v4.374a1.094 1.094 0 001.093 1.094z"/></symbol><symbol fill="none" viewBox="0 0 7 13" id="fb" xmlns="http://www.w3.org/2000/svg"><path d="M4.751 2.508h1.5a.25.25 0 00.25-.25v-1.5a.25.25 0 00-.25-.25h-1.5a2.753 2.753 0 00-2.75 2.75v1.75H.251a.25.25 0 00-.25.25v1.5c0 .138.112.25.25.25h1.75v5.25c0 .138.112.25.25.25h1.5a.25.25 0 00.25-.25v-5.25h1.75a.25.25 0 00.237-.171l.5-1.5a.25.25 0 00-.237-.33h-2.25v-1.75a.75.75 0 01.75-.75z" fill="#1F1A3D"/></symbol><symbol viewBox="0 0 64 70" id="hair" xmlns="http://www.w3.org/2000/svg"><path d="M2.43 63.873c-.252.285-.467.6-.64.938-.025.05-.046.1-.063.153l-1.167 3.5A1.167 1.167 0 001.667 70h60.666a1.167 1.167 0 001.107-1.536l-1.166-3.5a1.145 1.145 0 00-.064-.153 4.513 4.513 0 00-.64-.938c.953-2.142 1.93-5.133 1.93-8.392 0-4.375-1.852-6.404-3.34-8.034-1.486-1.627-2.382-2.61-1.386-5.597 2.312-6.937 1.457-12.288-2.615-16.36-3.077-3.077-3.156-6.058-3.158-6.175 0-.039-.002-.078-.006-.117-.733-7.333-3.55-12.673-8.371-15.874C40.394.517 35.422-.036 32 .002c-3.428-.037-8.393.515-12.623 3.323-4.821 3.2-7.638 8.541-8.37 15.874a.97.97 0 00-.007.108c-.001.125-.08 3.106-3.158 6.183-4.072 4.072-4.927 9.424-2.615 16.36.996 2.988.099 3.97-1.386 5.597C2.352 49.077.5 51.106.5 55.481c0 3.237.956 6.206 1.93 8.392zm.856 3.794l.625-1.877c1.116-2.037 6.554-3.552 10.932-4.771 4.643-1.294 8.654-2.411 9.961-4.372 1.522-2.282 2.143-6.548 2.39-10.064.433.055.87.083 1.306.084h7c.437-.001.873-.03 1.306-.084.248 3.516.869 7.782 2.39 10.064 1.307 1.961 5.318 3.078 9.962 4.372 4.378 1.22 9.814 2.734 10.931 4.771l.626 1.877H3.285zM32.015 9.335c.257.033 3.872.696 5.847 9.585 1.984 8.928 4.826 12.992 5.805 14.184v3.063a8.176 8.176 0 01-8.167 8.166h-7a8.176 8.176 0 01-8.166-8.166v-3.063c.978-1.193 3.821-5.256 5.805-14.185 1.978-8.898 5.575-9.546 5.876-9.584zm18.653 10.052c.019.571.279 4.191 3.84 7.753 2.16 2.16 4.723 5.959 2.052 13.973-1.43 4.287.252 6.127 1.877 7.907 1.341 1.47 2.73 2.991 2.73 6.461 0 2.586-.714 5.008-1.481 6.867-2.49-1.511-6.238-2.556-9.902-3.577-3.484-.97-7.82-2.179-8.646-3.419-1.016-1.523-1.749-4.903-2.03-9.324A10.518 10.518 0 0046 36.167v-3.5a1.148 1.148 0 00-.336-.82c-.008-.008-.833-.866-1.92-2.938-1.007-1.92-2.45-5.297-3.605-10.495-1.02-4.597-2.614-7.894-4.733-9.802a6.66 6.66 0 00-2.24-1.374v-4.89c2.995.096 6.868.732 10.167 2.922 4.2 2.788 6.669 7.538 7.335 14.117zM5.564 49.02c1.625-1.779 3.305-3.62 1.876-7.907C4.77 33.099 7.332 29.3 9.492 27.14c3.561-3.562 3.822-7.182 3.84-7.753.667-6.58 3.135-11.33 7.335-14.118 3.299-2.19 7.172-2.826 10.166-2.922v4.89a6.654 6.654 0 00-2.238 1.375c-2.12 1.908-3.712 5.205-4.734 9.802-1.155 5.198-2.598 8.576-3.605 10.494-1.087 2.072-1.911 2.93-1.914 2.933a1.166 1.166 0 00-.342.825v3.5a10.518 10.518 0 006.892 9.862c-.28 4.421-1.014 7.802-2.03 9.325-.826 1.24-5.162 2.447-8.646 3.418-3.664 1.02-7.413 2.066-9.902 3.578-.78-1.887-1.48-4.295-1.48-6.868 0-3.47 1.388-4.99 2.73-6.46z"/></symbol><symbol viewBox="0 0 70 70" id="hygiene" xmlns="http://www.w3.org/2000/svg"><path d="M59.447 31.777a16.291 16.291 0 00-1.2-1.083 16.06 16.06 0 004.097-10.728v-3.562a1.094 1.094 0 00-1.094-1.093h-6.563V8.748a1.094 1.094 0 00-1.093-1.094h-3.562a16.17 16.17 0 00-3.899.478 16.233 16.233 0 00-2.422-3.093l-2.459-2.523a1.094 1.094 0 00-1.554-.012l-7.99 7.943c-.388.389-.756.797-1.104 1.223a16.058 16.058 0 00-10.636-4.016h-3.562a1.094 1.094 0 00-1.093 1.094v6.563H8.75a1.093 1.093 0 00-1.094 1.093v3.562c0 1.265.15 2.526.443 3.757a16.262 16.262 0 00-3.143 2.457l-2.448 2.447a1.094 1.094 0 000 1.547l8.046 8.046c.38.38.783.741 1.2 1.082A16.06 16.06 0 007.656 50.03v3.562a1.094 1.094 0 001.094 1.094h6.563v6.562a1.094 1.094 0 001.093 1.094h3.562c1.314 0 2.623-.16 3.899-.478a16.238 16.238 0 002.422 3.093l2.459 2.523a1.092 1.092 0 00.775.33h.008c.29 0 .567-.114.771-.317l7.99-7.944c.388-.389.756-.798 1.102-1.224a16.058 16.058 0 0010.638 4.017h3.562a1.094 1.094 0 001.093-1.094v-6.562h6.563a1.094 1.094 0 001.094-1.094V50.03c0-1.265-.15-2.526-.443-3.756a16.262 16.262 0 003.143-2.457l2.448-2.448a1.094 1.094 0 000-1.546l-8.046-8.046zm.71-11.811a13.954 13.954 0 01-13.94 13.938H43.68a8.703 8.703 0 00-1.771-4.267l1.797-1.798a16.007 16.007 0 004.683-10.241 14.126 14.126 0 011.644-.1h10.124v2.468zM35 41.561a6.563 6.563 0 116.563-6.563A6.57 6.57 0 0135 41.561zM50.032 9.842H52.5v5.469h-2.468c-.547 0-1.093.028-1.637.083a16.039 16.039 0 00-1.238-5.253 14 14 0 012.875-.299zm-9.575-5.008l1.692 1.736.01.01a13.954 13.954 0 010 19.712L40.36 28.09a8.705 8.705 0 00-4.267-1.771V23.78a16.058 16.058 0 00-3.938-10.547c.341-.433.708-.846 1.097-1.236l7.204-7.163zM17.5 9.842h2.468A13.954 13.954 0 0133.906 23.78v2.539a8.77 8.77 0 00-7.422 6.678A13.992 13.992 0 0117.5 19.966V9.842zM9.844 19.966v-2.468h5.469v2.468c0 .512.027 1.02.075 1.523a15.972 15.972 0 00-5.273 1.214 14.02 14.02 0 01-.271-2.737zm-5.016 9.435l1.675-1.675a13.784 13.784 0 019.245-4.063A16.236 16.236 0 0023.34 33.91a16.053 16.053 0 00-10.012 3.851 14.12 14.12 0 01-1.229-1.089L4.827 29.4zm5.016 20.63a13.954 13.954 0 0113.938-13.939h2.539a8.703 8.703 0 001.771 4.267l-1.798 1.798A16.006 16.006 0 0021.613 52.4c-.546.065-1.096.098-1.645.1H9.844v-2.47zm10.124 10.123H17.5v-5.468h2.468c.547 0 1.093-.029 1.637-.084a16.039 16.039 0 001.238 5.253c-.946.199-1.91.3-2.875.3zm9.575 5.008l-1.692-1.736-.01-.01a13.939 13.939 0 010-19.712l1.798-1.798a8.705 8.705 0 004.267 1.771v2.539a16.058 16.058 0 003.937 10.547c-.341.433-.707.846-1.096 1.237l-7.204 7.162zM52.5 60.154h-2.468a13.955 13.955 0 01-13.938-13.938v-2.539A8.768 8.768 0 0043.516 37 13.992 13.992 0 0152.5 50.03v10.124zm7.656-10.124v2.468h-5.468V50.03c0-.512-.028-1.02-.076-1.524a15.97 15.97 0 005.273-1.213c.18.901.27 1.818.271 2.737zm3.341-7.76a13.79 13.79 0 01-9.245 4.064 16.234 16.234 0 00-7.593-10.248 16.054 16.054 0 0010.012-3.852c.43.34.84.703 1.229 1.09l7.272 7.272-1.675 1.675z"/></symbol><symbol fill="none" viewBox="0 0 13 13" id="instagram" xmlns="http://www.w3.org/2000/svg"><path d="M6.617 12.508h-.12c-.94.002-1.809-.022-2.654-.073a3.55 3.55 0 01-2.046-.775c-.544-.443-.915-1.043-1.103-1.78C.53 9.236.52 8.605.513 7.994a131.48 131.48 0 01-.014-1.485c.001-.53.008-1.05.014-1.487.008-.61.017-1.242.18-1.885.19-.739.56-1.338 1.104-1.782A3.55 3.55 0 013.843.581 41.812 41.812 0 016.5.508C7.441.506 8.31.53 9.155.581a3.549 3.549 0 012.046.774c.544.444.915 1.043 1.103 1.782.164.643.173 1.274.181 1.885.007.438.013.957.014 1.485v.002a130.64 130.64 0 01-.014 1.485c-.008.61-.016 1.242-.18 1.885-.19.739-.56 1.338-1.104 1.781a3.55 3.55 0 01-2.046.775c-.81.049-1.64.073-2.538.073zm-.12-.938a40.9 40.9 0 002.601-.071c.586-.036 1.094-.226 1.51-.565.385-.314.65-.747.788-1.287.137-.535.144-1.11.152-1.666.006-.435.012-.95.014-1.473-.002-.523-.008-1.038-.014-1.474-.008-.555-.015-1.13-.152-1.666-.138-.54-.403-.972-.788-1.286-.416-.34-.924-.53-1.51-.565A40.97 40.97 0 006.5 1.445a40.86 40.86 0 00-2.6.072c-.586.035-1.094.226-1.51.565-.385.314-.65.746-.788 1.286-.137.536-.144 1.11-.152 1.666-.006.436-.012.952-.013 1.475 0 .52.007 1.037.013 1.472.008.556.015 1.13.152 1.666.138.54.403.973.788 1.287.416.339.924.53 1.51.565.825.05 1.675.073 2.598.071zm-.021-2.133a2.933 2.933 0 01-2.93-2.93 2.933 2.933 0 012.93-2.929 2.933 2.933 0 012.93 2.93 2.933 2.933 0 01-2.93 2.93zm0-4.921a1.995 1.995 0 00-1.993 1.992c0 1.098.894 1.992 1.993 1.992a1.994 1.994 0 001.992-1.992 1.994 1.994 0 00-1.992-1.992zM9.733 2.64a.703.703 0 100 1.406.703.703 0 000-1.406z" fill="#1F1A3D"/></symbol><symbol fill="none" viewBox="0 0 200 24" id="kupivip" xmlns="http://www.w3.org/2000/svg"><path d="M74.657 23.543h4.11V0h-4.11v23.543zm38.357 0h4.109V0h-4.109v23.543zM95.89 14.629L89.041 0h-4.338L95.89 24l11.188-24h-4.338l-6.85 14.629zM0 23.543h4.11V0H0v23.543zM19.178 0h-5.023l-9.36 11.657 9.36 11.886h5.023l-9.36-11.886L19.177 0zm144.977 9.829V3.886h3.882c2.739 0 3.424 1.828 3.424 2.971 0 1.829-1.141 2.972-3.424 2.972h-3.882zm11.187-2.972c0-4.343-3.881-6.857-7.305-6.857h-8.22v23.543h4.11v-9.829l7.762 9.829h5.023l-7.991-9.829c3.653-.457 6.621-2.971 6.621-6.857zM38.128 15.314c0 2.743-1.827 4.8-4.338 4.8s-4.338-1.828-4.338-4.8V0h-4.11v15.543c0 5.486 3.882 8.457 8.448 8.457 4.566 0 8.447-2.971 8.447-8.457V0h-4.11v15.314zm20.32-2.514H55.48V4.114h2.968c2.968 0 4.794 1.829 4.794 4.343 0 2.514-1.826 4.343-4.794 4.343zM58.675 0H51.37v23.543h4.11v-6.629h3.196c5.48 0 8.447-4.114 8.447-8.457C67.123 4.114 64.155 0 58.676 0zm75.342 12.8h-2.968V4.114h2.968c2.74 0 4.566 1.829 4.566 4.343 0 2.514-1.826 4.343-4.566 4.343zm.229-12.8h-7.306v23.543h4.109v-6.629h3.197c5.479 0 8.447-4.114 8.447-8.457 0-4.343-2.968-8.457-8.447-8.457zm61.643 0v15.314c0 2.743-1.826 4.8-4.337 4.8-2.74 0-4.338-2.057-4.338-4.8V0h-4.11v15.543c0 5.486 3.881 8.457 8.448 8.457 4.566 0 8.447-2.971 8.447-8.457V0h-4.11zm-49.315 23.543h4.11v-4.114h-4.11v4.114z" fill="#fff"/></symbol><symbol fill="none" viewBox="0 0 200 40" id="lamoda" xmlns="http://www.w3.org/2000/svg"><path d="M90.708 34.897h7.186V20.053c0-7.841-5.01-12.004-11.038-12.004-3.99 0-7.003 1.728-9.174 4.12h-.976c-1.638-2.127-4.474-4.12-8.684-4.12-3.819 0-6.87 1.683-8.466 3.633h-.976v-2.88h-6.693v26.095h7.141V21.252c0-4.655 1.376-6.248 6.16-6.248 4.785 0 6.113 1.593 6.113 6.248v13.643h7.189V21.252c0-4.655 1.328-6.248 6.115-6.248 4.79 0 6.116 1.593 6.116 6.248l-.01 13.643-.003.002zm-67.447-3.736c-1.283-.929-1.86-2.302-1.86-4.383 0-2.614.8-5.836 2.128-7.222.93-.931 2.258-1.373 4.077-1.373 2.57 0 5.717.674 7.045 2.038.888.886 1.289 2.125 1.289 3.853 0 2.482-.71 5.98-2.264 7.442-.885.799-2.081 1.15-3.764 1.15-2.301 0-5.193-.533-6.651-1.505zm11.305 5.494l-.312 2.392 6.688.825 3.169-25.855-6.686-.821-.312 2.507h-.773c-1-1.77-3.682-4.166-8.734-4.166-7.046 0-12.231 5.185-13.164 12.27-.087.691-.13 1.388-.133 2.085 0 6.775 4.61 12.359 11.788 13.155.4.038.798.05 1.198.045 3.014 0 5.276-1.283 6.428-2.434h.84l.003-.003zm151.297-7.652c-5.362 0-7.136-1.77-7.136-7.13 0-5.361 1.776-7.184 7.136-7.184 5.363 0 7.136 1.816 7.136 7.185 0 5.366-1.773 7.13-7.136 7.13zm-34.391 0c-5.365 0-7.136-1.77-7.136-7.13 0-5.361 1.771-7.184 7.133-7.184 5.363 0 7.139 1.816 7.139 7.185 0 5.366-1.776 7.13-7.139 7.13h.003zm-33.508 0c-5.361 0-7.134-1.77-7.134-7.13 0-5.361 1.773-7.184 7.134-7.184 5.36 0 7.138 1.816 7.138 7.185 0 5.366-1.776 7.13-7.138 7.13zM4.357 0L0 34.845l7.113.866L11.4.864 4.357 0zM193.31 32.372v2.523H200V8.805h-6.691v2.528h-.975c-1.066-1.419-3.767-3.28-7.411-3.28-7.979 0-13.427 6.062-13.427 13.823 0 7.76 5.451 13.778 13.427 13.778 3.637 0 6.338-1.86 7.411-3.28h.975v-.002zm-75.345-24.32c-8.865 0-14.357 6.06-14.357 13.822 0 7.759 5.492 13.777 14.357 13.777 8.864 0 14.374-6.026 14.374-13.777 0-7.754-5.498-13.823-14.374-13.823zm41.042 24.32v2.523h6.69V.3h-7.088v11.03h-.976c-1.063-1.418-3.459-3.279-7.09-3.279-7.979 0-13.432 6.061-13.432 13.823 0 7.759 5.453 13.777 13.432 13.777 3.631 0 6.468-1.86 7.488-3.279h.976z" fill="#fff"/></symbol><symbol fill="none" viewBox="0 0 200 28" id="letu" xmlns="http://www.w3.org/2000/svg"><path fill-rule="evenodd" clip-rule="evenodd" d="M156.327.378a12.812 12.812 0 015.522-.085 14.284 14.284 0 00-5.522.085zM16.649.166a13.938 13.938 0 014.393.085C20.54.209 20.038.124 19.536.082c-1.297-.084-2.594 0-3.849.253h-.042c.335-.126.67-.084 1.004-.169zm-1.715 5.28c.92-.338 1.883-.55 2.886-.55-1.003.043-1.966.254-2.886.55zm58.523.97v-.97a3.75 3.75 0 010 .97h6.108c.125.719 0 1.479.042 2.197V21.07c0 .212 0 .38-.042.592V6.923c0-.21-.042-.506-.293-.464-1.882-.042-3.848-.042-5.815-.042zm48.777 2.197c.042-.338.083-.676.293-.971a2.865 2.865 0 00-.293.97zm-55.553.422c.167.634.292 1.267.25 1.943-.041 0-.083.042-.083.042.125-.127.084-.295.084-.422-.084-.507-.168-1.014-.251-1.563zm71.533.38c.042 3.632 0 7.264 0 10.896 0 .423.042.887 0 1.31-4.518.042-9.078 0-13.596 0a20.315 20.315 0 01-2.802-.296c.92.127 1.882.253 2.802.295h13.596V9.415zm-76.762 1.732c1.547.464 3.22.38 4.768 0-1.547.422-3.22.507-4.768 0zm5.27 1.478c.084 0 .168-.042.251-.042 0 .38-.041.802-.125 1.182.042-.38.125-.76.125-1.182-.083.042-.209.042-.25.042zm58.482.464c.46-.042.962-.126 1.422-.084h7.195c.042 2.576 0 5.152 0 7.729h-7.446c-.878 0-1.799-.085-2.635-.338.878.338 1.799.38 2.719.38h7.362v-7.729h-6.191c-.795-.084-1.631-.126-2.426.042zm59.36-.126h4.309c.711 0 1.422-.042 2.133.042-2.133-.042-4.309-.042-6.442-.042zm8.701.38c.167.042.376.127.502.253a2.798 2.798 0 00-.502-.253zm1.924 1.394c.168-.127.335.21.209.337-.083-.126-.167-.253-.209-.337zm.084 4.054a.919.919 0 01.209-.338c.084.085-.042.422-.209.338zm-.795.802c.209-.295.46-.506.753-.76-.042.211-.209.296-.376.38-.084.17-.251.296-.377.38zM0 21.156c.251-.634.293-1.31.502-1.985-.167.718-.293 1.478-.502 2.196v-.211zm191.759.507c.251-.043.46-.043.711-.043-.251 0-.502.043-.711.043zm-140.891.21c3.221.339 6.442.423 9.663 0-2.259.38-4.601.339-6.902.254-.962-.084-1.883-.084-2.761-.253z" fill="#fff"/><path fill-rule="evenodd" clip-rule="evenodd" d="M38.653.549C39.03.127 39.657 0 40.201 0c.502.042 1.046.127 1.38.549.168.211.126.507.084.76-.251 1.225-.67 2.407-1.046 3.59-.167.465-.293.93-.46 1.394a1.714 1.714 0 01-.21-.38c-.083-.17-.125-.38-.166-.55-.126-.506-.335-1.013-.502-1.52a2.107 2.107 0 01-.168-.549l-.502-1.774c-.125-.295-.209-.675.042-.971zM15.687.338a14.653 14.653 0 013.849-.254c.502.043 1.004.127 1.506.17.376.084.794.168 1.17.295.42.169.838.296 1.256.422 3.346 1.31 6.15 3.801 8.325 6.673 2.133 2.83 3.68 6.04 4.768 9.418.126.549.335 1.098.46 1.647.042.676-.25 1.31-.46 1.943-.209.38-.46.675-.71 1.013-.084-.169-.168-.338-.21-.507a5.902 5.902 0 00-.502-1.182c-.293-.676-.627-1.352-.92-1.985a7.893 7.893 0 00-.419-.845 34.875 34.875 0 00-2.217-3.632c0-.126-.041-.21-.167-.253-2.05-2.872-4.602-5.575-7.78-7.18a5.11 5.11 0 00-1.088-.506c-.879-.338-1.757-.592-2.678-.718a.912.912 0 00-.585-.085 7.537 7.537 0 00-1.38 0c-.963 0-1.967.211-2.887.55-2.97 1.013-5.48 2.998-7.614 5.278-2.091 2.28-3.848 4.857-5.354 7.56a2.7 2.7 0 00-.335.591 3.153 3.153 0 01-.293.507c-.209.296-.376.591-.46.929-.209.422-.418.845-.627 1.31h-.21V21.2c.21-.718.335-1.436.502-2.197.251-1.182.628-2.322 1.004-3.463.21-.422.377-.886.502-1.351.419-1.098.92-2.196 1.465-3.252a.322.322 0 00.083-.169c1.046-1.985 2.301-3.843 3.807-5.49C9.705 2.829 12.55.887 15.771.169c-.126.169-.084.169-.084.169zm140.64.042a14.284 14.284 0 015.522-.084c.167.042.335.042.502.126.042 0 .125.043.167.043.879.168 1.715.506 2.51.886a6.2 6.2 0 00.921.465c.962.507 1.84 1.14 2.719 1.774 1.171.971 2.259 2.027 3.221 3.21.334.422.711.802.962 1.266.042.085.084.17.167.212.251.295.502.675.67 1.013.041.085.083.211.167.253.46.634.795 1.31 1.171 1.985.711 1.436 1.381 2.872 1.924 4.393.126.422.251.802.419 1.182.125.465.251.887.418 1.352.167.549 0 1.098-.167 1.647a4.008 4.008 0 01-1.004 1.604 86.33 86.33 0 00-1.548-3.463c-.126-.253-.251-.549-.418-.76a3.373 3.373 0 01-.335-.676.883.883 0 00-.251-.422c-.795-1.31-1.59-2.66-2.552-3.885-1.506-1.985-3.221-3.759-5.229-5.195-.293-.253-.669-.422-.962-.676a.91.91 0 00-.335-.21c-.794-.38-1.547-.803-2.426-1.014a10.245 10.245 0 00-5.856-.211c-.377.084-.753.21-1.13.295a.475.475 0 00-.335.127c-.585.296-1.171.507-1.715.802a2.652 2.652 0 00-.585.338c-3.18 1.9-5.731 4.772-7.865 7.813-.209.211-.334.465-.502.718-.376.55-.669 1.14-1.087 1.69a.87.87 0 00-.168.253c-.251.549-.585 1.056-.878 1.605a48.78 48.78 0 00-1.297 2.576c-.084.127-.125.38-.335.295v-.253a.787.787 0 00.084-.296c0-.084 0-.21.042-.295.042-.085.084-.127.084-.254 0-.126.041-.295.041-.422.168-.549.293-1.14.419-1.69a6.44 6.44 0 01.125-.464.716.716 0 00.126-.422v-.085c.041-.084.083-.168.083-.253v-.084a9.53 9.53 0 00.335-1.014c.084-.338.209-.634.335-.971.167-.338.292-.718.418-1.098 1.171-2.957 2.761-5.744 4.811-8.109 1.589-1.816 3.472-3.42 5.647-4.519.293-.127.586-.295.92-.38.126 0 .251-.084.335-.127.502-.295 1.088-.464 1.715-.59zm-106.045.718c1.255-.296 2.552-.38 3.807-.507 2.217-.084 4.476-.084 6.651.38.377.085.795.127 1.172.296a.782.782 0 00.334.084c.293 0 .586.127.837.212 1.464.506 2.886 1.14 4.141 2.027a.23.23 0 00.21.126c.25.085.418.296.627.465 1.673 1.31 3.012 3.04 3.681 5.068.126.38.251.76.293 1.182 0 .085 0 .17.042.254 0 .042.042.169.042.253.042.676.084 1.31-.042 1.985-.084.76-.335 1.478-.586 2.154-.041.127-.125.253-.167.38-.167.296-.335.591-.544.93-.753 1.097-1.715 2.026-2.803 2.787-.083.084-.209.126-.334.168-.084.043-.21.085-.251.17-.586.422-1.255.717-1.883.97-.46.17-.878.338-1.338.507-.21.085-.419.127-.628.212a31.85 31.85 0 01-1.924.464h-.167c-.084 0-.168 0-.251.085h-.293a.6.6 0 00-.293.084c-.042 0-.126.042-.167.042-3.18.423-6.443.338-9.664 0-2.342-.253-4.727-.929-6.776-2.154a.315.315 0 00-.168-.084c-.125-.042-.293-.085-.25-.253.417-.254.836-.507 1.254-.76.084-.043.21-.127.293-.043.586.422 1.213.76 1.882 1.056.335.169.67.296 1.004.422 1.674.55 3.389.803 5.146.93 2.719.168 5.48.084 8.073-.887.46-.17.879-.423 1.297-.592.126-.042.251-.084.293-.169l.042-.042h.084c.167 0 .25-.127.334-.211.711-.549 1.422-1.182 1.966-1.943.712-.971 1.172-2.111 1.423-3.252.125-.38.125-.802.125-1.182-.084 0-.167.042-.25.042-.587.127-1.13.296-1.716.338v.042c-.711.043-1.422.17-2.175.085-.879-.085-1.757-.338-2.594-.634-.544-.21-1.087-.422-1.673-.507h-.084a.592.592 0 00-.25-.084 12.826 12.826 0 00-3.598 0c-.963.127-1.925.422-2.845.676v-1.605l.084-.042c.544-.17 1.046-.338 1.59-.507.25-.085.501-.127.752-.17a.6.6 0 00.293-.084c1.548-.337 3.18-.168 4.727.254.502.169 1.004.38 1.506.507.21.042.418.126.628.21 1.547.508 3.22.423 4.768 0 .21-.041.419-.084.628-.126.042 0 .084-.042.084-.042.041-.676-.084-1.31-.251-1.943a10.71 10.71 0 00-.879-2.28 3.458 3.458 0 00-.502-.845c-.46-.676-1.046-1.267-1.673-1.816-.21-.169-.46-.296-.628-.507-.083-.084-.167-.126-.25-.169-.67-.338-1.297-.718-2.009-.929a5.526 5.526 0 00-1.422-.422h-.042c-.083-.042-.167-.085-.25-.085-.837-.126-1.716-.253-2.553-.295-.836-.042-1.63 0-2.468 0-.418.042-.794.084-1.213.084-.125 0-.25.042-.376.085h-.293c-.084 0-.167 0-.251.042-1.046.169-2.092.464-3.137.802-.377.085-.753.254-1.088.423-.795.338-1.59.76-2.343 1.267l-1.506-.76v-.085c1.38-.93 2.929-1.563 4.476-2.027.293-.085.628-.211.963-.211.125 0 .209-.043.334-.085.167-.084.335-.084.502-.084.335-.042.418-.085.46-.127zm74.629 4.223a24.903 24.903 0 013.096-.169c1.715 0 3.43.043 5.103.254a.442.442 0 00.335.042c.837.042 1.673.296 2.426.549.251.127.544.211.753.38a.23.23 0 00.209.127c.209.042.335.253.46.38.419.422.753 1.013.795 1.605 0 .126.042.253.084.38.042.169.042.295.042.464v12.205h-13.596c-.92 0-1.882-.169-2.803-.295-1.338-.296-2.719-.76-3.681-1.774-.585-.633-1.004-1.478-1.004-2.365-.042-.929.335-1.858.921-2.576a6.405 6.405 0 012.259-1.563c.46-.169.962-.338 1.422-.506.167-.043.334-.127.502-.085a.315.315 0 00.167-.084 17.44 17.44 0 012.594-.338c1.129-.085 2.301-.043 3.43-.043h5.396c0-1.182.042-2.322-.041-3.505v-.169c0-.084 0-.169-.084-.253a2.242 2.242 0 00-1.297-1.394 5.856 5.856 0 00-1.464-.422c-.126-.042-.251-.085-.377-.085-.543 0-1.087-.084-1.631-.084-.92 0-1.799-.042-2.719.042-.962.085-1.966.211-2.845.676-.334.169-.627.464-.836.802-.21.254-.293.634-.293.972-.042.21-.042.422-.042.675-.502.085-1.046.043-1.548.043-.795 0-1.631.042-2.426-.043-.042-1.14.753-2.111 1.715-2.66.251-.127.502-.254.795-.38.251-.127.502-.211.753-.296a26.36 26.36 0 011.757-.422c.209-.042.376-.085.585-.085.126 0 .21-.042.335-.084.126 0 .251-.042.377 0 .083.169.251.127.376.084zm.293 7.771l-.084.042c-.125-.084-.209-.084-.251.085-.251-.042-.46.084-.711.126-.293.127-.586.212-.837.423-.125-.085-.418.042-.334.21-.209.085-.377.254-.544.423-1.255 1.14-1.506 3.252-.544 4.646.418.633 1.13 1.056 1.841 1.351.878.338 1.799.38 2.719.38h7.362V13.05h-6.191c-.795-.085-1.631-.127-2.426.042zM73.457 5.448H83.54c2.133 0 4.309-.042 6.442 0 .042.338.042.633 0 .971h-5.94v15.204c-1.464 0-2.928.042-4.392 0 0-.211.041-.38.041-.591V8.573c-.041-.718.042-1.478-.041-2.196h-6.11c-.042-.296-.042-.591-.084-.929zm18.992 0c.042.084.126.169.168.253a5044.68 5044.68 0 0112.047 15.626c-1.548 2.112-3.053 4.266-4.559 6.42a.88.88 0 01-.084.253h1.171c.126 0 .251-.084.335-.127.293-.422.586-.802.878-1.224.168-.296.377-.55.586-.845a339.947 339.947 0 003.43-4.815c1.423-2.027 2.887-4.054 4.309-6.081 1.924-2.703 3.849-5.364 5.731-8.066.125-.254.293-.465.502-.676.167-.211.335-.422.418-.676h-1.422a2.946 2.946 0 00-.335.423 762.926 762.926 0 00-4.267 5.996 5.875 5.875 0 01-.46.634 136.384 136.384 0 00-2.175 3.04c-.335.55-.795 1.014-1.088 1.563a.741.741 0 01-.209.296c-.251.169-.293.633-.627.633-.168-.168-.293-.422-.46-.59-.084-.085-.168-.17-.21-.296-.167-.296-.376-.507-.585-.803-.921-1.182-1.799-2.407-2.761-3.59a.655.655 0 01-.251-.337c-.251-.423-.586-.76-.837-1.14-1.506-1.986-3.012-3.928-4.518-5.913-.209-.085-.418-.042-.627-.042-1.339.084-2.72.084-4.1.084zm87.681 0h4.392c.042 2.154 0 4.308.042 6.461h4.141c2.05 0 4.142 0 6.191.465.084.085.168.127.293.085.168.042.293.084.46.126.461.17.879.338 1.339.465.879.38 1.757.929 2.343 1.731.334.423.502.93.669 1.436V17.4c-.126.338-.251.718-.418 1.056-.126.042-.168.084-.168.21v.043c-.125 0-.167.084-.167.211-.46.591-1.088 1.014-1.757 1.394-.125 0-.251.042-.293.169-1.506.675-3.137.971-4.727 1.098-.251 0-.46.042-.711.042-.46.042-.92.042-1.339.042h-10.29c-.042-5.363 0-10.811 0-16.217zm4.434 7.517c-.042 2.576 0 5.153 0 7.729 1.84.042 3.681 0 5.522 0 1.422 0 2.97-.127 4.183-.93.042-.041.167-.126.209-.126.126-.085.293-.211.377-.38.125-.127.334-.169.376-.38l.042-.085c.167.085.293-.253.209-.337.544-1.014.502-2.366-.084-3.38.126-.126-.041-.464-.209-.337-.251-.38-.627-.676-.962-.887a1.296 1.296 0 00-.251-.169l-.125-.084a1.416 1.416 0 00-.502-.254c-.126-.042-.251-.084-.377-.084v-.084l-.083-.043-.084.043a8.322 8.322 0 00-1.757-.212c-.711-.084-1.422 0-2.134-.042-1.464.042-2.928 0-4.35.042z" fill="#fff"/></symbol><symbol fill="none" viewBox="0 0 160 30" id="logo" xmlns="http://www.w3.org/2000/svg"><path d="M37.324 16.472a7.859 7.859 0 00-5.56-2.313c-.904 0-1.738.14-2.572.42-.348-.21-.625-.42-.973-.56.625-.35 1.251-.771 1.738-1.332A7.46 7.46 0 0032.11 7.43c0-2.033-.764-3.855-2.154-5.257A7.334 7.334 0 0024.744 0H5.977v1.682h3.267v6.309H5.977v1.682h3.267v4.626a8.486 8.486 0 00-1.39-.14c-2.085 0-4.1.841-5.56 2.313A7.994 7.994 0 000 22.079c0 2.103.834 4.136 2.294 5.608A7.859 7.859 0 007.854 30h16.82c1.251 0 2.502-.28 3.545-.841 1.043.56 2.294.841 3.475.841a7.857 7.857 0 005.56-2.313 7.994 7.994 0 002.294-5.608 8.051 8.051 0 00-2.224-5.607zM9.244 28.388h-1.39c-3.406 0-6.255-2.804-6.255-6.309 0-3.504 2.78-6.308 6.255-6.308.487 0 .904.07 1.39.14v12.477zm1.599-26.776h6.394v6.379h-6.394V1.612zm6.464 26.776h-6.464V16.612c.208.14.486.28.695.42l5.769 4.206v7.15zM12.51 15.7a5.185 5.185 0 00-.834-.49l-.834-.421V9.673h6.394v9.533L12.511 15.7zm12.163 12.687h-5.769V22.5l7.646 5.608c-.556.21-1.182.28-1.877.28zm3.614-1.052c-.07-.07-.139-.07-.208-.14l-9.105-6.729V9.673h3.058V7.99h-3.128V1.612h5.77c3.196 0 5.768 2.594 5.768 5.818 0 3.224-2.572 5.818-5.769 5.818h-2.641v1.682h2.641c3.684 0 6.673 3.014 6.673 6.729 0 2.383-1.182 4.486-3.059 5.677zm3.476 1.052c-.626 0-1.182-.07-1.807-.28.208-.14.417-.351.625-.561 1.599-1.612 2.433-3.715 2.433-5.958a8.33 8.33 0 00-2.294-5.748c.348-.07.695-.07.973-.07 3.406 0 6.256 2.804 6.256 6.308 0 3.505-2.78 6.309-6.186 6.309zm16.68-25.234h3.893c.348 0 .626.07.904.14s.556.21.834.42c.347.281.625.562.764.982.209.35.278.771.278 1.192v.14c0 .56-.139 1.051-.417 1.472-.278.49-.695.771-1.181.981.625.14 1.181.491 1.529.982.347.49.556 1.121.556 1.682v.42c-.07.421-.14.912-.348 1.332-.208.42-.486.771-.903 1.052-.278.14-.556.28-.834.35a4.07 4.07 0 01-.973.14h-4.17l.069-11.285zm1.738 4.767h1.182c.487 0 .904-.14 1.251-.35.417-.211.556-.562.626-1.122v-.14c0-.702-.209-1.192-.695-1.332-.487-.21-.974-.28-1.599-.28h-.765V7.92zm.209 5.046h1.043c.556 0 1.112-.14 1.598-.35.487-.21.695-.701.695-1.402v-.07c0-.701-.208-1.192-.695-1.402-.486-.21-.973-.35-1.529-.35h-1.251v3.644c0-.07.07-.07.139-.07zm7.507-9.813h6.255v1.612h-4.448V7.57h4.448v1.612h-4.448v3.645h4.448v1.682h-6.256V3.154zm15.151 8.411H68.6l-1.32 2.944h-1.947l5.422-11.775 5.421 11.775H74.23l-1.181-2.944zM70.686 6.8c-.07.21-.139.42-.278.63l-1.181 2.594h3.127l-1.18-2.594c-.07-.14-.14-.35-.209-.49a1.33 1.33 0 01-.139-.562c0-.07 0-.07-.07-.14 0-.07 0-.07-.069-.14.14.28.07.49 0 .701zm9.175-3.645v6.94c0 .91.209 1.682.626 2.242.417.561 1.181.842 2.154.842.973 0 1.668-.28 2.155-.842.486-.56.695-1.331.695-2.242v-6.87h1.807v7.08c0 1.542-.417 2.663-1.182 3.434-.764.771-1.946 1.122-3.475 1.122-1.529 0-2.71-.35-3.475-1.122-.765-.77-1.182-1.892-1.182-3.364v-7.15l1.877-.07zm13.97 11.355h-1.876V4.766h-2.989V3.154h7.785v1.612h-2.99v9.743h.07zm7.09-5.187l-3.753-6.168h1.946l2.363 3.855c.069.07.069.14.139.21.069.07.069.14.139.21 0 0 0 .071.069.071 0 0 .001.07.07.07 0 .07.07.07.07.14s.069.07.069.14c.07-.14.139-.35.209-.49.069-.14.139-.28.278-.49l2.432-3.786h1.807l-3.822 6.168v5.187h-1.808l-.208-5.117zm12.65 5.187V2.804h5.769v.981h-4.657V7.43h4.518v.981h-4.518v6.028l-1.112.07zm12.928.28c-1.112 0-2.085-.21-3.059-.7a5.563 5.563 0 01-2.293-2.103c-.556-.911-.834-2.033-.834-3.365 0-1.191.278-2.313.903-3.224.626-.911 1.39-1.612 2.363-2.103.974-.49 2.016-.77 3.059-.77.903 0 1.737.14 2.502.49.764.35 1.39.771 1.946 1.332.556.56.973 1.191 1.251 1.962.278.771.487 1.613.487 2.454 0 1.191-.278 2.313-.834 3.224-.556.911-1.321 1.682-2.294 2.173-.973.42-2.016.63-3.197.63zm0-.91c.973 0 1.807-.21 2.571-.701.765-.421 1.39-1.052 1.877-1.893.487-.771.695-1.682.695-2.664 0-.84-.208-1.682-.556-2.453-.417-.84-.973-1.472-1.738-2.032-.764-.561-1.668-.772-2.78-.772-.764 0-1.529.21-2.363.561-.834.42-1.46.982-2.016 1.753-.556.77-.764 1.752-.764 2.873 0 .912.208 1.823.625 2.594.417.77 1.043 1.402 1.808 1.892.834.631 1.668.841 2.641.841zm15.152.63h-1.321l-4.101-5.607h-.625v5.607h-1.043V2.804h2.155c2.502 0 3.753 1.051 3.753 3.224 0 1.051-.278 1.752-.903 2.243-.626.42-1.321.701-2.086.771l4.171 5.467zm-5.213-6.448c.903 0 1.598-.14 2.085-.42.487-.281.765-.842.765-1.753 0-.841-.209-1.402-.695-1.752-.487-.351-1.182-.491-2.225-.491h-.834V7.99l.904.07zm12.372-4.556c-1.043 0-1.877.21-2.641.63-.765.421-1.321 1.052-1.738 1.823-.417.771-.626 1.682-.626 2.734 0 1.612.487 2.873 1.39 3.785.904.91 2.086 1.402 3.545 1.402 1.321 0 2.572-.491 3.753-1.402v1.261c-.556.35-1.112.561-1.737.771-.626.21-1.321.28-2.016.28-.903 0-1.876-.14-2.78-.49-.904-.35-1.668-.981-2.363-1.893-.626-.91-.973-2.102-.973-3.644 0-1.122.208-2.173.625-3.084.417-.912 1.112-1.683 2.016-2.243.904-.561 2.085-.842 3.545-.842 1.32 0 2.571.421 3.753 1.262l-.07 1.192c-.417-.35-.973-.701-1.529-1.052-.556-.35-1.251-.49-2.154-.49zm5.421 11.004V2.804H160v.981h-4.657V7.43H160v.981h-4.657v5.047H160v.981l-5.769.07zM53.727 23.061v.49c-.278-.28-.556-.56-.903-.7-.348-.14-.695-.28-1.112-.28-.765 0-1.39.28-1.877.77-.487.56-.765 1.192-.765 1.963 0 .42.07.84.278 1.191.14.35.348.631.626.841.278.21.556.421.834.491.278.14.626.21.904.21.347 0 .695-.07 1.042-.21.348-.14.695-.35.973-.7v.49c-.486.56-1.181.77-1.876.77-.904 0-1.599-.28-2.225-.91-.625-.631-.903-1.332-.903-2.173s.278-1.612.903-2.173c.626-.56 1.321-.911 2.155-.911.765.07 1.39.28 1.946.84zm3.614.07c.626-.631 1.321-.911 2.225-.911.834 0 1.598.28 2.224.91.625.632.903 1.333.903 2.174 0 .84-.278 1.612-.903 2.173-.626.63-1.32.91-2.224.91-.835 0-1.599-.28-2.225-.91-.625-.561-.903-1.332-.903-2.173s.347-1.542.903-2.173zm.279 4.135a2.551 2.551 0 001.876.771c.765 0 1.39-.28 1.877-.77.486-.561.764-1.192.764-1.963 0-.771-.278-1.402-.764-1.963a2.556 2.556 0 00-1.877-.77c-.765 0-1.39.28-1.877.77-.486.56-.764 1.192-.764 1.963 0 .84.278 1.472.765 1.962zm11.05-4.135l-.277.21c-.278-.49-.626-.77-1.182-.77-.347 0-.625.14-.834.35-.209.21-.278.49-.278.77 0 .14 0 .281.07.421.069.14.139.21.208.28.14.07.209.14.278.21.07.07.209.141.417.211.626.28 1.043.49 1.182.63.417.281.625.702.625 1.192 0 .491-.208.912-.556 1.262-.347.35-.764.49-1.32.49s-1.043-.21-1.39-.63l-.418-.63.348-.141c.07.21.208.42.347.56.278.351.626.491 1.113.491.417 0 .764-.14 1.042-.42.278-.28.417-.56.417-.982 0-.42-.208-.7-.556-.91-.139-.07-.486-.281-1.112-.561-.278-.14-.486-.28-.626-.35a.716.716 0 01-.347-.422 1.191 1.191 0 01-.209-.7c0-.421.14-.701.418-1.052.278-.35.625-.42 1.112-.42.278 0 .556.07.834.21.347.21.556.42.695.7zm3.615 5.187h-.417l.695-6.169 2.572 5.538 2.571-5.538.695 6.169h-.347l-.556-4.767-2.363 4.977-2.364-4.977-.486 4.767zm12.302-5.958v.35h-2.432v2.173h2.432v.35h-2.432v2.734h2.432v.35h-2.85V22.36h2.85zm5.839.35h-1.53v5.608h-.416V22.71h-1.53v-.35h3.476v.35zm2.64-.35h.418v5.958h-.417V22.36zm8.55.7v.491c-.278-.28-.556-.56-.904-.7-.347-.14-.695-.28-1.112-.28-.764 0-1.39.28-1.876.77-.487.56-.765 1.192-.765 1.963 0 .42.07.84.278 1.191.14.35.348.631.626.841.278.21.556.421.834.491.278.14.625.21.903.21.348 0 .695-.07 1.043-.21.347-.14.695-.35.973-.7v.49c-.556.49-1.251.77-1.946.77-.904 0-1.599-.28-2.224-.91-.626-.631-.904-1.332-.904-2.173s.278-1.612.904-2.173c.625-.631 1.32-.911 2.154-.911.765.07 1.46.28 2.016.84zm11.607 0v.491c-.278-.28-.556-.56-.903-.7-.348-.14-.695-.28-1.112-.28-.765 0-1.39.28-1.877.77-.487.56-.765 1.192-.765 1.963 0 .42.07.84.278 1.191.139.35.348.631.626.841.278.21.556.421.834.491.278.14.626.21.904.21.347 0 .695-.07 1.042-.21.348-.14.695-.35.973-.7v.49c-.556.49-1.251.77-1.946.77-.903 0-1.598-.28-2.224-.91-.626-.631-.904-1.332-.904-2.173s.278-1.612.904-2.173c.626-.631 1.321-.911 2.155-.911.834.07 1.459.28 2.015.84zm3.615.07c.625-.63 1.32-.91 2.224-.91.834 0 1.598.28 2.224.91.625.632.903 1.333.903 2.174 0 .84-.278 1.612-.903 2.173-.626.63-1.321.91-2.224.91-.834 0-1.599-.28-2.224-.91-.626-.561-.904-1.332-.904-2.173s.347-1.542.904-2.173zm.278 4.136a2.553 2.553 0 001.876.771c.765 0 1.39-.28 1.877-.77.486-.561.764-1.192.764-1.963 0-.771-.278-1.402-.764-1.963a2.557 2.557 0 00-1.877-.77c-.764 0-1.39.28-1.876.77-.487.56-.765 1.192-.765 1.963 0 .84.278 1.472.765 1.962zm8.34 1.052h-.417l.695-6.169 2.572 5.538 2.571-5.538.696 6.169h-.417l-.557-4.767-2.293 4.977-2.363-4.977-.487 4.767zm10.565-2.804h-.765v2.804h-.417V22.36h1.182c.486 0 .903.14 1.251.42.347.28.486.631.486 1.122 0 .49-.139.911-.486 1.191-.348.28-.765.421-1.251.421zm-.765-2.804v2.454h.765c.417 0 .695-.14.973-.35.208-.211.347-.492.347-.912 0-.35-.139-.701-.347-.911-.209-.21-.556-.35-.973-.35l-.765.07zm9.175 5.608l-.765-1.963h-2.502l-.764 1.963h-.417l2.502-6.169 2.432 6.169h-.486zm-3.128-2.313h2.224l-1.112-2.804-1.112 2.804zm6.673 2.313h-.417V22.29l5.004 5.257V22.36h.417v6.098l-4.935-5.257-.069 5.117zm9.591 0v-2.594l-1.946-3.434h.417l1.738 3.014 1.737-3.014h.417l-2.015 3.434v2.594h-.348z" fill="#fff"/></symbol><symbol fill="none" viewBox="0 0 160 30" id="logo-footer" xmlns="http://www.w3.org/2000/svg"><path d="M37.324 16.472a7.859 7.859 0 00-5.56-2.313c-.904 0-1.738.14-2.572.42-.348-.21-.625-.42-.973-.56.625-.35 1.251-.771 1.738-1.332A7.46 7.46 0 0032.11 7.43c0-2.033-.764-3.855-2.154-5.257A7.334 7.334 0 0024.744 0H5.977v1.682h3.267v6.309H5.977v1.682h3.267v4.626a8.486 8.486 0 00-1.39-.14c-2.085 0-4.1.841-5.56 2.313A7.994 7.994 0 000 22.079c0 2.103.834 4.136 2.294 5.608A7.859 7.859 0 007.854 30h16.82c1.251 0 2.502-.28 3.545-.841 1.043.56 2.294.841 3.475.841a7.857 7.857 0 005.56-2.313 7.994 7.994 0 002.294-5.608 8.051 8.051 0 00-2.224-5.607zM9.244 28.388h-1.39c-3.406 0-6.255-2.804-6.255-6.309 0-3.504 2.78-6.308 6.255-6.308.487 0 .904.07 1.39.14v12.477zm1.599-26.776h6.394v6.379h-6.394V1.612zm6.464 26.776h-6.464V16.612c.208.14.486.28.695.42l5.769 4.206v7.15zM12.51 15.7a5.185 5.185 0 00-.834-.49l-.834-.421V9.673h6.394v9.533L12.511 15.7zm12.163 12.687h-5.769V22.5l7.646 5.608c-.556.21-1.182.28-1.877.28zm3.614-1.052c-.07-.07-.139-.07-.208-.14l-9.105-6.729V9.673h3.058V7.99h-3.128V1.612h5.77c3.196 0 5.768 2.594 5.768 5.818 0 3.224-2.572 5.818-5.769 5.818h-2.641v1.682h2.641c3.684 0 6.673 3.014 6.673 6.729 0 2.383-1.182 4.486-3.059 5.677zm3.476 1.052c-.626 0-1.182-.07-1.807-.28.208-.14.417-.351.625-.561 1.599-1.612 2.433-3.715 2.433-5.958a8.33 8.33 0 00-2.294-5.748c.348-.07.695-.07.973-.07 3.406 0 6.256 2.804 6.256 6.308 0 3.505-2.78 6.309-6.186 6.309zm16.68-25.234h3.893c.348 0 .626.07.904.14s.556.21.834.42c.347.281.625.562.764.982.209.35.278.771.278 1.192v.14c0 .56-.139 1.051-.417 1.472-.278.49-.695.771-1.181.981.625.14 1.181.491 1.529.982.347.49.556 1.121.556 1.682v.42c-.07.421-.14.912-.348 1.332-.208.42-.486.771-.903 1.052-.278.14-.556.28-.834.35a4.07 4.07 0 01-.973.14h-4.17l.069-11.285zm1.738 4.767h1.182c.487 0 .904-.14 1.251-.35.417-.211.556-.562.626-1.122v-.14c0-.702-.209-1.192-.695-1.332-.487-.21-.974-.28-1.599-.28h-.765V7.92zm.209 5.046h1.043c.556 0 1.112-.14 1.598-.35.487-.21.695-.701.695-1.402v-.07c0-.701-.208-1.192-.695-1.402-.486-.21-.973-.35-1.529-.35h-1.251v3.644c0-.07.07-.07.139-.07zm7.507-9.813h6.255v1.612h-4.448V7.57h4.448v1.612h-4.448v3.645h4.448v1.682h-6.256V3.154zm15.151 8.411H68.6l-1.32 2.944h-1.947l5.422-11.775 5.421 11.775H74.23l-1.181-2.944zM70.686 6.8c-.07.21-.139.42-.278.63l-1.181 2.594h3.127l-1.18-2.594c-.07-.14-.14-.35-.209-.49a1.33 1.33 0 01-.139-.562c0-.07 0-.07-.07-.14 0-.07 0-.07-.069-.14.14.28.07.49 0 .701zm9.175-3.645v6.94c0 .91.209 1.682.626 2.242.417.561 1.181.842 2.154.842.973 0 1.668-.28 2.155-.842.486-.56.695-1.331.695-2.242v-6.87h1.807v7.08c0 1.542-.417 2.663-1.182 3.434-.764.771-1.946 1.122-3.475 1.122-1.529 0-2.71-.35-3.475-1.122-.765-.77-1.182-1.892-1.182-3.364v-7.15l1.877-.07zm13.97 11.355h-1.876V4.766h-2.989V3.154h7.785v1.612h-2.99v9.743h.07zm7.09-5.187l-3.753-6.168h1.946l2.363 3.855c.069.07.069.14.139.21.069.07.069.14.139.21 0 0 0 .071.069.071 0 0 .001.07.07.07 0 .07.07.07.07.14s.069.07.069.14c.07-.14.139-.35.209-.49.069-.14.139-.28.278-.49l2.432-3.786h1.807l-3.822 6.168v5.187h-1.808l-.208-5.117zm12.65 5.187V2.804h5.769v.981h-4.657V7.43h4.518v.981h-4.518v6.028l-1.112.07zm12.928.28c-1.112 0-2.085-.21-3.059-.7a5.563 5.563 0 01-2.293-2.103c-.556-.911-.834-2.033-.834-3.365 0-1.191.278-2.313.903-3.224.626-.911 1.39-1.612 2.363-2.103.974-.49 2.016-.77 3.059-.77.903 0 1.737.14 2.502.49.764.35 1.39.771 1.946 1.332.556.56.973 1.191 1.251 1.962.278.771.487 1.613.487 2.454 0 1.191-.278 2.313-.834 3.224-.556.911-1.321 1.682-2.294 2.173-.973.42-2.016.63-3.197.63zm0-.91c.973 0 1.807-.21 2.571-.701.765-.421 1.39-1.052 1.877-1.893.487-.771.695-1.682.695-2.664 0-.84-.208-1.682-.556-2.453-.417-.84-.973-1.472-1.738-2.032-.764-.561-1.668-.772-2.78-.772-.764 0-1.529.21-2.363.561-.834.42-1.46.982-2.016 1.753-.556.77-.764 1.752-.764 2.873 0 .912.208 1.823.625 2.594.417.77 1.043 1.402 1.808 1.892.834.631 1.668.841 2.641.841zm15.152.63h-1.321l-4.101-5.607h-.625v5.607h-1.043V2.804h2.155c2.502 0 3.753 1.051 3.753 3.224 0 1.051-.278 1.752-.903 2.243-.626.42-1.321.701-2.086.771l4.171 5.467zm-5.213-6.448c.903 0 1.598-.14 2.085-.42.487-.281.765-.842.765-1.753 0-.841-.209-1.402-.695-1.752-.487-.351-1.182-.491-2.225-.491h-.834V7.99l.904.07zm12.372-4.556c-1.043 0-1.877.21-2.641.63-.765.421-1.321 1.052-1.738 1.823-.417.771-.626 1.682-.626 2.734 0 1.612.487 2.873 1.39 3.785.904.91 2.086 1.402 3.545 1.402 1.321 0 2.572-.491 3.753-1.402v1.261c-.556.35-1.112.561-1.737.771-.626.21-1.321.28-2.016.28-.903 0-1.876-.14-2.78-.49-.904-.35-1.668-.981-2.363-1.893-.626-.91-.973-2.102-.973-3.644 0-1.122.208-2.173.625-3.084.417-.912 1.112-1.683 2.016-2.243.904-.561 2.085-.842 3.545-.842 1.32 0 2.571.421 3.753 1.262l-.07 1.192c-.417-.35-.973-.701-1.529-1.052-.556-.35-1.251-.49-2.154-.49zm5.421 11.004V2.804H160v.981h-4.657V7.43H160v.981h-4.657v5.047H160v.981l-5.769.07zM53.727 23.061v.49c-.278-.28-.556-.56-.903-.7-.348-.14-.695-.28-1.112-.28-.765 0-1.39.28-1.877.77-.487.56-.765 1.192-.765 1.963 0 .42.07.84.278 1.191.14.35.348.631.626.841.278.21.556.421.834.491.278.14.626.21.904.21.347 0 .695-.07 1.042-.21.348-.14.695-.35.973-.7v.49c-.486.56-1.181.77-1.876.77-.904 0-1.599-.28-2.225-.91-.625-.631-.903-1.332-.903-2.173s.278-1.612.903-2.173c.626-.56 1.321-.911 2.155-.911.765.07 1.39.28 1.946.84zm3.614.07c.626-.631 1.321-.911 2.225-.911.834 0 1.598.28 2.224.91.625.632.903 1.333.903 2.174 0 .84-.278 1.612-.903 2.173-.626.63-1.32.91-2.224.91-.835 0-1.599-.28-2.225-.91-.625-.561-.903-1.332-.903-2.173s.347-1.542.903-2.173zm.279 4.135a2.551 2.551 0 001.876.771c.765 0 1.39-.28 1.877-.77.486-.561.764-1.192.764-1.963 0-.771-.278-1.402-.764-1.963a2.556 2.556 0 00-1.877-.77c-.765 0-1.39.28-1.877.77-.486.56-.764 1.192-.764 1.963 0 .84.278 1.472.765 1.962zm11.05-4.135l-.277.21c-.278-.49-.626-.77-1.182-.77-.347 0-.625.14-.834.35-.209.21-.278.49-.278.77 0 .14 0 .281.07.421.069.14.139.21.208.28.14.07.209.14.278.21.07.07.209.141.417.211.626.28 1.043.49 1.182.63.417.281.625.702.625 1.192 0 .491-.208.912-.556 1.262-.347.35-.764.49-1.32.49s-1.043-.21-1.39-.63l-.418-.63.348-.141c.07.21.208.42.347.56.278.351.626.491 1.113.491.417 0 .764-.14 1.042-.42.278-.28.417-.56.417-.982 0-.42-.208-.7-.556-.91-.139-.07-.486-.281-1.112-.561-.278-.14-.486-.28-.626-.35a.716.716 0 01-.347-.422 1.191 1.191 0 01-.209-.7c0-.421.14-.701.418-1.052.278-.35.625-.42 1.112-.42.278 0 .556.07.834.21.347.21.556.42.695.7zm3.615 5.187h-.417l.695-6.169 2.572 5.538 2.571-5.538.695 6.169h-.347l-.556-4.767-2.363 4.977-2.364-4.977-.486 4.767zm12.302-5.958v.35h-2.432v2.173h2.432v.35h-2.432v2.734h2.432v.35h-2.85V22.36h2.85zm5.839.35h-1.53v5.608h-.416V22.71h-1.53v-.35h3.476v.35zm2.64-.35h.418v5.958h-.417V22.36zm8.55.7v.491c-.278-.28-.556-.56-.904-.7-.347-.14-.695-.28-1.112-.28-.764 0-1.39.28-1.876.77-.487.56-.765 1.192-.765 1.963 0 .42.07.84.278 1.191.14.35.348.631.626.841.278.21.556.421.834.491.278.14.625.21.903.21.348 0 .695-.07 1.043-.21.347-.14.695-.35.973-.7v.49c-.556.49-1.251.77-1.946.77-.904 0-1.599-.28-2.224-.91-.626-.631-.904-1.332-.904-2.173s.278-1.612.904-2.173c.625-.631 1.32-.911 2.154-.911.765.07 1.46.28 2.016.84zm11.607 0v.491c-.278-.28-.556-.56-.903-.7-.348-.14-.695-.28-1.112-.28-.765 0-1.39.28-1.877.77-.487.56-.765 1.192-.765 1.963 0 .42.07.84.278 1.191.139.35.348.631.626.841.278.21.556.421.834.491.278.14.626.21.904.21.347 0 .695-.07 1.042-.21.348-.14.695-.35.973-.7v.49c-.556.49-1.251.77-1.946.77-.903 0-1.598-.28-2.224-.91-.626-.631-.904-1.332-.904-2.173s.278-1.612.904-2.173c.626-.631 1.321-.911 2.155-.911.834.07 1.459.28 2.015.84zm3.615.07c.625-.63 1.32-.91 2.224-.91.834 0 1.598.28 2.224.91.625.632.903 1.333.903 2.174 0 .84-.278 1.612-.903 2.173-.626.63-1.321.91-2.224.91-.834 0-1.599-.28-2.224-.91-.626-.561-.904-1.332-.904-2.173s.347-1.542.904-2.173zm.278 4.136a2.553 2.553 0 001.876.771c.765 0 1.39-.28 1.877-.77.486-.561.764-1.192.764-1.963 0-.771-.278-1.402-.764-1.963a2.557 2.557 0 00-1.877-.77c-.764 0-1.39.28-1.876.77-.487.56-.765 1.192-.765 1.963 0 .84.278 1.472.765 1.962zm8.34 1.052h-.417l.695-6.169 2.572 5.538 2.571-5.538.696 6.169h-.417l-.557-4.767-2.293 4.977-2.363-4.977-.487 4.767zm10.565-2.804h-.765v2.804h-.417V22.36h1.182c.486 0 .903.14 1.251.42.347.28.486.631.486 1.122 0 .49-.139.911-.486 1.191-.348.28-.765.421-1.251.421zm-.765-2.804v2.454h.765c.417 0 .695-.14.973-.35.208-.211.347-.492.347-.912 0-.35-.139-.701-.347-.911-.209-.21-.556-.35-.973-.35l-.765.07zm9.175 5.608l-.765-1.963h-2.502l-.764 1.963h-.417l2.502-6.169 2.432 6.169h-.486zm-3.128-2.313h2.224l-1.112-2.804-1.112 2.804zm6.673 2.313h-.417V22.29l5.004 5.257V22.36h.417v6.098l-4.935-5.257-.069 5.117zm9.591 0v-2.594l-1.946-3.434h.417l1.738 3.014 1.737-3.014h.417l-2.015 3.434v2.594h-.348z" fill="#1F1A3D"/></symbol><symbol fill="none" viewBox="0 0 160 30" id="logo-footer-white" xmlns="http://www.w3.org/2000/svg"><path d="M37.324 16.472a7.859 7.859 0 00-5.56-2.313c-.904 0-1.738.14-2.572.42-.348-.21-.625-.42-.973-.56.625-.35 1.251-.771 1.738-1.332A7.46 7.46 0 0032.11 7.43c0-2.033-.764-3.855-2.154-5.257A7.334 7.334 0 0024.744 0H5.977v1.682h3.267v6.309H5.977v1.682h3.267v4.626a8.486 8.486 0 00-1.39-.14c-2.085 0-4.1.841-5.56 2.313A7.994 7.994 0 000 22.079c0 2.103.834 4.136 2.294 5.608A7.859 7.859 0 007.854 30h16.82c1.251 0 2.502-.28 3.545-.841 1.043.56 2.294.841 3.475.841a7.857 7.857 0 005.56-2.313 7.994 7.994 0 002.294-5.608 8.051 8.051 0 00-2.224-5.607zM9.244 28.388h-1.39c-3.406 0-6.255-2.804-6.255-6.309 0-3.504 2.78-6.308 6.255-6.308.487 0 .904.07 1.39.14v12.477zm1.599-26.776h6.394v6.379h-6.394V1.612zm6.464 26.776h-6.464V16.612c.208.14.486.28.695.42l5.769 4.206v7.15zM12.51 15.7a5.185 5.185 0 00-.834-.49l-.834-.421V9.673h6.394v9.533L12.511 15.7zm12.163 12.687h-5.769V22.5l7.646 5.608c-.556.21-1.182.28-1.877.28zm3.614-1.052c-.07-.07-.139-.07-.208-.14l-9.105-6.729V9.673h3.058V7.99h-3.128V1.612h5.77c3.196 0 5.768 2.594 5.768 5.818 0 3.224-2.572 5.818-5.769 5.818h-2.641v1.682h2.641c3.684 0 6.673 3.014 6.673 6.729 0 2.383-1.182 4.486-3.059 5.677zm3.476 1.052c-.626 0-1.182-.07-1.807-.28.208-.14.417-.351.625-.561 1.599-1.612 2.433-3.715 2.433-5.958a8.33 8.33 0 00-2.294-5.748c.348-.07.695-.07.973-.07 3.406 0 6.256 2.804 6.256 6.308 0 3.505-2.78 6.309-6.186 6.309zm16.68-25.234h3.893c.348 0 .626.07.904.14s.556.21.834.42c.347.281.625.562.764.982.209.35.278.771.278 1.192v.14c0 .56-.139 1.051-.417 1.472-.278.49-.695.771-1.181.981.625.14 1.181.491 1.529.982.347.49.556 1.121.556 1.682v.42c-.07.421-.14.912-.348 1.332-.208.42-.486.771-.903 1.052-.278.14-.556.28-.834.35a4.07 4.07 0 01-.973.14h-4.17l.069-11.285zm1.738 4.767h1.182c.487 0 .904-.14 1.251-.35.417-.211.556-.562.626-1.122v-.14c0-.702-.209-1.192-.695-1.332-.487-.21-.974-.28-1.599-.28h-.765V7.92zm.209 5.046h1.043c.556 0 1.112-.14 1.598-.35.487-.21.695-.701.695-1.402v-.07c0-.701-.208-1.192-.695-1.402-.486-.21-.973-.35-1.529-.35h-1.251v3.644c0-.07.07-.07.139-.07zm7.507-9.813h6.255v1.612h-4.448V7.57h4.448v1.612h-4.448v3.645h4.448v1.682h-6.256V3.154zm15.151 8.411H68.6l-1.32 2.944h-1.947l5.422-11.775 5.421 11.775H74.23l-1.181-2.944zM70.686 6.8c-.07.21-.139.42-.278.63l-1.181 2.594h3.127l-1.18-2.594c-.07-.14-.14-.35-.209-.49a1.33 1.33 0 01-.139-.562c0-.07 0-.07-.07-.14 0-.07 0-.07-.069-.14.14.28.07.49 0 .701zm9.175-3.645v6.94c0 .91.209 1.682.626 2.242.417.561 1.181.842 2.154.842.973 0 1.668-.28 2.155-.842.486-.56.695-1.331.695-2.242v-6.87h1.807v7.08c0 1.542-.417 2.663-1.182 3.434-.764.771-1.946 1.122-3.475 1.122-1.529 0-2.71-.35-3.475-1.122-.765-.77-1.182-1.892-1.182-3.364v-7.15l1.877-.07zm13.97 11.355h-1.876V4.766h-2.989V3.154h7.785v1.612h-2.99v9.743h.07zm7.09-5.187l-3.753-6.168h1.946l2.363 3.855c.069.07.069.14.139.21.069.07.069.14.139.21 0 0 0 .071.069.071 0 0 .001.07.07.07 0 .07.07.07.07.14s.069.07.069.14c.07-.14.139-.35.209-.49.069-.14.139-.28.278-.49l2.432-3.786h1.807l-3.822 6.168v5.187h-1.808l-.208-5.117zm12.65 5.187V2.804h5.769v.981h-4.657V7.43h4.518v.981h-4.518v6.028l-1.112.07zm12.928.28c-1.112 0-2.085-.21-3.059-.7a5.563 5.563 0 01-2.293-2.103c-.556-.911-.834-2.033-.834-3.365 0-1.191.278-2.313.903-3.224.626-.911 1.39-1.612 2.363-2.103.974-.49 2.016-.77 3.059-.77.903 0 1.737.14 2.502.49.764.35 1.39.771 1.946 1.332.556.56.973 1.191 1.251 1.962.278.771.487 1.613.487 2.454 0 1.191-.278 2.313-.834 3.224-.556.911-1.321 1.682-2.294 2.173-.973.42-2.016.63-3.197.63zm0-.91c.973 0 1.807-.21 2.571-.701.765-.421 1.39-1.052 1.877-1.893.487-.771.695-1.682.695-2.664 0-.84-.208-1.682-.556-2.453-.417-.84-.973-1.472-1.738-2.032-.764-.561-1.668-.772-2.78-.772-.764 0-1.529.21-2.363.561-.834.42-1.46.982-2.016 1.753-.556.77-.764 1.752-.764 2.873 0 .912.208 1.823.625 2.594.417.77 1.043 1.402 1.808 1.892.834.631 1.668.841 2.641.841zm15.152.63h-1.321l-4.101-5.607h-.625v5.607h-1.043V2.804h2.155c2.502 0 3.753 1.051 3.753 3.224 0 1.051-.278 1.752-.903 2.243-.626.42-1.321.701-2.086.771l4.171 5.467zm-5.213-6.448c.903 0 1.598-.14 2.085-.42.487-.281.765-.842.765-1.753 0-.841-.209-1.402-.695-1.752-.487-.351-1.182-.491-2.225-.491h-.834V7.99l.904.07zm12.372-4.556c-1.043 0-1.877.21-2.641.63-.765.421-1.321 1.052-1.738 1.823-.417.771-.626 1.682-.626 2.734 0 1.612.487 2.873 1.39 3.785.904.91 2.086 1.402 3.545 1.402 1.321 0 2.572-.491 3.753-1.402v1.261c-.556.35-1.112.561-1.737.771-.626.21-1.321.28-2.016.28-.903 0-1.876-.14-2.78-.49-.904-.35-1.668-.981-2.363-1.893-.626-.91-.973-2.102-.973-3.644 0-1.122.208-2.173.625-3.084.417-.912 1.112-1.683 2.016-2.243.904-.561 2.085-.842 3.545-.842 1.32 0 2.571.421 3.753 1.262l-.07 1.192c-.417-.35-.973-.701-1.529-1.052-.556-.35-1.251-.49-2.154-.49zm5.421 11.004V2.804H160v.981h-4.657V7.43H160v.981h-4.657v5.047H160v.981l-5.769.07zM53.727 23.061v.49c-.278-.28-.556-.56-.903-.7-.348-.14-.695-.28-1.112-.28-.765 0-1.39.28-1.877.77-.487.56-.765 1.192-.765 1.963 0 .42.07.84.278 1.191.14.35.348.631.626.841.278.21.556.421.834.491.278.14.626.21.904.21.347 0 .695-.07 1.042-.21.348-.14.695-.35.973-.7v.49c-.486.56-1.181.77-1.876.77-.904 0-1.599-.28-2.225-.91-.625-.631-.903-1.332-.903-2.173s.278-1.612.903-2.173c.626-.56 1.321-.911 2.155-.911.765.07 1.39.28 1.946.84zm3.614.07c.626-.631 1.321-.911 2.225-.911.834 0 1.598.28 2.224.91.625.632.903 1.333.903 2.174 0 .84-.278 1.612-.903 2.173-.626.63-1.32.91-2.224.91-.835 0-1.599-.28-2.225-.91-.625-.561-.903-1.332-.903-2.173s.347-1.542.903-2.173zm.279 4.135a2.551 2.551 0 001.876.771c.765 0 1.39-.28 1.877-.77.486-.561.764-1.192.764-1.963 0-.771-.278-1.402-.764-1.963a2.556 2.556 0 00-1.877-.77c-.765 0-1.39.28-1.877.77-.486.56-.764 1.192-.764 1.963 0 .84.278 1.472.765 1.962zm11.05-4.135l-.277.21c-.278-.49-.626-.77-1.182-.77-.347 0-.625.14-.834.35-.209.21-.278.49-.278.77 0 .14 0 .281.07.421.069.14.139.21.208.28.14.07.209.14.278.21.07.07.209.141.417.211.626.28 1.043.49 1.182.63.417.281.625.702.625 1.192 0 .491-.208.912-.556 1.262-.347.35-.764.49-1.32.49s-1.043-.21-1.39-.63l-.418-.63.348-.141c.07.21.208.42.347.56.278.351.626.491 1.113.491.417 0 .764-.14 1.042-.42.278-.28.417-.56.417-.982 0-.42-.208-.7-.556-.91-.139-.07-.486-.281-1.112-.561-.278-.14-.486-.28-.626-.35a.716.716 0 01-.347-.422 1.191 1.191 0 01-.209-.7c0-.421.14-.701.418-1.052.278-.35.625-.42 1.112-.42.278 0 .556.07.834.21.347.21.556.42.695.7zm3.615 5.187h-.417l.695-6.169 2.572 5.538 2.571-5.538.695 6.169h-.347l-.556-4.767-2.363 4.977-2.364-4.977-.486 4.767zm12.302-5.958v.35h-2.432v2.173h2.432v.35h-2.432v2.734h2.432v.35h-2.85V22.36h2.85zm5.839.35h-1.53v5.608h-.416V22.71h-1.53v-.35h3.476v.35zm2.64-.35h.418v5.958h-.417V22.36zm8.55.7v.491c-.278-.28-.556-.56-.904-.7-.347-.14-.695-.28-1.112-.28-.764 0-1.39.28-1.876.77-.487.56-.765 1.192-.765 1.963 0 .42.07.84.278 1.191.14.35.348.631.626.841.278.21.556.421.834.491.278.14.625.21.903.21.348 0 .695-.07 1.043-.21.347-.14.695-.35.973-.7v.49c-.556.49-1.251.77-1.946.77-.904 0-1.599-.28-2.224-.91-.626-.631-.904-1.332-.904-2.173s.278-1.612.904-2.173c.625-.631 1.32-.911 2.154-.911.765.07 1.46.28 2.016.84zm11.607 0v.491c-.278-.28-.556-.56-.903-.7-.348-.14-.695-.28-1.112-.28-.765 0-1.39.28-1.877.77-.487.56-.765 1.192-.765 1.963 0 .42.07.84.278 1.191.139.35.348.631.626.841.278.21.556.421.834.491.278.14.626.21.904.21.347 0 .695-.07 1.042-.21.348-.14.695-.35.973-.7v.49c-.556.49-1.251.77-1.946.77-.903 0-1.598-.28-2.224-.91-.626-.631-.904-1.332-.904-2.173s.278-1.612.904-2.173c.626-.631 1.321-.911 2.155-.911.834.07 1.459.28 2.015.84zm3.615.07c.625-.63 1.32-.91 2.224-.91.834 0 1.598.28 2.224.91.625.632.903 1.333.903 2.174 0 .84-.278 1.612-.903 2.173-.626.63-1.321.91-2.224.91-.834 0-1.599-.28-2.224-.91-.626-.561-.904-1.332-.904-2.173s.347-1.542.904-2.173zm.278 4.136a2.553 2.553 0 001.876.771c.765 0 1.39-.28 1.877-.77.486-.561.764-1.192.764-1.963 0-.771-.278-1.402-.764-1.963a2.557 2.557 0 00-1.877-.77c-.764 0-1.39.28-1.876.77-.487.56-.765 1.192-.765 1.963 0 .84.278 1.472.765 1.962zm8.34 1.052h-.417l.695-6.169 2.572 5.538 2.571-5.538.696 6.169h-.417l-.557-4.767-2.293 4.977-2.363-4.977-.487 4.767zm10.565-2.804h-.765v2.804h-.417V22.36h1.182c.486 0 .903.14 1.251.42.347.28.486.631.486 1.122 0 .49-.139.911-.486 1.191-.348.28-.765.421-1.251.421zm-.765-2.804v2.454h.765c.417 0 .695-.14.973-.35.208-.211.347-.492.347-.912 0-.35-.139-.701-.347-.911-.209-.21-.556-.35-.973-.35l-.765.07zm9.175 5.608l-.765-1.963h-2.502l-.764 1.963h-.417l2.502-6.169 2.432 6.169h-.486zm-3.128-2.313h2.224l-1.112-2.804-1.112 2.804zm6.673 2.313h-.417V22.29l5.004 5.257V22.36h.417v6.098l-4.935-5.257-.069 5.117zm9.591 0v-2.594l-1.946-3.434h.417l1.738 3.014 1.737-3.014h.417l-2.015 3.434v2.594h-.348z" fill="#fff"/></symbol><symbol viewBox="0 0 32 70" id="makeup" xmlns="http://www.w3.org/2000/svg"><path d="M1.999 28v38.5a3.5 3.5 0 003.5 3.5h21a3.5 3.5 0 003.5-3.5V28c.644 0 1.166-.522 1.166-1.167v-7c0-.644-.522-1.166-1.166-1.166h-4.667v-3.5c0-.645-.522-1.167-1.167-1.167H23v-3.5c0-.644-.523-1.167-1.167-1.167h-1.167V1.167A1.167 1.167 0 0019.5 0h-9.334C9.521 0 9 .522 9 1.167v4.666A1.164 1.164 0 0010.165 7h3.5v2.333h-3.5C9.521 9.333 9 9.856 9 10.5V14H7.832c-.644 0-1.167.522-1.167 1.167v3.5H2c-.645 0-1.167.522-1.167 1.166v7C.833 27.478 1.355 28 2 28zm25.666 38.5c0 .644-.522 1.167-1.166 1.167h-21A1.167 1.167 0 014.332 66.5V28h23.333v38.5zM14.832 4.667h-3.5V2.333h7v7h-2.333v-3.5c0-.644-.523-1.166-1.167-1.166zm-3.5 7h9.333V14h-9.333v-2.333zm-2.333 4.666h14v2.334h-14v-2.334zM3.165 21h25.667v4.667H3.165V21z"/></symbol><symbol fill="none" viewBox="0 0 70 70" id="marketing-icon-01" xmlns="http://www.w3.org/2000/svg"><circle cx="47.5" cy="22.5" r="22" stroke="#B4B2BB"/><circle cx="22.5" cy="47.5" r="22.5" fill="#B4B2BB"/></symbol><symbol fill="none" viewBox="0 0 70 70" id="marketing-icon-02" xmlns="http://www.w3.org/2000/svg"><circle cx="35" cy="35" r="34.5" stroke="#B4B2BB"/></symbol><symbol fill="none" viewBox="0 0 70 70" id="marketing-icon-03" xmlns="http://www.w3.org/2000/svg"><circle cx="20" cy="50" r="19.5" stroke="#B4B2BB"/><circle cx="50" cy="20" r="20" fill="#B4B2BB"/><circle cx="20" cy="20" r="19.5" stroke="#8F8C9E"/><circle cx="50" cy="50" r="19.5" stroke="#8F8C9E"/></symbol><symbol fill="none" viewBox="0 0 70 70" id="marketing-icon-04" xmlns="http://www.w3.org/2000/svg"><circle cx="35" cy="35" r="34.5" stroke="#B4B2BB"/><circle cx="35" cy="35" r="15" fill="#B4B2BB"/></symbol><symbol fill="none" viewBox="0 0 70 71" id="marketing-icon-05" xmlns="http://www.w3.org/2000/svg"><mask id="ata" fill="#fff"><path d="M0 35A35 35 0 1035 0v35H0z"/></mask><path d="M0 35A35 35 0 1035 0v35H0z" stroke="#B4B2BB" stroke-width="2" mask="url(#ata)"/><path d="M35 0A35 35 0 000 35h35V0z" fill="#B4B2BB"/></symbol><symbol fill="none" viewBox="0 0 70 70" id="marketing-icon-06" xmlns="http://www.w3.org/2000/svg"><circle cx="47.5" cy="47.5" r="22" stroke="#8F8C9E"/><circle cx="47.5" cy="22.5" r="22.5" fill="#B4B2BB"/><circle cx="22.5" cy="22.5" r="22" stroke="#8F8C9E"/></symbol><symbol fill="none" viewBox="0 0 9 13" id="ok" xmlns="http://www.w3.org/2000/svg"><path d="M4.697.5c-1.654 0-3 1.345-3 3 0 1.654 1.346 3 3 3 1.655 0 3-1.346 3-3 0-1.655-1.345-3-3-3zm0 4.5c-.827 0-1.5-.673-1.5-1.5S3.87 2 4.697 2s1.5.673 1.5 1.5S5.524 5 4.697 5z" fill="#1F1A3D"/><path d="M8.676 6.423a.75.75 0 00-1.06 0 4.13 4.13 0 01-5.835 0A.75.75 0 10.72 7.484a5.59 5.59 0 003.335 1.604l-2.139 2.138a.75.75 0 101.06 1.06l1.72-1.72 1.72 1.72a.748.748 0 001.06 0 .75.75 0 000-1.06L5.34 9.088a5.59 5.59 0 003.335-1.604.75.75 0 000-1.06z" fill="#1F1A3D"/></symbol><symbol fill="none" viewBox="0 0 151 33" id="ozon" xmlns="http://www.w3.org/2000/svg"><path d="M17.575 25.245c-5.718.713-10.56-4.11-9.85-9.857.5-3.9 3.63-7.088 7.513-7.591 5.718-.755 10.56 4.11 9.85 9.856-.5 3.9-3.63 7.089-7.513 7.592zm.46-25.166C7.683-.927-.958 7.797.085 18.241c.752 7.717 6.971 13.924 14.652 14.68 10.394 1.006 19.034-7.676 17.99-18.12C31.978 7.084 25.758.834 18.036.08zm75.469 25.082c-8.014.713-14.777-4.11-13.775-9.857.71-3.9 5.093-7.088 10.52-7.591 8.014-.755 14.776 4.11 13.774 9.856-.71 3.901-5.093 7.089-10.519 7.592zM94.13.079C79.646-.927 67.54 7.797 69.002 18.241c1.043 7.717 9.767 13.924 20.537 14.68 14.567 1.006 26.672-7.676 25.211-18.12C113.665 7.084 104.941.834 94.13.08zm-52.595.925c-2.38 0-4.258 2.181-3.757 4.656.376 1.803 2.045 3.062 3.882 3.062h10.686L35.775 30.784c-.543.713-.042 1.761.876 1.761l26.088-.041c1.837 0 3.549-1.259 3.883-3.062.5-2.475-1.378-4.656-3.757-4.656l-13.024.042L66.413 2.766c.542-.714.041-1.762-.877-1.762H41.535m104.271.083c-1.795.378-3.005 2.055-3.005 3.859V17.78L122.097 1.296c-.71-.587-1.795-.042-1.795.88l.041 26.467c0 1.845 1.211 3.481 3.006 3.859 2.463.503 4.675-1.384 4.675-3.775V15.809l20.746 16.484c.709.587 1.795.042 1.795-.88l-.042-26.551a3.91 3.91 0 00-4.717-3.775z" fill="#fff"/></symbol><symbol fill="none" viewBox="0 0 12 11" id="telegram" xmlns="http://www.w3.org/2000/svg"><path d="M4.71 7.095l-.2 2.792c.284 0 .407-.122.555-.269l1.331-1.272 2.76 2.02c.505.282.862.134.998-.465l1.811-8.486c.161-.749-.27-1.041-.763-.858L.558 4.633c-.726.282-.715.687-.123.87l2.721.847 6.322-3.956c.297-.197.568-.088.345.11L4.71 7.093z" fill="#1F1A3D"/></symbol><symbol fill="none" viewBox="0 0 70 40" id="terms-01" xmlns="http://www.w3.org/2000/svg"><circle cx="20" cy="20" r="19.5" stroke="#B4B2BB"/><circle cx="50" cy="20" r="19.5" stroke="#B4B2BB"/></symbol><symbol fill="none" viewBox="0 0 70 41" id="terms-02" xmlns="http://www.w3.org/2000/svg"><path stroke="#B4B2BB" d="M0 20.5h50M0 .5h30m-30 40h70"/></symbol><symbol fill="none" viewBox="0 0 70 70" id="terms-03" xmlns="http://www.w3.org/2000/svg"><path d="M5 65L65 5" stroke="#B4B2BB"/><circle cx="55" cy="55" r="14.5" stroke="#8F8C9E"/><circle cx="15" cy="15" r="15" fill="#B4B2BB"/></symbol><symbol fill="none" viewBox="0 0 11 13" id="tiktok" xmlns="http://www.w3.org/2000/svg"><path d="M10.993 3.512a3.003 3.003 0 01-1.82-.61A3.032 3.032 0 017.972.508H6.02v5.354l-.003 2.932a1.773 1.773 0 01-1.868 1.77 1.775 1.775 0 01-1.671-1.743 1.771 1.771 0 012.326-1.71V5.122a3.825 3.825 0 00-.563-.042c-1.08 0-2.09.45-2.811 1.263A3.683 3.683 0 00.506 8.56a3.679 3.679 0 001.09 2.86 3.732 3.732 0 002.646 1.088 3.724 3.724 0 002.646-1.088 3.675 3.675 0 001.095-2.61l-.01-4.38A4.925 4.925 0 0011 5.463V3.512h-.006z" fill="#1F1A3D"/></symbol><symbol fill="none" viewBox="0 0 200 51" id="utkonos" xmlns="http://www.w3.org/2000/svg"><path fill-rule="evenodd" clip-rule="evenodd" d="M197.809 22.58c1.166 0 2.191-.985 2.191-2.198 0-1.196-1.025-2.146-2.191-2.146-1.202 0-2.209.95-2.209 2.146 0 1.213 1.007 2.198 2.209 2.198zm0-7.79A2.2 2.2 0 00200 12.591c0-1.197-1.025-2.164-2.191-2.164-1.202 0-2.209.967-2.209 2.163a2.193 2.193 0 002.209 2.198zm-68.185 1.723c0 2.796-1.944 4.906-4.807 4.906-2.864 0-4.808-2.11-4.808-4.906s1.944-4.924 4.808-4.924c2.863 0 4.807 2.128 4.807 4.924zm-14.015 0c0 5.24 3.905 9.127 9.208 9.127 5.302 0 9.208-3.904 9.208-9.127 0-5.24-3.942-9.145-9.208-9.145-5.303 0-9.208 3.904-9.208 9.145zm-5.408 8.494c.813.826 2.173.861 3.004.035.813-.791.901-2.163.089-2.99l-5.532-5.68 5.32-5.47c.794-.825.724-2.18-.089-2.953-.813-.827-2.174-.791-2.97.035l-5.495 5.627c-.478.493-.814.563-1.167.563-.548 0-1.008-.37-1.008-.932V9.478c0-1.178-.99-2.127-2.174-2.127-1.183 0-2.173.95-2.173 2.127v14.034c0 1.178.99 2.128 2.173 2.128 1.184 0 2.174-.95 2.174-2.128V19.52c0-.545.46-.914 1.008-.914.353 0 .689.07 1.167.562l5.673 5.839zm80.061-13.172c1.202 0 2.156-.932 2.156-2.11 0-1.143-.954-2.11-2.156-2.11h-3.287c-5.373 0-9.19 3.816-9.19 8.933s3.817 8.933 9.19 8.933h3.287c1.202 0 2.156-.932 2.156-2.11 0-1.143-.954-2.11-2.156-2.11h-3.411c-2.863 0-4.754-2.005-4.754-4.713s1.891-4.713 4.754-4.713h3.411zm-19.406 4.678c0 2.796-1.944 4.906-4.806 4.906-2.864 0-4.808-2.11-4.808-4.906s1.944-4.924 4.808-4.924c2.862 0 4.806 2.128 4.806 4.924zm-14.015 0c0 5.24 3.906 9.127 9.209 9.127 5.302 0 9.208-3.904 9.208-9.127 0-5.24-3.942-9.145-9.208-9.145-5.303 0-9.209 3.904-9.209 9.145zm-86.75.597l-5.1-8.687c-.584-.984-1.82-1.336-2.88-.861-1.08.615-1.414 1.916-.796 2.954l6.095 10.241c-.737.486-1.534.657-2.401.733-1.184.105-1.98.949-1.98 2.057 0 1.319 1.078 2.058 2.175 2.058 2.473 0 4.63-1.25 6.185-2.99 1.414-1.583 2.492-3.587 3.5-5.47l3.587-6.7c.548-1.037.213-2.391-.902-2.919-1.042-.492-2.314-.052-2.862.968L70.09 17.11zm15.35-5.293v11.695c0 1.195 1.006 2.128 2.208 2.128 1.22 0 2.209-.933 2.209-2.128V11.817h3.287c1.202 0 2.174-.95 2.174-2.145 0-1.16-.972-2.128-2.174-2.128h-11.01c-1.203 0-2.175.967-2.175 2.128 0 1.196.972 2.145 2.175 2.145h3.305zm52.049 11.695c.016 1.178 1.007 2.128 2.19 2.128 1.185 0 2.174-.95 2.174-2.128V18.64h7.158v4.872c0 1.178 1.007 2.128 2.191 2.128s2.175-.95 2.175-2.128V9.478c0-1.178-1.007-2.127-2.193-2.127-1.184 0-2.173.95-2.173 2.127v4.871h-7.176V9.48c0-1.179-.989-2.128-2.173-2.128-1.184 0-2.173.95-2.173 2.127v14.034z" fill="#fff"/><path d="M62.938 40.06l3.199-4.404c.139-.188.317-.336.574-.336.406 0 .565.276.565.611v5.588c0 .325-.178.601-.584.601-.416 0-.605-.276-.605-.601v-4.12l-3.219 4.376c-.128.168-.307.345-.554.345-.367 0-.565-.226-.565-.601v-5.588c0-.325.179-.61.594-.61.406 0 .595.285.595.61v4.13zm6.261.694c.446 0 .693.325.693.69 0 .374-.247.68-.693.68-.446 0-.683-.306-.683-.68 0-.365.237-.69.683-.69zm2.377 0c.446 0 .693.325.693.69 0 .374-.247.68-.693.68-.446 0-.683-.306-.683-.68 0-.365.237-.69.683-.69zm5.507-.694l3.2-4.404c.138-.188.316-.336.574-.336.406 0 .564.276.564.611v5.588c0 .325-.178.601-.584.601-.416 0-.604-.276-.604-.601v-4.12l-3.22 4.376c-.128.168-.306.345-.554.345-.366 0-.565-.226-.565-.601v-5.588c0-.325.179-.61.595-.61.406 0 .594.285.594.61v4.13zm6.56.694c.445 0 .693.325.693.69 0 .374-.248.68-.693.68-.446 0-.684-.306-.684-.68 0-.365.238-.69.684-.69zm2.674 0c.446 0 .693.325.693.69 0 .374-.247.68-.693.68-.446 0-.683-.306-.683-.68 0-.365.237-.69.683-.69zm7.863.411c1.347 0 2.011-1.074 2.011-2.444 0-1.36-.664-2.444-2.01-2.444-1.338 0-2.001 1.084-2.001 2.444 0 1.37.663 2.444 2 2.444zm0-5.942c2.15 0 3.259 1.547 3.259 3.498 0 1.961-1.11 3.499-3.258 3.499-2.15 0-3.25-1.538-3.25-3.499 0-1.951 1.1-3.498 3.25-3.498zm8.788 3.951h-3.15v2.345c0 .335-.208.601-.594.601-.396 0-.594-.266-.594-.601v-5.588c0-.335.198-.61.594-.61.386 0 .594.275.594.61v2.188h3.15V35.93c0-.335.198-.61.594-.61.387 0 .595.275.595.61v5.588c0 .335-.208.601-.595.601-.396 0-.594-.266-.594-.601v-2.345zm7.004-3.854c.396 0 .594.276.594.611v5.588c0 .335-.198.601-.594.601-.396 0-.595-.266-.595-.601v-5.144h-1.832c-.02 1.193-.099 3.025-.456 4.287-.227.808-.732 1.507-1.515 1.507-.574 0-.842-.344-.733-.768.079-.325.337-.355.575-.355.247 0 .485-.197.624-.66.257-.818.386-2.316.416-4.455.009-.374.218-.61.564-.61h2.952zm3.556 3.953h1.892l-.961-2.484-.931 2.484zm2.229.926h-2.546l-.515 1.39c-.119.345-.376.66-.812.483-.307-.128-.327-.473-.198-.809l2.229-5.557c.128-.336.327-.483.604-.483.307 0 .475.187.574.423l2.298 5.608c.119.295.079.69-.267.818-.377.138-.674-.04-.812-.414l-.555-1.459zm3.903-5.94c-.149-.197-.169-.443 0-.601.227-.217.455-.079.644.098.277.267.564.375.921.375.356 0 .634-.099.911-.364.188-.188.416-.306.644-.109.188.158.138.404-.01.601-.248.335-.793.63-1.545.63-.753 0-1.318-.295-1.565-.63zm.03 5.804l3.199-4.404c.138-.188.317-.336.574-.336.406 0 .565.276.565.611v5.588c0 .325-.179.601-.585.601-.416 0-.604-.276-.604-.6v-4.12l-3.219 4.375c-.129.168-.307.345-.554.345-.367 0-.565-.226-.565-.6v-5.589c0-.325.178-.61.594-.61.406 0 .595.285.595.61v4.13zm10.361-.889h-3.15v2.345c0 .335-.208.601-.595.601-.396 0-.594-.266-.594-.601v-5.588c0-.335.198-.61.594-.61.387 0 .595.275.595.61v2.188h3.15V35.93c0-.335.197-.61.593-.61.387 0 .594.275.594.61v5.588c0 .335-.207.601-.594.601-.396 0-.593-.266-.593-.601v-2.345z" fill="#fff"/><path fill-rule="evenodd" clip-rule="evenodd" d="M47.411 5.524c0-3.05-2.515-5.524-5.618-5.524H5.619C2.516 0 0 2.474 0 5.524v22.171C0 40.565 10.613 51 23.706 51 36.797 51 47.41 40.566 47.41 27.695c0-8.825.002-13.346 0-22.171z" fill="#fff"/><path fill-rule="evenodd" clip-rule="evenodd" d="M29.822 33.856c0-1.202-.996-2.172-2.204-2.172-1.21 0-2.205.97-2.205 2.172a2.21 2.21 0 002.205 2.193 2.21 2.21 0 002.204-2.193zm-7.822 0c0-1.202-.996-2.172-2.226-2.172-1.208 0-2.183.97-2.183 2.172 0 1.202.975 2.193 2.183 2.193 1.23 0 2.226-.99 2.226-2.193z" fill="#1F1A3D"/></symbol><symbol fill="none" viewBox="0 0 13 8" id="vk" xmlns="http://www.w3.org/2000/svg"><path d="M10.457 5.01c-.195-.245-.139-.354 0-.573.002-.002 1.603-2.215 1.768-2.966h.002c.082-.274 0-.475-.397-.475h-1.312c-.334 0-.488.173-.57.366 0 0-.668 1.599-1.613 2.635-.305.3-.446.396-.613.396-.082 0-.21-.096-.21-.37V1.471c0-.328-.093-.475-.37-.475H5.08c-.21 0-.334.153-.334.296 0 .31.472.382.521 1.257v1.899c0 .416-.075.492-.243.492-.446 0-1.528-1.605-2.17-3.443-.13-.356-.256-.5-.592-.5H.949c-.374 0-.45.172-.45.365 0 .341.446 2.037 2.074 4.277 1.085 1.529 2.613 2.357 4.003 2.357.836 0 .938-.184.938-.5 0-1.461-.076-1.6.343-1.6.194 0 .528.097 1.308.834.891.875 1.038 1.266 1.537 1.266h1.312c.373 0 .563-.184.454-.547-.25-.763-1.935-2.334-2.011-2.439z" fill="#1F1A3D"/></symbol><symbol fill="none" viewBox="0 0 200 24" id="wildberries" xmlns="http://www.w3.org/2000/svg"><path d="M6.083 23.414L0 .424h4L8.666 18.07l5-17.645h3.75l5.082 17.73 4.75-17.73h4l-6.083 22.99h-4.666L15.582 6.193l-4.916 17.22H6.083zM33.998.424h3.833v22.99h-3.834V.424zm11.915 19.342h9.25v3.563h-13V.424h3.75v19.342zM66.912.424c3.166 0 5.75 1.103 7.75 3.309 2.082 2.205 3.165 4.92 3.165 8.144 0 3.223-1.083 5.938-3.166 8.143-2.083 2.206-4.666 3.309-7.75 3.309h-8.915V.424h8.916zm0 19.427c2.166 0 3.916-.764 5.25-2.206 1.332-1.527 2.082-3.393 2.082-5.684 0-2.29-.666-4.156-2.083-5.683-1.333-1.527-3.083-2.206-5.25-2.206h-5.166v15.779h5.167zm31.08-3.054c0 1.866-.666 3.478-2 4.666-1.332 1.187-2.916 1.866-4.832 1.866h-9.833V.424h9.083c1.833 0 3.416.679 4.75 1.866 1.333 1.188 1.916 2.715 1.916 4.497 0 2.036-.75 3.563-2.333 4.665 2 1.103 3.25 2.97 3.25 5.345zM85.078 3.987v6.023h5.333c1.666 0 2.916-1.357 2.916-3.054 0-1.696-1.25-3.054-2.916-3.054h-5.333v.085zm6.083 15.864c1.75 0 3.083-1.442 3.083-3.224 0-1.781-1.333-3.223-3.083-3.223h-6v6.447h6zm14.082-.085h10.083v3.648h-13.833V.424h13.666v3.648h-9.916v5.938h9.083v3.563h-9.083v6.193zm26.415 3.648l-4.833-8.399h-4.416v8.399h-3.75V.424h9.082c2.084 0 3.75.679 5.167 2.206 1.416 1.442 2.166 3.139 2.166 5.26 0 2.884-1.833 5.598-4.499 6.616l5.166 8.908h-4.083zm-9.249-19.427v7.72h5.332c2 0 3.584-1.697 3.584-3.818 0-2.12-1.584-3.817-3.584-3.817.084-.085-5.332-.085-5.332-.085zm29.247 19.427l-4.833-8.399h-4.416v8.399h-3.75V.424h9.083c2.083 0 3.75.679 5.166 2.206 1.417 1.442 2.167 3.139 2.167 5.26 0 2.884-1.833 5.598-4.5 6.616l5.166 8.908h-4.083zm-9.249-19.427v7.72h5.333c2 0 3.583-1.697 3.583-3.818 0-2.12-1.583-3.817-3.583-3.817h-5.333v-.085zM158.488.424h3.75v22.99h-3.75V.424zm11.916 19.342h10.083v3.648h-13.833V.424h13.666v3.648h-9.916v5.938h9.083v3.563h-9.083v6.193zm12.666-1.612l3.249-1.866c.917 2.63 2.75 3.902 5.667 3.902 2.833 0 4.249-1.188 4.249-3.054 0-.933-.416-1.612-1.166-2.12-.75-.51-2.083-1.103-4.083-1.612-2.167-.68-3.25-1.103-4.75-2.121-1.5-1.103-2.166-2.545-2.166-4.666 0-2.036.75-3.648 2.166-4.836C187.653.594 189.402 0 191.402 0c3.667 0 6.5 1.951 7.916 5.09l-3.166 1.866c-.917-2.12-2.583-3.223-4.75-3.223-2.166 0-3.583 1.102-3.583 2.884 0 1.697 1.084 2.46 4.583 3.563.834.254 1.5.509 1.917.679.416.17 1 .339 1.666.678.75.255 1.334.679 1.667.933 1.25.934 2.5 2.545 2.333 4.751 0 2.036-.75 3.733-2.25 4.92-1.5 1.188-3.416 1.782-5.833 1.782-4.416-.085-7.582-2.206-8.832-5.769z" fill="#fff"/></symbol><symbol fill="none" viewBox="0 0 200 39" id="yandex-market" xmlns="http://www.w3.org/2000/svg"><path d="M12.259 2.933h-1.805c-2.783 0-5.415 1.805-5.415 7.145 0 5.114 2.482 6.769 5.415 6.769h1.805V2.933zM9.4 19.704L3.986 31.889H0l5.941-13.01c-2.782-1.43-4.662-4.062-4.662-8.8C1.279 3.309 5.49 0 10.529 0h5.114v31.813H12.26V19.705H9.4zm72.802.984c0-6.995 2.708-11.507 7.972-11.507 2.031 0 3.16.526 4.137 1.128l-.527 3.309c-.902-.827-2.256-1.58-3.685-1.58-2.482 0-4.287 2.783-4.287 8.424 0 5.565 1.354 8.8 4.137 8.8 1.654 0 3.008-.678 3.76-1.355l.828 2.558c-1.204 1.052-2.633 1.654-4.663 1.654-4.814.075-7.672-3.835-7.672-11.431zm-10.153 0v11.206h-3.46V9.405h3.46v10.379l5.415-10.379H81l-5.565 10.53 6.392 11.882h-3.76l-6.017-11.13zm-16.32-2.031h5.716c0-3.836-.602-6.618-2.632-6.618-2.106-.076-2.858 2.557-3.084 6.618zm3.836 13.537c-4.663 0-7.446-3.685-7.446-10.604 0-7.22 2.03-12.485 6.769-12.485 3.76 0 6.167 2.783 6.167 10.38v1.88h-9.401c0 5.038 1.429 7.746 4.212 7.746 1.955 0 3.534-.903 4.437-1.504l.827 2.632a8.778 8.778 0 01-5.565 1.955zm-14.741-19.93h-3.836v.376c0 4.738-.225 11.582-2.105 16.396h5.941V12.264zm5.19 23.992h-3.16v-4.363h-9.55v4.438H34.22v-7.22h1.353c2.031-4.738 2.257-11.657 2.257-17.674v-1.88h10.378V29.11h1.805v7.145zM32.188 9.406v22.412h-3.46V21.816H23.54v10.078h-3.46V9.405h3.46v9.476h5.19V9.406h3.46zm76.112-.002c-.451-1.655-.827-3.084-1.053-4.513h-.15c.075 1.505.15 3.084.15 4.739v22.26h-2.031V.078h2.557l5.415 20.306c.226.828.527 2.482.677 3.686h.151c.15-1.204.526-2.858.752-3.686L120.183.078h2.482v31.813h-2.106V9.63c0-1.505.075-3.084.15-4.739h-.15c-.376 1.805-.677 3.084-1.053 4.438l-4.738 17.674h-1.73l-4.738-17.6zm28.203 16.849v-6.167h-2.407c-3.685 0-5.49 1.654-5.49 5.565 0 3.159 1.354 4.964 3.535 4.964 2.03 0 3.534-1.955 4.362-4.362zm.075 2.632c-1.053 2.106-2.632 3.46-4.889 3.46-3.008 0-5.114-2.407-5.114-6.468 0-4.813 2.632-7.295 7.446-7.295h2.482v-2.783c0-3.384-1.279-4.888-3.761-4.888-1.88 0-3.61.902-4.738 2.481l-.602-2.03c.903-1.128 2.783-2.257 5.265-2.257 3.685 0 5.791 2.031 5.791 6.468v12.26c0 1.579.226 3.308.527 4.136h-1.881c-.225-.677-.451-1.505-.526-3.084zm17.673-8.735c0-5.866-1.579-9.325-4.212-9.325-2.03 0-3.685 2.105-4.663 4.512v12.56c.903 1.805 2.106 2.707 4.137 2.707 2.858 0 4.738-3.384 4.738-10.454zm-8.875 10.153v8.499h-2.105V9.47h1.805l.15 3.685c.978-2.106 2.632-4.136 5.114-4.136 3.76 0 5.941 4.512 5.941 10.98 0 8.198-2.782 12.259-6.919 12.259-1.654 0-3.083-.828-3.986-1.956zm17.074 1.587h-2.106V9.402h2.106v10.605l7.52-10.605h2.031l-7.37 10.454 7.896 12.034h-2.331l-7.746-11.658V31.89zm13.086-12.487h8.197c.376-5.941-1.429-8.649-3.685-8.649-2.407 0-4.287 3.008-4.512 8.65zm4.888 11.056c3.008 0 4.513-2.407 4.513-2.407l.676 1.655s-1.654 2.557-5.264 2.557c-4.738 0-6.919-4.287-6.919-11.658 0-7.37 2.782-11.657 6.543-11.657 3.835 0 6.392 4.062 5.64 12.034H175.46c.151 6.167 1.73 9.476 4.964 9.476zM194.886 11.2v20.682h-2.106V11.199h-5.189V9.396H200V11.2h-5.114z" fill="#fff"/></symbol><symbol fill="none" viewBox="0 0 13 9" id="youtube" xmlns="http://www.w3.org/2000/svg"><path d="M12.252 1.83A1.513 1.513 0 0011.194.76C10.255.5 6.5.5 6.5.5S2.743.5 1.804.75C1.3.89.884 1.31.746 1.83.5 2.78.5 4.75.5 4.75s0 1.98.247 2.92c.139.52.544.93 1.058 1.07C2.753 9 6.499 9 6.499 9s3.756 0 4.695-.25c.514-.14.92-.55 1.058-1.07.247-.95.247-2.92.247-2.92s.01-1.98-.247-2.93z" fill="#1F1A3D"/><path d="M5.002 6.508l3.5-1.75-3.5-1.75v3.5z" fill="#E9E8EC"/></symbol><symbol fill="none" viewBox="0 0 13 13" id="zen" xmlns="http://www.w3.org/2000/svg"><path fill-rule="evenodd" clip-rule="evenodd" d="M6.433.508c-2.473 0-4.187.008-5.067.867C.507 2.255.5 4.05.5 6.442c2.657-.08 3.872-.147 4.841-1.093.946-.97 1.013-2.184 1.093-4.841zM1.366 11.64C.507 10.76.5 8.967.5 6.574c2.657.08 3.872.147 4.84 1.093.947.97 1.014 2.184 1.094 4.84-2.473 0-4.187-.007-5.067-.866zm5.2.867c.08-2.657.146-3.872 1.092-4.84.97-.947 2.184-1.014 4.841-1.094 0 2.393-.008 4.187-.867 5.067-.88.859-2.593.867-5.067.867zm0-12c.08 2.657.146 3.872 1.092 4.84.97.947 2.184 1.013 4.841 1.094 0-2.393-.008-4.187-.867-5.067-.88-.859-2.593-.867-5.067-.867z" fill="#1F1A3D"/></symbol></svg>