<svg width="52" height="71" viewBox="0 0 52 71" fill="none" xmlns="http://www.w3.org/2000/svg">
<path d="M51.1979 27C50.1979 41 26.1979 71 26.1979 71C26.1979 71 2.1979 41 1.19777 27C-0.786383 13 12.3035 0 26 0C39.6965 0 53.1817 13 51.1979 27Z" fill="url(#paint0_linear)"/>
<path d="M37.5436 26.4411C37.0836 25.9742 36.5364 25.6038 35.9337 25.3515C35.3309 25.0991 34.6845 24.9697 34.0318 24.9708H34.026C33.4775 24.9699 32.9327 25.0611 32.4139 25.2406C32.2112 25.108 31.9995 24.9899 31.7803 24.8872C32.1861 24.6674 32.5577 24.3888 32.8833 24.0603C33.538 23.3999 33.9839 22.5586 34.1645 21.6427C34.3451 20.7268 34.2523 19.7775 33.8979 18.9148C33.5435 18.0521 32.9433 17.3147 32.1733 16.7959C31.4033 16.277 30.498 16.0001 29.5719 16H17.7199V17.0432H19.7931V21.0859H17.7199V22.1294H19.7931V25.0447C19.5101 24.9956 19.2234 24.971 18.9362 24.971C17.6239 24.9804 16.3684 25.5127 15.4437 26.4517C14.519 27.3908 14 28.6605 14 29.9838C14 31.3072 14.519 32.5768 15.4437 33.5159C16.3684 34.455 17.6239 34.9872 18.9362 34.9966H29.5719C30.354 34.9986 31.1265 34.8237 31.8326 34.485C32.8896 35.0093 34.0968 35.1383 35.2392 34.8489C36.3816 34.5595 37.3851 33.8706 38.0708 32.9048C38.7564 31.939 39.0798 30.7592 38.9833 29.5754C38.8867 28.3917 38.3766 27.2809 37.5436 26.4411ZM19.7931 33.9531H18.9362C16.7656 33.9531 14.9996 32.1724 14.9996 29.9834C14.9996 27.7945 16.7656 26.014 18.9362 26.014C19.2244 26.0137 19.5117 26.0452 19.7931 26.1079V33.9531ZM20.8275 17.0432H24.889V21.0859H20.8275V17.0432ZM24.889 33.9531H20.8275V26.5011C20.9765 26.5837 21.1201 26.6759 21.2573 26.7773L24.889 29.4556V33.9531ZM21.8686 25.9352C21.7068 25.8158 21.5382 25.7062 21.3634 25.6071C21.1901 25.5092 21.0112 25.4218 20.8275 25.3456V22.1294H24.889V28.162L21.8686 25.9352ZM29.5719 33.9531H25.9239V30.2192L30.7552 33.783C30.3709 33.8963 29.9724 33.9536 29.5719 33.9531ZM31.8396 33.2853C31.7941 33.2542 31.749 33.2227 31.7047 33.1898L25.9239 28.9263V22.1294H27.879V21.0859H25.9239V17.0432H29.5719C31.5836 17.0432 33.22 18.6935 33.22 20.7219C33.22 22.7503 31.5836 24.4003 29.5719 24.4003H27.9022V25.4435H29.5719C31.8987 25.4435 33.7917 27.3523 33.7917 29.6985C33.7913 30.4135 33.6123 31.117 33.2711 31.7439C32.93 32.3708 32.4376 32.9009 31.8396 33.2853ZM34.0263 33.9531C33.648 33.9535 33.2717 33.8991 32.9088 33.7916C33.0395 33.6829 33.1656 33.5673 33.2873 33.4448C34.2537 32.4704 34.8056 31.1546 34.8257 29.7767C34.8459 28.3988 34.3329 27.0672 33.3954 26.0645C33.604 26.0308 33.8148 26.0139 34.026 26.014H34.0313C36.1991 26.0168 37.9629 27.7975 37.9629 29.9834C37.9629 32.1693 36.1976 33.9531 34.0263 33.9531Z" fill="#1F1A3D"/>
<defs>
<linearGradient id="paint0_linear" x1="0.997559" y1="0" x2="68.0213" y2="47.573" gradientUnits="userSpaceOnUse">
<stop stop-color="#FDC8A4"/>
<stop offset="1" stop-color="#AC7C4A"/>
</linearGradient>
</defs>
</svg>
