<svg width="43" height="61" viewBox="0 0 43 61" fill="none" xmlns="http://www.w3.org/2000/svg">
<path d="M31.0219 22.1779C31.0219 17.0779 26.7219 12.8779 21.5005 12.8779C16.2791 12.8779 11.6719 17.0779 11.6719 22.1779C11.6719 27.2779 15.9719 31.4779 21.5005 31.4779C26.7219 31.4779 31.0219 27.2779 31.0219 22.1779Z" fill="#1F1A3D"/>
<path d="M21.5 60.2779L25.4929 55.1779C29.4857 49.7779 43 31.7779 43 21.8779C43 8.97783 34.4 0.277832 21.5 0.277832C8.6 0.277832 0 8.97783 0 21.8779C0 32.3779 15.6643 52.7779 17.5071 55.1779L21.5 60.2779ZM7.98572 22.1779C7.98572 14.9779 14.1286 8.97783 21.5 8.97783C28.8714 8.97783 35.0143 14.9779 35.0143 22.1779C35.0143 29.3779 28.8714 35.3779 21.5 35.3779C14.1286 35.3779 7.98572 29.3779 7.98572 22.1779Z" fill="#1F1A3D"/>
</svg>
