<svg width="200" height="35" viewBox="0 0 200 35" fill="none" xmlns="http://www.w3.org/2000/svg">
<path d="M183.048 30.003H199.25V34.8872H176.809V0H183.048V30.003ZM152.456 19.3375H137.764V30.003H154.972V34.8872H131.525V0H154.771V4.88421H137.764V14.5529H152.456V19.3375ZM90.2663 30.003H109.386V34.8872H82.8196V30.9998L101.336 4.88421H82.9202V0H108.883V3.78775L90.2663 30.003ZM53.8377 0H60.0769V34.8872H53.8377V0ZM19.1199 0H13.5852L0 34.8872H6.4404L9.35871 26.8133H23.2458L26.1641 34.8872H32.6045L19.1199 0ZM11.0694 21.8294L16.3023 7.37615L21.5351 21.8294H11.0694Z" fill="black"/>
</svg>
