<svg width="150" height="38" viewBox="0 0 150 38" fill="none" xmlns="http://www.w3.org/2000/svg">
<path d="M32.3232 4.65952C28.8832 1.79324 24.4573 0 19.543 0C8.72561 0 0 8.48395 0 19C0 29.516 8.72561 38 19.5421 38C24.4582 38 28.8823 36.2077 32.3241 33.3405V37.1631H39.3293V0.716571H32.3232V4.66043V4.65952ZM19.6646 31.6667C12.8854 31.6667 7.31707 26.1585 7.31707 19.4524C7.31707 12.7463 12.8854 7.2381 19.6646 7.2381C26.4439 7.2381 32.0122 12.7463 32.0122 19.4524C32.0122 26.2779 26.4439 31.6667 19.6646 31.6667ZM61.4634 31.189C65.2436 31.189 68.6588 29.5151 70.854 26.8868L75 32.5036C71.5857 35.9688 66.707 38 61.4634 38C50.732 38 42.0732 29.516 42.0732 19C42.0732 8.48395 50.732 0 61.4634 0C66.707 0 71.4631 2.15062 75 5.49643L70.854 11.1132C68.6588 8.48395 65.2436 6.81105 61.4634 6.81105C54.5122 6.81105 49.0244 12.3084 49.0244 19C49.0244 25.811 54.6338 31.189 61.4634 31.189ZM142.994 0.716571V4.66043C139.553 1.79233 135.128 0 130.213 0C119.396 0 110.671 8.48395 110.671 19C110.671 29.516 119.396 38 130.213 38C135.129 38 139.553 36.2077 142.995 33.3405V37.1631H150V0.716571H142.994ZM130.335 31.6667C123.556 31.6667 117.988 26.1585 117.988 19.4524C117.988 12.7463 123.556 7.2381 130.335 7.2381C137.115 7.2381 142.683 12.7463 142.683 19.4524C142.683 26.2779 137.115 31.6667 130.335 31.6667ZM100.946 15.618V0.904762H107.927V37.0952H100.946V22.382H85.639V37.0952H78.6585V0.904762H85.639V15.618H100.946Z" fill="#212121"/>
</svg>
