<svg width="200" height="44" viewBox="0 0 200 44" fill="none" xmlns="http://www.w3.org/2000/svg">
<path fill-rule="evenodd" clip-rule="evenodd" d="M45.2255 12.6153C45.9578 12.3513 46.8951 11.7353 47.188 11.5006C46.6901 11.2366 46.3093 10.9726 45.8406 10.5032C45.3719 10.0339 44.3175 7.92188 40.1874 7.92188C35.7352 7.92188 33.8605 11.0019 33.8605 13.4366C33.8605 13.73 33.8605 14.082 33.9191 14.4633C28.1487 17.1914 22.9935 20.2714 17.2524 27.3115H31.9273C31.0779 27.6342 29.8183 28.1329 28.7932 29.0129L29.9941 33.237C32.1909 33.1196 34.2706 32.5036 35.6473 31.8876C36.9068 31.3009 42.4721 28.7782 44.5811 21.7674C44.7861 21.0634 45.6356 17.426 45.7527 16.8687C45.8699 16.3113 46.1921 15.05 47.2759 14.2873C46.983 14.0233 46.1628 13.378 45.2841 12.9673C44.9033 12.8206 44.9033 12.7326 45.2255 12.6153Z" fill="white"/>
<path fill-rule="evenodd" clip-rule="evenodd" d="M40.5977 10.3828C39.3675 10.3828 38.3716 11.3802 38.3716 12.6122C38.3716 13.8442 39.3675 14.8416 40.5977 14.8416C41.8279 14.8416 42.8238 13.8442 42.8238 12.6122C42.8531 11.3802 41.8572 10.3828 40.5977 10.3828Z" fill="white"/>
<path fill-rule="evenodd" clip-rule="evenodd" d="M35.7646 0H14.8507L7.96729 20.1817H18.805C19.1565 19.8883 19.6545 19.4777 20.3282 19.067L25.1026 3.63739L28.3539 14.2856C28.764 14.0509 29.8478 13.4936 30.3457 13.2589C30.6093 9.03482 33.7435 6.68812 37.8736 6.21877L35.7646 0Z" fill="white"/>
<path fill-rule="evenodd" clip-rule="evenodd" d="M5.24311 28.2227L0 43.4762H12.6831L16.4323 31.4494H7.87932C8.17223 30.4227 8.81663 29.044 9.46104 28.2227H5.24311Z" fill="white"/>
<path fill-rule="evenodd" clip-rule="evenodd" d="M32.2495 32.9133L35.4422 43.4734H38.7228L35.2665 32.0039C34.4756 32.3266 33.3333 32.7079 32.2495 32.9133Z" fill="white"/>
<path fill-rule="evenodd" clip-rule="evenodd" d="M44.3178 24.7578C43.1461 27.0165 40.9786 30.2432 36.3799 32.5019L39.6312 43.4435H50.7033C50.7033 43.4728 44.3178 24.7578 44.3178 24.7578Z" fill="white"/>
<path fill-rule="evenodd" clip-rule="evenodd" d="M52.4312 12.4934C51.6403 12.1708 50.205 11.6721 48.4476 11.6721C47.9203 11.6721 47.4517 11.6134 47.1588 11.4961C46.8658 11.7308 45.9285 12.3468 45.1962 12.6108C44.9033 12.7281 44.9033 12.8161 45.1962 12.9334C46.1043 13.3441 46.9244 13.9895 47.188 14.2535C48.4769 13.3148 49.5899 14.1361 52.4019 12.8454C52.7534 12.6988 52.7534 12.6108 52.4312 12.4934Z" fill="white"/>
<path fill-rule="evenodd" clip-rule="evenodd" d="M4.013 24.0257C4.07158 24.0257 4.13016 24.0844 4.13016 24.1431C4.13016 24.2017 4.07158 24.2604 4.013 24.2604C2.05049 24.2604 0.732388 25.6391 0.556641 27.2525H11.4529C10.6621 28.0151 9.75406 29.2471 9.19753 30.5378H25.8642L29.7013 43.4741H33.0405L29.965 33.2072L28.764 28.9831C29.7599 28.1325 31.0487 27.6338 31.8982 27.2818H17.2233C22.9644 20.271 28.1489 17.1616 33.89 14.4336C33.8314 14.0816 33.8314 13.7002 33.8314 13.4069C33.8314 10.9722 35.706 7.89213 40.1583 7.89213C41.6228 7.89213 43.2631 8.18546 44.4641 9.06548C43.7611 8.3908 41.4471 7.04145 38.9573 7.07078C34.0071 7.10012 31.0194 10.2975 31.2538 13.8469C28.0903 15.2843 22.6129 18.2176 19.1272 21.063H0.585934C0.820263 22.823 2.13836 24.0257 4.013 24.0257Z" fill="white"/>
<path fill-rule="evenodd" clip-rule="evenodd" d="M40.5095 12.878L42.677 11.7927C42.4427 11.1767 41.9154 10.678 41.271 10.4727L40.2751 12.6434C40.1873 12.878 40.2751 12.966 40.5095 12.878Z" fill="white"/>
<path fill-rule="evenodd" clip-rule="evenodd" d="M199.766 34.5254C199.766 39.4242 200 43.4722 200 43.4722H189.455L189.426 29.92C189.426 25.3146 188.049 23.6719 185.53 23.6719C182.22 23.6719 180.551 26.1653 180.551 31.4454L180.521 43.4722H170.182C170.504 35.4054 170.182 23.3199 169.947 15.8691H179.291C179.291 15.8691 179.496 16.9838 179.496 18.7732V19.8292C180.785 18.0691 184.622 15.0478 189.221 15.2824C193.849 15.5171 197.188 17.7465 198.653 20.7972C199.473 22.5279 199.736 25.1386 199.795 27.0746L199.766 34.5254Z" fill="white"/>
<path fill-rule="evenodd" clip-rule="evenodd" d="M69.7422 39.9835C68.1312 41.7729 64.5284 44.2956 60.3691 43.9729C54.5401 43.5329 49.9414 40.9222 49.9414 32.298L49.9707 15.8711H60.3691V29.4233C60.3691 34.0287 61.6286 35.6714 64.1476 35.6714C67.4575 35.6714 69.0392 32.65 69.0392 27.898V15.8711H79.2911C78.9689 23.9379 79.2911 36.0234 79.5255 43.4742H70.1816C69.6836 42.6235 69.7422 39.9835 69.7422 39.9835Z" fill="white"/>
<path fill-rule="evenodd" clip-rule="evenodd" d="M157.908 43.4989C157.908 43.4989 157.703 42.4722 157.703 40.0082C154.481 44.0269 149.033 43.7336 149.033 43.7336C144.288 43.8802 138.898 41.0055 139.016 34.8748C139.162 27.0426 147.246 25.8106 153.661 25.8106C155.653 25.8106 157.03 25.8693 157.03 25.8693C156.825 21.9679 153.105 21.7919 150.439 21.7919C146.953 21.7919 142.413 24.2559 142.413 24.2559V17.4505C143.468 16.6878 150.439 14.1651 157.03 15.4851C163.436 16.7741 165.067 20.3845 165.822 22.0558C165.841 22.0961 165.858 22.1353 165.876 22.1732C166.614 23.7386 166.581 29.1149 166.579 29.5404C166.579 29.5535 166.579 29.5618 166.579 29.5653C166.608 38.7762 166.842 43.4989 166.842 43.4989H157.908ZM148.886 34.6122C148.681 30.7401 156.15 31.2388 157.117 31.5908C157.146 38.1616 149.12 38.9242 148.886 34.6122Z" fill="white"/>
<path fill-rule="evenodd" clip-rule="evenodd" d="M126.684 29.9517C126.684 25.3463 125.073 23.7329 122.876 23.7329C119.566 23.7329 117.867 26.1677 117.867 31.4477L117.896 43.4746H107.645L107.615 7.80469H117.926L117.955 18.6582C119.683 17.1328 122.788 15.1088 126.567 15.2848C131.195 15.5195 137.082 17.6608 137.082 27.605C137.082 31.3011 137.082 43.4453 137.082 43.4453H126.654L126.684 29.9517Z" fill="white"/>
<path fill-rule="evenodd" clip-rule="evenodd" d="M104.54 24.8467C100.82 21.8546 91.7987 22.148 91.7987 29.3348C91.7987 37.3429 101.553 37.1082 105.243 34.3802L105.507 42.2123C100.264 44.9404 81.3418 45.8497 81.3418 29.4814C81.3418 13.0838 100 13.9345 105.214 17.0439L104.54 24.8467Z" fill="white"/>
</svg>
