<svg width="150" height="46" viewBox="0 0 150 46" fill="none" xmlns="http://www.w3.org/2000/svg">
<path d="M36.7838 11.9873C36.3839 12.3869 36.3839 12.9864 36.7838 13.2862C37.1836 13.6859 37.7834 13.6859 38.0832 13.2862C38.4831 12.8865 38.4831 12.287 38.0832 11.9873C37.6834 11.5876 37.0836 11.5876 36.7838 11.9873Z" fill="#FEFEFE"/>
<path d="M45.9811 11.3828H41.9827L40.9831 12.5816C40.7832 12.7814 40.8832 12.8813 41.0831 12.9812L42.3826 13.5806L46.081 11.8823C46.3809 11.7824 46.2809 11.3828 45.9811 11.3828ZM31.0873 30.9627H26.1893C24.8899 31.7619 24.49 31.9617 22.7907 32.661C22.6908 32.661 22.5908 32.8608 22.6908 32.9607L27.0889 45.248H29.5879L25.5896 33.9596C28.1885 33.9596 34.4859 33.2604 37.8844 27.766C36.7849 29.3644 34.2859 30.9627 31.0873 30.9627ZM38.0844 13.2809C37.6845 13.6805 37.0848 13.6805 36.7849 13.2809C36.3851 12.8813 36.3851 12.2819 36.7849 11.9822C37.1847 11.5826 37.7845 11.5826 38.0844 11.9822C37.2847 11.183 35.9852 11.183 35.2855 11.9822C34.5858 12.7814 34.4859 13.9801 35.2855 14.7793C36.0852 15.5785 37.3846 15.5785 38.0844 14.7793C38.7841 13.9801 38.884 12.7814 38.0844 11.9822C38.3842 12.3818 38.3842 12.8813 38.0844 13.2809ZM28.3884 35.6579L31.787 45.248H34.2859L30.6874 35.1584C30.0877 35.3582 29.288 35.4581 28.3884 35.6579ZM31.787 23.6702C32.0869 23.2706 32.2868 22.871 32.5866 22.3715C32.4867 22.2716 32.3867 22.3715 32.2868 22.4714C27.1889 27.8659 22.2909 28.5652 18.4925 28.5652H12.6949C12.495 28.5652 12.3951 28.3654 12.495 28.1656C16.9931 21.9719 21.8911 17.077 25.5896 13.9801L15.8936 22.0718C15.0939 22.6712 14.1943 23.0708 12.9948 23.0708H0.799894C0.500019 23.0708 0.599978 23.3705 0.599978 23.5703C1.39964 26.1676 3.79864 28.5652 7.79698 28.5652L4.89819 31.4622C4.79823 31.5621 4.79823 31.8618 5.0981 31.8618H15.9936C23.7903 31.8618 28.6883 28.4653 31.787 23.6702Z" fill="#00985F"/>
<path d="M140.541 45.2527H149.438V17.7814H140.541V27.8709H132.145V17.7814H123.249V45.2527H132.145V34.8635H140.541V45.2527ZM35.2853 14.7845C34.4856 13.9854 34.4856 12.7866 35.2853 11.9875C36.0849 11.1883 37.3844 11.1883 38.0841 11.9875C38.7838 12.7866 38.8838 13.9854 38.0841 14.7845C37.2844 15.5837 35.985 15.5837 35.2853 14.7845ZM37.7842 27.771C41.1828 22.2767 42.3823 13.5858 42.3823 13.5858L41.0828 12.9864C40.8829 12.8865 40.8829 12.7866 40.9829 12.5868L41.9825 11.3881C41.3827 10.1893 39.1836 8.19143 35.985 8.19143C34.0858 8.19143 32.3865 8.69091 30.8871 9.68987C30.8871 9.68987 28.688 11.1883 25.5893 13.8855C21.8909 17.0821 16.9929 21.8771 12.4948 28.0706C12.3948 28.2704 12.4948 28.4702 12.6947 28.4702H18.4923C22.2907 28.4702 27.1886 27.771 32.2865 22.3766C32.3865 22.2767 32.4864 22.2767 32.5864 22.2767C32.6863 22.3766 32.6863 22.4765 32.6863 22.5764C31.8867 24.5743 29.8875 28.4702 26.1891 30.8677H31.087C34.3856 30.8677 36.7846 29.3693 37.7842 27.771ZM32.7863 34.3641L36.5847 45.1528H47.3802C45.1811 38.4598 42.7821 32.2663 40.4831 26.5722C38.6838 30.4681 36.9845 32.3662 32.7863 34.3641ZM0 45.2527H10.8954L14.5939 33.7647H3.99833C2.69887 37.1611 1.39942 40.9572 0 45.2527ZM14.6939 20.5785L20.1916 16.0832C21.3911 12.8865 22.5906 9.68987 23.7901 6.99269C24.3898 8.39122 24.9896 9.88966 25.5893 11.3881C28.5881 8.8907 30.4873 7.39227 32.9862 6.693C31.4868 3.39645 30.3873 0.998955 29.8875 0H17.6926C16.693 2.1977 12.7947 10.2892 8.19658 21.1779H12.5947C13.4944 21.1779 14.1941 21.078 14.6939 20.5785ZM82.0657 42.1559L82.6655 45.1528H89.8625V17.7814H80.9662V36.8615C80.1665 37.7605 78.6671 38.7595 77.2677 38.7595C74.7688 38.7595 73.4693 37.3609 73.4693 34.7636V17.7814H64.573V36.8615C63.7734 37.7605 62.0741 38.7595 60.5747 38.7595C58.2757 38.7595 56.9762 37.3609 56.9762 34.7636V17.7814H48.0799V35.9624C48.0799 42.5555 50.9787 45.8521 56.9762 45.8521C61.2744 45.8521 63.8733 44.2537 65.8725 42.1559C67.2719 44.6533 69.7709 45.8521 73.4693 45.8521C77.7675 45.7522 80.1665 44.2537 82.0657 42.1559ZM110.354 36.7616C109.554 37.6606 108.255 38.6596 106.056 38.6596C103.657 38.6596 102.357 36.4619 102.357 32.1664C102.357 26.8719 103.757 24.2746 106.655 24.2746C108.355 24.2746 109.154 24.3745 110.354 24.6742V36.7616ZM102.957 45.7522H103.257C107.255 45.7522 109.954 44.3536 111.453 42.1559L111.953 45.1528H119.25V18.8803C116.351 17.9812 112.953 17.182 106.755 17.182C97.8591 17.182 93.0611 22.5764 93.0611 32.5659C93.0611 41.7563 96.4597 45.7522 102.957 45.7522Z" fill="#DC000F"/>
</svg>
