<svg width="150" height="55" viewBox="0 0 150 55" fill="none" xmlns="http://www.w3.org/2000/svg">
<path fill-rule="evenodd" clip-rule="evenodd" d="M140.455 44.4907H150V35.3453H140.455V44.4907ZM140.872 30.6636H149.644V1.15326H140.871V30.6636H140.872ZM20.9099 35.4452C19.5771 36.8922 17.8733 37.6157 15.7973 37.6157C13.7606 37.6157 12.0746 36.8826 10.7443 35.4151C9.41154 33.9489 8.74576 31.6917 8.74576 28.64C8.74576 25.7087 9.41154 23.5081 10.7443 22.0419C12.0746 20.5756 13.7606 19.8413 15.7973 19.8413C17.8733 19.8413 19.5771 20.5756 20.9099 22.0419C22.2414 23.5081 22.9084 25.7268 22.9084 28.699C22.9084 31.7495 22.2403 33.9982 20.9099 35.4452ZM16.4547 13.4442C13.2189 13.4442 10.1262 14.4217 7.52875 16.0926C7.80223 15.3212 8.08383 14.5527 8.3735 13.7873C9.5583 10.7019 12.3264 9.15744 15.6851 8.85167L29.256 7.62016V0L20.8705 0.948608C6.38333 2.333 0 5.86379 0 25.6305C0 38.2537 6.49549 44.0465 15.8283 44.0465C25.1611 44.0465 31.3428 38.2489 31.3428 28.746C31.3428 19.2418 25.0227 13.4454 16.4547 13.4454V13.4442ZM91.3724 35.45C90.0408 36.9163 88.3549 37.6494 86.3182 37.6494C84.2421 37.6494 82.5383 36.9163 81.2056 35.45C79.874 33.9826 79.207 31.7639 79.207 28.7929C79.207 25.7412 79.8752 23.4937 81.2056 22.0467C82.5383 20.5997 84.2421 19.8762 86.3182 19.8762C88.3549 19.8762 90.0408 20.6081 91.3724 22.0756C92.7039 23.5418 93.3697 25.8002 93.3697 28.8507C93.3697 31.7832 92.7039 33.9826 91.3724 35.45ZM87.8526 13.4442C83.8102 13.4442 80.7188 14.9719 78.5818 17.471V14.0666H71.0853V55H79.2058V40.6926C81.3058 42.7897 84.186 44.0465 87.8526 44.0465C96.4206 44.0465 101.802 37.1968 101.802 28.746C101.802 20.2952 96.4206 13.4442 87.8526 13.4442ZM125.928 14.0666L118.873 33.8489L111.619 14.0678H102.786L114.689 43.7588C113.236 46.1905 111.157 46.8971 108.421 46.8971H105.14V54.3885H109.32C115.149 54.3885 120.337 51.1321 123.036 43.9417L134.173 14.0678H125.928V14.0666ZM44.5151 25.4355C44.6821 22.574 47.4264 19.414 51.495 19.414C55.5636 19.414 58.0919 22.574 58.2602 25.4355H44.5139H44.5151ZM66.2328 28.6581C66.2328 20.1495 61.7251 13.2312 51.5714 13.2312C41.4177 13.2312 35.971 20.1495 35.971 28.6581C35.971 37.6157 42.0525 44.4269 53.5842 44.4269C59.5142 44.4269 63.5518 42.1204 63.5518 42.1204V35.8605C63.5518 35.8605 60.3589 37.7806 54.8859 37.7806C48.7937 37.7806 44.9864 34.9998 44.5246 31.3017H66.1087C66.1874 30.577 66.2328 29.4117 66.2328 28.6581Z" fill="#422891"/>
</svg>
