<svg width="66" height="66" viewBox="0 0 66 66" xmlns="http://www.w3.org/2000/svg">
<path d="M62.5312 24.25H57.0625V16.5938C57.0596 13.9839 56.0215 11.4818 54.1761 9.6364C52.3307 7.79098 49.8286 6.75293 47.2188 6.75H37.375V1.28125C37.375 0.991169 37.2598 0.71297 37.0546 0.507852C36.8495 0.302734 36.5713 0.1875 36.2812 0.1875H25.3438C25.0537 0.1875 24.7755 0.302734 24.5704 0.507852C24.3652 0.71297 24.25 0.991169 24.25 1.28125V6.75H14.4062C11.7964 6.75293 9.29433 7.79098 7.4489 9.6364C5.60348 11.4818 4.56543 13.9839 4.5625 16.5938V47.8833C2.44186 48.1375 1.17023 48.3173 1.12648 48.3234C0.865855 48.3607 0.627408 48.4907 0.454922 48.6896C0.282435 48.8885 0.187484 49.143 0.1875 49.4062V64.7188C0.1875 65.0088 0.302734 65.287 0.507852 65.4921C0.71297 65.6973 0.991169 65.8125 1.28125 65.8125H60.3438C60.6338 65.8125 60.912 65.6973 61.1171 65.4921C61.3223 65.287 61.4375 65.0088 61.4375 64.7188V49.4062C61.4375 49.143 61.3426 48.8885 61.1701 48.6896C60.9976 48.4907 60.7591 48.3607 60.4985 48.3234C60.4548 48.3173 59.1831 48.1375 57.0625 47.8833V30.8125H62.5312C63.4015 30.8125 64.2361 30.4668 64.8514 29.8514C65.4668 29.2361 65.8125 28.4015 65.8125 27.5312C65.8125 26.661 65.4668 25.8264 64.8514 25.2111C64.2361 24.5957 63.4015 24.25 62.5312 24.25ZM6.75 16.5938C6.75228 14.5639 7.55965 12.6178 8.99498 11.1825C10.4303 9.74715 12.3764 8.93978 14.4062 8.9375H25.3438C25.6338 8.9375 25.912 8.82227 26.1171 8.61715C26.3223 8.41203 26.4375 8.13383 26.4375 7.84375V2.375H35.1875V7.84375C35.1875 8.13383 35.3027 8.41203 35.5079 8.61715C35.713 8.82227 35.9912 8.9375 36.2812 8.9375H47.2188C49.2486 8.93978 51.1947 9.74715 52.63 11.1825C54.0653 12.6178 54.8727 14.5639 54.875 16.5938V24.25H48.4131L48.3114 22.0129C48.2982 21.7231 48.1705 21.4504 47.9563 21.2548C47.8502 21.1579 47.7261 21.0829 47.591 21.034C47.456 20.9851 47.3126 20.9633 47.1691 20.9698C46.8793 20.983 46.6066 21.1107 46.411 21.325C46.2154 21.5392 46.1129 21.8223 46.1261 22.1121L46.2233 24.25H45.1656L41.7641 23.3996C42.2556 22.955 42.6009 22.3719 42.7545 21.7271C42.9081 21.0823 42.8627 20.4062 42.6243 19.7877C42.3859 19.1693 41.9658 18.6376 41.4192 18.2626C40.8726 17.8877 40.2253 17.6872 39.5625 17.6875H38.2813C38.4563 17.1926 38.51 16.6629 38.4378 16.1429C38.3657 15.6229 38.1699 15.1278 37.8668 14.6992C37.5637 14.2706 37.1622 13.921 36.696 13.6797C36.2298 13.4384 35.7125 13.3125 35.1875 13.3125H24.25C22.7996 13.3125 21.4086 13.8887 20.383 14.9143C19.3574 15.9398 18.7812 17.3308 18.7812 18.7812C18.7812 20.2317 19.3574 21.6227 20.383 22.6482C21.4086 23.6738 22.7996 24.25 24.25 24.25H24.4374C24.1875 24.9578 24.1875 25.7297 24.4374 26.4375H23.1562C22.3713 26.4372 21.6123 26.7183 21.0169 27.2298C20.4215 27.7413 20.0292 28.4493 19.9111 29.2253C19.7931 30.0013 19.9571 30.7939 20.3735 31.4593C20.7899 32.1247 21.431 32.6188 22.1805 32.8519C21.5327 33.655 21.1253 34.6249 21.0056 35.6497C20.8859 36.6745 21.0587 37.7122 21.5039 38.643C21.9492 39.5737 22.6488 40.3594 23.5219 40.9092C24.3949 41.459 25.4057 41.7505 26.4375 41.75H34.0938C34.6187 41.75 35.136 41.6241 35.6022 41.3828C36.0684 41.1415 36.4699 40.7919 36.773 40.3633C37.0761 39.9347 37.272 39.4396 37.3441 38.9196C37.4162 38.3996 37.3625 37.8699 37.1876 37.375H38.4688C39.1052 37.3753 39.7279 37.1905 40.2611 36.843C40.7942 36.4955 41.2148 36.0004 41.4714 35.4181C41.7281 34.8357 41.8097 34.1913 41.7065 33.5633C41.6032 32.9353 41.3194 32.351 40.8898 31.8815L45.1656 30.8125H45.6202C45.5044 31.1183 45.3862 31.4277 45.2648 31.7451C44.0742 34.8486 42.8438 38.0586 42.8438 41.75C42.8568 43.3892 43.0815 45.0199 43.5122 46.6016C39.4668 46.3238 35.0821 46.125 30.8125 46.125C26.5429 46.125 22.1582 46.3238 18.1128 46.6016C18.5435 45.0199 18.7682 43.3892 18.7812 41.75C18.7812 38.0586 17.5508 34.8487 16.3606 31.7452C15.9379 30.6428 15.5379 29.5971 15.2058 28.5621L15.4989 22.1121C15.5121 21.8223 15.4096 21.5392 15.214 21.325C15.0184 21.1107 14.7457 20.983 14.4559 20.9698C14.1661 20.9567 13.8829 21.0592 13.6687 21.2548C13.4545 21.4504 13.3268 21.7231 13.3136 22.0129L12.2198 46.0754C12.2198 46.0919 12.2188 46.1085 12.2188 46.125V47.0755C10.1816 47.2621 8.33115 47.4543 6.75 47.6305V16.5938ZM45.8279 46.7715C45.2862 44.9134 45.0312 43.302 45.0312 41.75C45.0312 39.0855 45.7915 36.5983 46.6754 34.1977L47.2188 46.1499V46.8839C46.7617 46.8458 46.2981 46.8084 45.8279 46.7715ZM46.125 26.4375H48.3125V28.625H46.125V26.4375ZM34.0938 37.375C34.3838 37.375 34.662 37.4902 34.8671 37.6954C35.0723 37.9005 35.1875 38.1787 35.1875 38.4688C35.1875 38.7588 35.0723 39.037 34.8671 39.2421C34.662 39.4473 34.3838 39.5625 34.0938 39.5625H26.4375C25.5673 39.5625 24.7327 39.2168 24.1173 38.6014C23.502 37.9861 23.1562 37.1515 23.1562 36.2812C23.1562 35.411 23.502 34.5764 24.1173 33.9611C24.7327 33.3457 25.5673 33 26.4375 33C26.7276 33 27.0058 32.8848 27.2109 32.6796C27.416 32.4745 27.5312 32.1963 27.5312 31.9062C27.5312 31.6162 27.416 31.338 27.2109 31.1329C27.0058 30.9277 26.7276 30.8125 26.4375 30.8125H23.1562C22.8662 30.8125 22.588 30.6973 22.3829 30.4921C22.1777 30.287 22.0625 30.0088 22.0625 29.7188C22.0625 29.4287 22.1777 29.1505 22.3829 28.9454C22.588 28.7402 22.8662 28.625 23.1562 28.625H27.5312C27.8213 28.625 28.0995 28.5098 28.3046 28.3046C28.5098 28.0995 28.625 27.8213 28.625 27.5312C28.625 27.2412 28.5098 26.963 28.3046 26.7579C28.0995 26.5527 27.8213 26.4375 27.5312 26.4375C27.2412 26.4375 26.963 26.3223 26.7579 26.1171C26.5527 25.912 26.4375 25.6338 26.4375 25.3438C26.4375 25.0537 26.5527 24.7755 26.7579 24.5704C26.963 24.3652 27.2412 24.25 27.5312 24.25C27.8213 24.25 28.0995 24.1348 28.3046 23.9296C28.5098 23.7245 28.625 23.4463 28.625 23.1562C28.625 22.8662 28.5098 22.588 28.3046 22.3829C28.0995 22.1777 27.8213 22.0625 27.5312 22.0625H24.25C23.3798 22.0625 22.5452 21.7168 21.9298 21.1014C21.3145 20.4861 20.9688 19.6515 20.9688 18.7812C20.9688 17.911 21.3145 17.0764 21.9298 16.4611C22.5452 15.8457 23.3798 15.5 24.25 15.5H35.1875C35.4776 15.5 35.7558 15.6152 35.9609 15.8204C36.166 16.0255 36.2812 16.3037 36.2812 16.5938C36.2812 16.8838 36.166 17.162 35.9609 17.3671C35.7558 17.5723 35.4776 17.6875 35.1875 17.6875C34.8974 17.6875 34.6192 17.8027 34.4141 18.0079C34.209 18.213 34.0938 18.4912 34.0938 18.7812C34.0938 19.0713 34.209 19.3495 34.4141 19.5546C34.6192 19.7598 34.8974 19.875 35.1875 19.875H39.5625C39.8526 19.875 40.1308 19.9902 40.3359 20.1954C40.541 20.4005 40.6562 20.6787 40.6562 20.9688C40.6562 21.2588 40.541 21.537 40.3359 21.7421C40.1308 21.9473 39.8526 22.0625 39.5625 22.0625H36.2812C35.9912 22.0625 35.713 22.1777 35.5079 22.3829C35.3027 22.588 35.1875 22.8662 35.1875 23.1562V31.9062C35.1875 32.1963 35.3027 32.4745 35.5079 32.6796C35.713 32.8848 35.9912 33 36.2812 33H38.4688C38.7588 33 39.037 33.1152 39.2421 33.3204C39.4473 33.5255 39.5625 33.8037 39.5625 34.0938C39.5625 34.3838 39.4473 34.662 39.2421 34.8671C39.037 35.0723 38.7588 35.1875 38.4688 35.1875H34.0938C33.8037 35.1875 33.5255 35.3027 33.3204 35.5079C33.1152 35.713 33 35.9912 33 36.2812C33 36.5713 33.1152 36.8495 33.3204 37.0546C33.5255 37.2598 33.8037 37.375 34.0938 37.375ZM37.375 30.5054V28.625H38.4688C38.7588 28.625 39.037 28.5098 39.2421 28.3046C39.4473 28.0995 39.5625 27.8213 39.5625 27.5312C39.5625 27.2412 39.4473 26.963 39.2421 26.7579C39.037 26.5527 38.7588 26.4375 38.4688 26.4375H37.375V24.5571L43.9375 26.1977V28.8648L37.375 30.5054ZM14.4062 46.1499L14.9496 34.1977C15.8335 36.5983 16.5938 39.0854 16.5938 41.75C16.5938 43.302 16.3388 44.9134 15.7971 46.7715C15.3268 46.808 14.8632 46.8455 14.4062 46.8839V46.1499ZM59.25 63.625H2.375V50.3619C5.91164 49.8964 18.8272 48.3125 30.8125 48.3125C42.7932 48.3125 55.7123 49.8964 59.25 50.3619V63.625ZM54.875 47.6305C53.2938 47.4543 51.4434 47.2621 49.4062 47.0755V46.125C49.4062 46.1085 49.4062 46.0919 49.4052 46.0754L48.7114 30.8125H54.875V47.6305ZM62.5312 28.625H50.5V26.4375H62.5312C62.8213 26.4375 63.0995 26.5527 63.3046 26.7579C63.5098 26.963 63.625 27.2412 63.625 27.5312C63.625 27.8213 63.5098 28.0995 63.3046 28.3046C63.0995 28.5098 62.8213 28.625 62.5312 28.625Z"/>
</svg>