<svg width="70" height="70" viewBox="0 0 70 70" xmlns="http://www.w3.org/2000/svg">
<path d="M66.7188 2.1875H55.7812C55.4912 2.1875 55.213 2.30273 55.0079 2.50785C54.8027 2.71297 54.6875 2.99117 54.6875 3.28125V7.87117C49.0302 4.19371 42.122 2.1875 35 2.1875C27.878 2.1875 20.9698 4.19371 15.3125 7.87117V3.28125C15.3125 2.99117 15.1973 2.71297 14.9921 2.50785C14.787 2.30273 14.5088 2.1875 14.2188 2.1875H3.28125C2.99117 2.1875 2.71297 2.30273 2.50785 2.50785C2.30273 2.71297 2.1875 2.99117 2.1875 3.28125V37.2485C2.18849 38.0974 2.38611 38.9345 2.76486 39.6942L10.2525 54.6697C10.5185 55.2026 10.8873 55.6775 11.3376 56.0673C11.7879 56.457 12.3108 56.7538 12.8763 56.9406C13.4418 57.1274 14.0387 57.2005 14.6325 57.1557C15.2264 57.1109 15.8055 56.949 16.3365 56.6795C18.4636 59.7312 21.0718 62.326 23.9471 64.238C27.4627 66.5764 31.2849 67.8125 35 67.8125C38.7151 67.8125 42.5373 66.5764 46.0536 64.2379C48.9289 62.3256 51.5371 59.7311 53.664 56.6795C54.2944 57.0007 54.992 57.1682 55.6995 57.1681C56.0278 57.168 56.3552 57.1324 56.6758 57.0618C57.3343 56.9185 57.9522 56.6291 58.4838 56.215C59.0155 55.8009 59.4473 55.2726 59.7473 54.6692L67.2351 39.6937C67.6138 38.9341 67.8114 38.0972 67.8125 37.2485V3.28125C67.8125 2.99117 67.6973 2.71297 67.4921 2.50785C67.287 2.30273 67.0088 2.1875 66.7188 2.1875ZM50.6816 24.0949C47.5465 21.9484 43.66 20.5367 39.3613 19.9697C41.1625 18.5508 42.7088 16.682 43.5244 15.6149C46.2451 12.056 47.5595 8.96369 47.9738 6.84879C50.3521 7.79682 52.6066 9.03021 54.6875 10.5219V17.0471L54.4998 17.2346C52.6078 19.1172 51.2845 21.4948 50.6816 24.0949ZM35 4.375C38.6984 4.37122 42.3742 4.95074 45.892 6.09219C45.6094 8.17223 44.0316 11.3503 41.7873 14.2871C39.318 17.517 36.5903 19.6875 35 19.6875C28.9778 19.6875 23.4843 21.2428 19.3184 24.0949C18.7157 21.4948 17.3925 19.1172 15.5006 17.2346L15.3125 17.0471V10.5219C20.8204 6.55471 27.7879 4.375 35 4.375ZM13.7934 54.9251C13.4538 54.8513 13.135 54.7021 12.8608 54.4886C12.5865 54.275 12.3638 54.0026 12.209 53.6914L4.72145 38.7159C4.49418 38.2601 4.3756 37.7578 4.375 37.2485V4.375H13.125V17.5C13.125 17.6436 13.1533 17.7859 13.2082 17.9186C13.2632 18.0513 13.3438 18.1718 13.4453 18.2734L13.9534 18.7815C15.0813 19.9033 15.9755 21.2377 16.5843 22.7074C17.1931 24.1771 17.5043 25.7529 17.5 27.3438V38.2812C17.5 38.8614 17.2695 39.4178 16.8593 39.828C16.4491 40.2383 15.8927 40.4688 15.3125 40.4688C14.7323 40.4688 14.1759 40.2383 13.7657 39.828C13.3555 39.4178 13.125 38.8614 13.125 38.2812V30.625C13.125 30.3349 13.0098 30.0567 12.8046 29.8516C12.5995 29.6465 12.3213 29.5312 12.0312 29.5312C11.7412 29.5312 11.463 29.6465 11.2579 29.8516C11.0527 30.0567 10.9375 30.3349 10.9375 30.625V40.4688C10.9375 40.6386 10.977 40.8061 11.053 40.9579L16.3777 51.6072C16.5744 52.0007 16.6556 52.4418 16.6121 52.8796C16.5686 53.3173 16.4021 53.7338 16.1318 54.0809C15.8615 54.4279 15.4985 54.6914 15.0847 54.8408C14.671 54.9902 14.2234 55.0194 13.7937 54.9251H13.7934ZM35 65.625C28.827 65.625 22.4025 61.6701 17.9964 55.2315C18.4585 54.5643 18.7335 53.7856 18.7929 52.9762C18.8523 52.1668 18.6939 51.3562 18.3341 50.6287L14.2872 42.535C14.9306 42.6897 15.6006 42.6966 16.247 42.5551C16.8934 42.4135 17.4992 42.1273 18.019 41.7179C18.5388 41.3084 18.959 40.7864 19.248 40.1912C19.537 39.596 19.6873 38.9429 19.6875 38.2812V27.3438C19.6875 27.0766 19.6794 26.8105 19.6649 26.5461C23.5478 23.5305 28.9707 21.875 35 21.875C41.0293 21.875 46.4522 23.5305 50.3351 26.5461C50.3206 26.8108 50.3125 27.0766 50.3125 27.3438V38.2812C50.3127 38.9429 50.463 39.596 50.752 40.1912C51.041 40.7864 51.4612 41.3084 51.9811 41.7178C52.5009 42.1273 53.1067 42.4135 53.7531 42.555C54.3995 42.6965 55.0696 42.6896 55.7129 42.5348L51.666 50.6286C51.3062 51.3561 51.1478 52.1666 51.2072 52.976C51.2666 53.7854 51.5416 54.5642 52.0037 55.2314C47.5975 61.6701 41.173 65.625 35 65.625ZM65.625 37.2485C65.6244 37.7578 65.5058 38.2601 65.2786 38.7159L57.791 53.6914C57.6542 53.9651 57.4648 54.2092 57.2336 54.4097C57.0024 54.6102 56.734 54.7632 56.4437 54.86C56.1534 54.9567 55.8469 54.9954 55.5416 54.9737C55.2364 54.952 54.9384 54.8704 54.6647 54.7336C54.391 54.5967 54.1469 54.4073 53.9464 54.1761C53.7459 53.945 53.5929 53.6766 53.4961 53.3862C53.3993 53.0959 53.3606 52.7894 53.3823 52.4842C53.404 52.1789 53.4856 51.8809 53.6225 51.6072L58.9471 40.9579C59.0231 40.806 59.0626 40.6386 59.0625 40.4688V30.625C59.0625 30.3349 58.9473 30.0567 58.7421 29.8516C58.537 29.6465 58.2588 29.5312 57.9688 29.5312C57.6787 29.5312 57.4005 29.6465 57.1954 29.8516C56.9902 30.0567 56.875 30.3349 56.875 30.625V38.2812C56.875 38.8614 56.6445 39.4178 56.2343 39.828C55.8241 40.2383 55.2677 40.4688 54.6875 40.4688C54.1073 40.4688 53.5509 40.2383 53.1407 39.828C52.7305 39.4178 52.5 38.8614 52.5 38.2812V27.3438C52.4957 25.7529 52.8069 24.1771 53.4157 22.7074C54.0244 21.2376 54.9187 19.9033 56.0466 18.7815L56.5547 18.2734C56.6562 18.1718 56.7368 18.0513 56.7918 17.9186C56.8467 17.7859 56.875 17.6436 56.875 17.5V4.375H65.625V37.2485Z"/>
<path d="M28.4375 40.4688C28.4375 40.1787 28.3223 39.9005 28.1171 39.6954C27.912 39.4902 27.6338 39.375 27.3438 39.375C27.0537 39.375 26.7755 39.4902 26.5704 39.6954C26.3652 39.9005 26.25 40.1787 26.25 40.4688C26.25 40.7588 26.1348 41.037 25.9296 41.2421C25.7245 41.4473 25.4463 41.5625 25.1562 41.5625C24.8662 41.5625 24.588 41.4473 24.3829 41.2421C24.1777 41.037 24.0625 40.7588 24.0625 40.4688C24.0625 40.1787 23.9473 39.9005 23.7421 39.6954C23.537 39.4902 23.2588 39.375 22.9688 39.375C22.6787 39.375 22.4005 39.4902 22.1954 39.6954C21.9902 39.9005 21.875 40.1787 21.875 40.4688C21.875 41.339 22.2207 42.1736 22.8361 42.7889C23.4514 43.4043 24.286 43.75 25.1562 43.75C26.0265 43.75 26.8611 43.4043 27.4764 42.7889C28.0918 42.1736 28.4375 41.339 28.4375 40.4688Z"/>
<path d="M47.0312 39.375C46.7412 39.375 46.463 39.4902 46.2579 39.6954C46.0527 39.9005 45.9375 40.1787 45.9375 40.4688C45.9375 40.7588 45.8223 41.037 45.6171 41.2421C45.412 41.4473 45.1338 41.5625 44.8438 41.5625C44.5537 41.5625 44.2755 41.4473 44.0704 41.2421C43.8652 41.037 43.75 40.7588 43.75 40.4688C43.75 40.1787 43.6348 39.9005 43.4296 39.6954C43.2245 39.4902 42.9463 39.375 42.6562 39.375C42.3662 39.375 42.088 39.4902 41.8829 39.6954C41.6777 39.9005 41.5625 40.1787 41.5625 40.4688C41.5625 41.339 41.9082 42.1736 42.5236 42.7889C43.1389 43.4043 43.9735 43.75 44.8438 43.75C45.714 43.75 46.5486 43.4043 47.1639 42.7889C47.7793 42.1736 48.125 41.339 48.125 40.4688C48.125 40.1787 48.0098 39.9005 47.8046 39.6954C47.5995 39.4902 47.3213 39.375 47.0312 39.375Z"/>
<path d="M43.0956 50.4042C42.8298 50.2879 42.5288 50.282 42.2587 50.3877C41.9885 50.4934 41.7714 50.702 41.6551 50.9678C41.6389 51.005 39.9703 54.6875 35.0009 54.6875C30.0972 54.6875 28.4206 51.1305 28.3445 50.963C28.2258 50.7002 28.0082 50.495 27.7389 50.3918C27.4697 50.2887 27.1706 50.296 26.9068 50.4122C26.6429 50.5284 26.4356 50.7441 26.33 51.0124C26.2243 51.2806 26.2289 51.5798 26.3426 51.8447C26.4325 52.05 28.6168 56.875 35.0009 56.875C41.385 56.875 43.5693 52.05 43.6592 51.8447C43.7754 51.5789 43.7814 51.2779 43.6757 51.0077C43.57 50.7376 43.3613 50.5205 43.0956 50.4042Z"/>
<path d="M32.8125 48.125H37.1875C37.4776 48.125 37.7558 48.0098 37.9609 47.8046C38.166 47.5995 38.2812 47.3213 38.2812 47.0312C38.2812 46.7412 38.166 46.463 37.9609 46.2579C37.7558 46.0527 37.4776 45.9375 37.1875 45.9375H33.9062V42.6562C33.9062 42.3662 33.791 42.088 33.5859 41.8829C33.3808 41.6777 33.1026 41.5625 32.8125 41.5625C32.5224 41.5625 32.2442 41.6777 32.0391 41.8829C31.834 42.088 31.7188 42.3662 31.7188 42.6562V47.0312C31.7188 47.3213 31.834 47.5995 32.0391 47.8046C32.2442 48.0098 32.5224 48.125 32.8125 48.125Z"/>
</svg>
