<svg width="7" height="13" viewBox="0 0 7 13" fill="none" xmlns="http://www.w3.org/2000/svg">
<path d="M4.75147 2.5078H6.25147C6.38954 2.5078 6.50148 2.39587 6.50148 2.2578V0.757797C6.50148 0.61975 6.38954 0.507812 6.25147 0.507812H4.75147C3.23338 0.509477 2.00312 1.73971 2.00148 3.2578V5.00781H0.251473C0.113402 5.00781 0.00146484 5.11975 0.00146484 5.25782V6.75782C0.00146484 6.89589 0.113402 7.00783 0.251473 7.00783H2.00148V12.2578C2.00148 12.3959 2.11342 12.5078 2.25149 12.5078H3.75149C3.88956 12.5078 4.0015 12.3959 4.0015 12.2578V7.00783H5.7515C5.85906 7.00776 5.95452 6.93887 5.9885 6.83683L6.4885 5.33683C6.53214 5.20583 6.46131 5.06427 6.33032 5.02063C6.30491 5.01217 6.27829 5.00784 6.2515 5.00781H4.0015V3.2578C4.00147 2.84359 4.33726 2.5078 4.75147 2.5078Z" fill="#1F1A3D"/>
</svg>
