<svg width="64" height="70" viewBox="0 0 64 70" xmlns="http://www.w3.org/2000/svg">
<path d="M2.43007 63.8729C2.17809 64.1575 1.96315 64.4729 1.79009 64.8114C1.76535 64.8607 1.74412 64.9118 1.72684 64.9642L0.560216 68.4643C0.356408 69.0755 0.686717 69.7363 1.298 69.94C1.41688 69.9797 1.54148 69.9999 1.66696 69.9999H62.3334C62.9777 69.9999 63.5001 69.4776 63.5001 68.8332C63.5001 68.7078 63.4799 68.5832 63.4403 68.4641L62.2736 64.9641C62.2562 64.9117 62.235 64.8606 62.2102 64.8112C62.0373 64.4729 61.8225 64.1577 61.5706 63.8732C62.523 61.731 63.5 58.7405 63.5 55.4812C63.5 51.1062 61.6479 49.0769 60.1596 47.447C58.6741 45.8198 57.7777 44.8379 58.7742 41.8503C61.0864 34.9133 60.2309 29.5617 56.159 25.4896C53.0819 22.4126 53.0026 19.4316 53.0007 19.3146C53.0007 19.276 52.9986 19.2372 52.9948 19.1979C52.2617 11.8654 49.4453 6.52509 44.624 3.32449C40.3936 0.517441 35.4224 -0.0361492 32.0002 0.00177197C28.5723 -0.0349779 23.6068 0.517441 19.377 3.32537C14.5556 6.52582 11.7394 11.8664 11.0063 19.1988C11.0023 19.2345 11.0004 19.2706 11.0004 19.3066C10.9986 19.4319 10.9199 22.4127 7.84211 25.4899C3.7699 29.562 2.91455 34.9136 5.22686 41.8506C6.22262 44.8382 5.32599 45.8201 3.84076 47.4473C2.35232 49.0773 0.500333 51.1059 0.500333 55.4815C0.500333 58.7181 1.45671 61.6866 2.43007 63.8729ZM3.28571 67.6666L3.91119 65.7902C5.02745 63.7531 10.4647 62.2383 14.8426 61.0188C19.4865 59.7251 23.4973 58.608 24.8043 56.6472C26.3258 54.3651 26.9471 50.0993 27.1944 46.5826C27.6274 46.6376 28.0636 46.6657 28.5002 46.6668H35.5003C35.937 46.6657 36.3732 46.6376 36.8063 46.5826C37.0541 50.0994 37.6748 54.3652 39.1962 56.6472C40.5032 58.608 44.5139 59.7251 49.1579 61.0188C53.5358 62.2383 58.9724 63.7533 60.0893 65.7902L60.7148 67.6666H3.28571ZM32.0149 9.33492C32.272 9.36757 35.8866 10.031 37.8618 18.9198C39.8461 27.8479 42.688 31.9116 43.6669 33.1042V36.1667C43.6618 40.6749 40.0085 44.3283 35.5003 44.3334H28.5002C23.992 44.3283 20.3387 40.6749 20.3335 36.1667V33.1042C21.3123 31.911 24.1551 27.8475 26.1391 18.9193C28.1168 10.0209 31.714 9.37299 32.0149 9.33492ZM50.6683 19.3874C50.6869 19.9584 50.9469 23.5783 54.5086 27.14C56.6686 29.2999 59.2314 33.0986 56.56 41.1127C55.1308 45.4001 56.8115 47.2404 58.4366 49.0204C59.7783 50.4907 61.1669 52.011 61.1669 55.4815C61.1669 58.067 60.453 60.4894 59.6858 62.3483C57.1966 60.8367 53.4484 59.7917 49.7841 58.7708C46.3002 57.8002 41.9641 56.5922 41.1375 55.3525C40.1221 53.8292 39.3893 50.4491 39.1077 46.0278C43.2439 44.5089 45.9951 40.573 46 36.1667V32.6667C46.0021 32.3595 45.8809 32.0645 45.6637 31.8472C45.6557 31.8387 44.8308 30.9806 43.7435 28.9087C42.7372 26.9899 41.2936 23.6117 40.1389 18.4137C39.1181 13.8174 37.5249 10.5197 35.4055 8.61222C34.7579 8.01002 33.9969 7.54281 33.1667 7.23783V2.34805C36.1609 2.44425 40.0343 3.08027 43.3327 5.26989C47.5337 8.0579 50.0015 12.8077 50.6683 19.3874ZM5.56391 49.0202C7.1891 47.241 8.86949 45.3997 7.44035 41.1126C4.76903 33.0985 7.33185 29.3001 9.4919 27.1399C13.0534 23.5782 13.3136 19.9583 13.3322 19.3873C13.999 12.8076 16.4668 8.0576 20.6675 5.26915C23.9659 3.07983 27.8394 2.44293 30.8335 2.34703V7.23769C30.0033 7.54252 29.2422 8.00973 28.5947 8.61207C26.4753 10.5196 24.8826 13.8172 23.8612 18.4136C22.7062 23.6117 21.2634 26.9899 20.2565 28.9085C19.1694 30.9804 18.3447 31.8386 18.3419 31.8415C18.1231 32.0602 18.0002 32.357 18.0002 32.6665V36.1666C18.0053 40.5729 20.7562 44.5089 24.8924 46.028C24.6113 50.4492 23.8785 53.8301 22.8628 55.3526C22.0362 56.5922 17.7003 57.8004 14.2162 58.771C10.5518 59.7917 6.8033 60.8367 4.31412 62.3486C3.53417 60.4623 2.83344 58.0535 2.83344 55.4813C2.83358 52.0109 4.22173 50.4905 5.56391 49.0202Z"/>
</svg>
