<svg width="70" height="70" viewBox="0 0 70 70" xmlns="http://www.w3.org/2000/svg">
<path d="M59.4465 31.7766C59.0653 31.3954 58.663 31.035 58.2464 30.6939C60.8877 27.7451 62.3468 23.9247 62.3437 19.966V16.4045C62.3437 16.1144 62.2285 15.8362 62.0234 15.6311C61.8183 15.4259 61.5401 15.3107 61.25 15.3107H54.6875V8.74821C54.6875 8.45813 54.5722 8.17993 54.3671 7.97481C54.162 7.7697 53.8838 7.65446 53.5937 7.65446H50.0322C48.7179 7.6546 47.4086 7.81502 46.1331 8.13216C45.4538 7.0068 44.6404 5.9681 43.7106 5.03889L41.252 2.51616C41.1511 2.41262 41.0307 2.33011 40.8977 2.27339C40.7648 2.21667 40.6219 2.18687 40.4773 2.18571C40.3327 2.18317 40.189 2.21006 40.055 2.26475C39.9211 2.31944 39.7996 2.40079 39.698 2.50386L31.7087 10.4472C31.3201 10.8358 30.9515 11.2437 30.6041 11.6695C27.6668 9.07889 23.8842 7.65099 19.9677 7.65446H16.4062C16.1161 7.65446 15.8379 7.7697 15.6328 7.97481C15.4277 8.17993 15.3125 8.45813 15.3125 8.74821V15.3107H8.74997C8.45989 15.3107 8.18169 15.4259 7.97657 15.6311C7.77146 15.8362 7.65622 16.1144 7.65622 16.4045V19.966C7.65646 21.2313 7.80513 22.4922 8.09919 23.7229C6.95459 24.4098 5.89893 25.235 4.95603 26.1799L2.5078 28.6271C2.30272 28.8322 2.1875 29.1104 2.1875 29.4005C2.1875 29.6905 2.30272 29.9687 2.5078 30.1738L10.5536 38.2196C10.9347 38.6009 11.3371 38.9611 11.7535 39.3022C9.1122 42.2511 7.65306 46.0716 7.65622 50.0304V53.592C7.65622 53.882 7.77146 54.1602 7.97657 54.3654C8.18169 54.5705 8.45989 54.6857 8.74997 54.6857H15.3125V61.2482C15.3125 61.5383 15.4277 61.8165 15.6328 62.0216C15.8379 62.2267 16.1161 62.342 16.4062 62.342H19.9677C21.282 62.3418 22.5914 62.1814 23.8668 61.8643C24.5461 62.9896 25.3596 64.0283 26.2893 64.9575L28.748 67.4803C28.8488 67.5838 28.9692 67.6663 29.1022 67.723C29.2352 67.7797 29.3781 67.8096 29.5226 67.8107H29.5312C29.8202 67.8107 30.0975 67.6963 30.3025 67.4926L38.2917 59.5492C38.6796 59.16 39.0476 58.7513 39.3941 58.3249C42.3315 60.9167 46.1149 62.3453 50.0322 62.342H53.5937C53.8838 62.342 54.162 62.2267 54.3671 62.0216C54.5722 61.8165 54.6875 61.5383 54.6875 61.2482V54.6857H61.25C61.5401 54.6857 61.8183 54.5705 62.0234 54.3654C62.2285 54.1602 62.3437 53.882 62.3437 53.592V50.0304C62.3435 48.7652 62.1948 47.5043 61.9008 46.2737C63.0453 45.587 64.101 44.762 65.0439 43.8173L67.4921 41.3693C67.6972 41.1642 67.8124 40.886 67.8124 40.596C67.8124 40.3059 67.6972 40.0277 67.4921 39.8226L59.4465 31.7766ZM60.1562 19.966C60.1521 23.6614 58.6822 27.2043 56.0691 29.8174C53.4561 32.4304 49.9132 33.9003 46.2177 33.9045H43.6791C43.4839 32.3484 42.8719 30.8741 41.9078 29.6372L43.7055 27.8393C46.4552 25.1052 48.1189 21.4659 48.3875 17.5976C48.9333 17.5325 49.4825 17.4993 50.0322 17.4982H60.1562V19.966ZM35 41.5607C33.702 41.5607 32.4332 41.1758 31.354 40.4547C30.2748 39.7336 29.4337 38.7087 28.937 37.5096C28.4403 36.3104 28.3104 34.9909 28.5636 33.7179C28.8168 32.4449 29.4418 31.2756 30.3596 30.3578C31.2774 29.44 32.4467 28.815 33.7197 28.5618C34.9927 28.3086 36.3122 28.4386 37.5113 28.9353C38.7105 29.432 39.7354 30.2731 40.4565 31.3523C41.1776 32.4315 41.5625 33.7003 41.5625 34.9982C41.5605 36.7381 40.8684 38.4061 39.6382 39.6364C38.4079 40.8667 36.7398 41.5587 35 41.5607ZM50.0322 9.84196H52.5V15.3107H50.0322C49.4853 15.3111 48.9388 15.3389 48.3947 15.3941C48.2819 13.5858 47.8636 11.8096 47.1574 10.1411C48.1028 9.94247 49.0662 9.84223 50.0322 9.84196ZM40.4566 4.83409L42.1489 6.57042C42.1521 6.5737 42.1554 6.57712 42.1588 6.5804C44.7689 9.19643 46.2348 12.741 46.2348 16.4364C46.2348 20.1318 44.7689 23.6763 42.1588 26.2924L40.3611 28.0901C39.1242 27.1261 37.6497 26.5142 36.0937 26.319V23.7804C36.0972 19.9045 34.6987 16.1581 32.1562 13.2326C32.4973 12.7996 32.8635 12.3871 33.253 11.9971L40.4566 4.83409ZM17.5 9.84196H19.9677C23.6632 9.84612 27.2061 11.316 29.8191 13.929C32.4322 16.5421 33.9021 20.085 33.9062 23.7804V26.319C32.1366 26.5449 30.478 27.3052 29.1517 28.4984C27.8255 29.6916 26.8947 31.2609 26.4836 32.9969C23.8457 31.9857 21.5757 30.1996 19.9722 27.8737C18.3688 25.5478 17.5069 22.791 17.5 19.966V9.84196ZM9.84372 19.966V17.4982H15.3125V19.966C15.3125 20.4785 15.3398 20.9862 15.3878 21.4892C13.5738 21.5911 11.7905 22.0018 10.1147 22.7035C9.93486 21.8021 9.8441 20.8852 9.84372 19.966ZM4.82792 29.4008L6.50286 27.7259C8.95958 25.2507 12.2632 23.7987 15.7479 23.6625C16.2562 25.7948 17.1909 27.8021 18.4959 29.5634C19.8008 31.3248 21.449 32.8036 23.3409 33.9108C19.6607 34.0085 16.1259 35.3682 13.3288 37.762C12.8985 37.4231 12.4883 37.0595 12.1003 36.673L4.82792 29.4008ZM9.84372 50.0304C9.84788 46.335 11.3177 42.7921 13.9308 40.179C16.5439 37.566 20.0868 36.0961 23.7822 36.092H26.3208C26.516 37.648 27.128 39.1224 28.0921 40.3592L26.2944 42.1571C23.5448 44.8911 21.8811 48.5304 21.6125 52.3987C21.0666 52.4639 20.5175 52.4971 19.9677 52.4982H9.84372V50.0304ZM19.9677 60.1545H17.5V54.6857H19.9677C20.5146 54.6854 21.0611 54.6575 21.6052 54.6023C21.718 56.4106 22.1363 58.1868 22.8425 59.8553C21.8972 60.0539 20.9338 60.1542 19.9677 60.1545ZM29.5434 65.1623L27.8511 63.426C27.8478 63.4227 27.8445 63.4193 27.8411 63.416C25.2272 60.802 23.7587 57.2567 23.7587 53.56C23.7587 49.8633 25.2272 46.318 27.8411 43.704L29.6388 41.9063C30.8758 42.8703 32.3502 43.4822 33.9062 43.6774V46.216C33.9027 50.0913 35.3008 53.8372 37.8426 56.7625C37.502 57.1959 37.1362 57.6091 36.7472 57.9998L29.5434 65.1623ZM52.5 60.1545H50.0322C46.3368 60.1503 42.7939 58.6804 40.1808 56.0674C37.5677 53.4543 36.0979 49.9114 36.0937 46.216V43.6774C37.8634 43.4515 39.522 42.6912 40.8482 41.498C42.1745 40.3048 43.1053 38.7355 43.5163 36.9995C46.1542 38.0108 48.4241 39.7968 50.0276 42.1227C51.6311 44.4486 52.493 47.2054 52.5 50.0304V60.1545ZM60.1562 50.0304V52.4982H54.6875V50.0304C54.6875 49.5176 54.6601 49.0097 54.6121 48.5064C56.4261 48.4048 58.2094 47.9944 59.8854 47.2929C60.0651 48.1943 60.1558 49.1113 60.1562 50.0304ZM63.4971 42.2705C61.04 44.7453 57.7366 46.1972 54.252 46.334C53.7438 44.2016 52.809 42.1943 51.504 40.433C50.1991 38.6717 48.551 37.1929 46.6591 36.0857C50.3393 35.9879 53.8741 34.6282 56.6711 32.2344C57.1014 32.5733 57.5116 32.9369 57.8997 33.3234L65.172 40.5956L63.4971 42.2705Z"/>
</svg>
