<svg width="13" height="13" viewBox="0 0 13 13" fill="none" xmlns="http://www.w3.org/2000/svg">
<path d="M6.61736 12.5078C6.57762 12.5078 6.53789 12.5078 6.49788 12.5076C5.55723 12.5099 4.68809 12.486 3.84284 12.4346C3.06791 12.3874 2.36054 12.1196 1.79711 11.6602C1.25345 11.2169 0.882186 10.6175 0.693672 9.87887C0.529603 9.2358 0.520905 8.60454 0.512574 7.99397C0.506531 7.55589 0.500305 7.03679 0.499023 6.50889C0.500305 5.9788 0.506531 5.4597 0.512574 5.02162C0.520905 4.41114 0.529603 3.77988 0.693672 3.13672C0.882186 2.39807 1.25345 1.79868 1.79711 1.35538C2.36054 0.895963 3.06791 0.628171 3.84293 0.581021C4.68818 0.52966 5.5575 0.505673 6.50017 0.507962C7.44109 0.505948 8.30996 0.52966 9.15521 0.581021C9.93014 0.628171 10.6375 0.895963 11.2009 1.35538C11.7447 1.79868 12.1159 2.39807 12.3044 3.13672C12.4684 3.77979 12.4771 4.41114 12.4855 5.02162C12.4915 5.4597 12.4978 5.9788 12.499 6.5067V6.50889C12.4978 7.03679 12.4915 7.55589 12.4855 7.99397C12.4771 8.60445 12.4685 9.23571 12.3044 9.87887C12.1159 10.6175 11.7447 11.2169 11.2009 11.6602C10.6375 12.1196 9.93014 12.3874 9.15521 12.4346C8.34576 12.4838 7.51424 12.5078 6.61736 12.5078ZM6.49788 11.5701C7.42324 11.5723 8.27288 11.549 9.09826 11.4988C9.68422 11.4632 10.1923 11.273 10.6085 10.9336C10.9932 10.6199 11.2582 10.187 11.396 9.64705C11.5326 9.11174 11.5404 8.53697 11.548 7.98116C11.554 7.54601 11.5602 7.03056 11.5615 6.50779C11.5602 5.98494 11.554 5.46958 11.548 5.03443C11.5404 4.47861 11.5326 3.90384 11.396 3.36844C11.2582 2.82846 10.9932 2.3956 10.6085 2.08185C10.1923 1.74255 9.68422 1.5524 9.09826 1.51678C8.27288 1.46652 7.42324 1.44336 6.50008 1.44537C5.5749 1.44318 4.72517 1.46652 3.89979 1.51678C3.31383 1.5524 2.80578 1.74255 2.38957 2.08185C2.00485 2.3956 1.73988 2.82846 1.60209 3.36844C1.46549 3.90384 1.45762 4.47852 1.45002 5.03443C1.44407 5.46995 1.43784 5.98567 1.43656 6.50889C1.43784 7.02983 1.44407 7.54564 1.45002 7.98116C1.45762 8.53697 1.46549 9.11174 1.60209 9.64705C1.73988 10.187 2.00485 10.6199 2.38957 10.9336C2.80578 11.2729 3.31383 11.4631 3.89979 11.4987C4.72517 11.549 5.57508 11.5724 6.49788 11.5701ZM6.47554 9.43749C4.86012 9.43749 3.54574 8.12325 3.54574 6.50779C3.54574 4.89234 4.86012 3.5781 6.47554 3.5781C8.09105 3.5781 9.40534 4.89234 9.40534 6.50779C9.40534 8.12325 8.09105 9.43749 6.47554 9.43749ZM6.47554 4.5156C5.37705 4.5156 4.48328 5.40934 4.48328 6.50779C4.48328 7.60625 5.37705 8.49999 6.47554 8.49999C7.57412 8.49999 8.4678 7.60625 8.4678 6.50779C8.4678 5.40934 7.57412 4.5156 6.47554 4.5156ZM9.73347 2.6406C9.34518 2.6406 9.03032 2.95536 9.03032 3.34372C9.03032 3.73209 9.34518 4.04685 9.73347 4.04685C10.1219 4.04685 10.4366 3.73209 10.4366 3.34372C10.4366 2.95536 10.1219 2.6406 9.73347 2.6406Z" fill="#1F1A3D"/>
</svg>
