<svg width="200" height="24" viewBox="0 0 200 24" fill="none" xmlns="http://www.w3.org/2000/svg">
<path d="M74.6575 23.5429H78.7671V0H74.6575V23.5429ZM113.014 23.5429H117.123V0H113.014V23.5429ZM95.8904 14.6286L89.0411 0H84.7032L95.8904 24L107.078 0H102.74L95.8904 14.6286ZM0 23.5429H4.10959V0H0V23.5429ZM19.1781 0H14.1553L4.79452 11.6571L14.1553 23.5429H19.1781L9.81735 11.6571L19.1781 0ZM164.155 9.82857V3.88571H168.037C170.776 3.88571 171.461 5.71429 171.461 6.85714C171.461 8.68571 170.32 9.82857 168.037 9.82857H164.155ZM175.342 6.85714C175.342 2.51429 171.461 0 168.037 0H159.817V23.5429H163.927V13.7143L171.689 23.5429H176.712L168.721 13.7143C172.374 13.2571 175.342 10.7429 175.342 6.85714ZM38.1279 15.3143C38.1279 18.0571 36.3014 20.1143 33.79 20.1143C31.2785 20.1143 29.4521 18.2857 29.4521 15.3143V0H25.3425V15.5429C25.3425 21.0286 29.2237 24 33.79 24C38.3562 24 42.2374 21.0286 42.2374 15.5429V0H38.1279V15.3143ZM58.4475 12.8H55.4795V4.11429H58.4475C61.4155 4.11429 63.242 5.94286 63.242 8.45714C63.242 10.9714 61.4155 12.8 58.4475 12.8ZM58.6758 0H51.3699V23.5429H55.4795V16.9143H58.6758C64.1553 16.9143 67.1233 12.8 67.1233 8.45714C67.1233 4.11429 64.1553 0 58.6758 0ZM134.018 12.8H131.05V4.11429H134.018C136.758 4.11429 138.584 5.94286 138.584 8.45714C138.584 10.9714 136.758 12.8 134.018 12.8ZM134.247 0H126.941V23.5429H131.05V16.9143H134.247C139.726 16.9143 142.694 12.8 142.694 8.45714C142.694 4.11429 139.726 0 134.247 0ZM195.89 0V15.3143C195.89 18.0571 194.064 20.1143 191.553 20.1143C188.813 20.1143 187.215 18.0571 187.215 15.3143V0H183.105V15.5429C183.105 21.0286 186.986 24 191.553 24C196.119 24 200 21.0286 200 15.5429V0H195.89ZM146.575 23.5429H150.685V19.4286H146.575V23.5429Z" fill="white"/>
</svg>
