<svg width="200" height="40" viewBox="0 0 200 40" fill="none" xmlns="http://www.w3.org/2000/svg">
<path d="M90.7081 34.897H97.894V20.0532C97.894 12.2117 92.8841 8.04874 86.8563 8.04874C82.8669 8.04874 79.8529 9.77685 77.6819 12.1692H76.7064C75.0682 10.0416 72.2318 8.04874 68.0223 8.04874C64.203 8.04874 61.1516 9.7319 59.5558 11.6823H58.5803V8.80291H51.8871V34.897H59.028V21.2519C59.028 16.5969 60.4037 15.0037 65.1885 15.0037C69.9732 15.0037 71.3014 16.5969 71.3014 21.2519V34.8945H78.4898V21.2519C78.4898 16.5969 79.8179 15.0037 84.6052 15.0037C89.395 15.0037 90.7206 16.5969 90.7206 21.2519L90.7106 34.8945L90.7081 34.897ZM23.261 31.1611C21.9779 30.2321 21.4002 28.8586 21.4002 26.7783C21.4002 24.1637 22.2005 20.9422 23.5287 19.5562C24.4591 18.6247 25.7872 18.1827 27.6056 18.1827C30.1768 18.1827 33.3233 18.857 34.6515 20.2205C35.5394 21.107 35.9396 22.3457 35.9396 24.0738C35.9396 26.5561 35.2292 30.0548 33.676 31.5157C32.7906 32.3148 31.595 32.6669 29.9117 32.6669C27.6106 32.6669 24.7192 32.1325 23.261 31.1611ZM34.5664 36.6551L34.2538 39.0475L40.9419 39.8716L44.111 14.0172L37.4253 13.1956L37.1126 15.7029H36.3398C35.3393 13.9323 32.658 11.5374 27.6056 11.5374C20.5598 11.5374 15.3748 16.7218 14.4419 23.8066C14.3554 24.4983 14.3111 25.1947 14.3093 25.8918C14.3093 32.6669 18.919 38.2508 26.0974 39.0475C26.4976 39.0849 26.8953 39.0974 27.2955 39.0924C30.3094 39.0924 32.5705 37.8088 33.7235 36.6576H34.5639L34.5664 36.6551ZM185.863 29.0034C180.501 29.0034 178.727 27.2328 178.727 21.8737C178.727 16.512 180.503 14.689 185.863 14.689C191.226 14.689 192.999 16.5045 192.999 21.8737C192.999 27.2403 191.226 29.0034 185.863 29.0034ZM151.472 29.0034C146.107 29.0034 144.336 27.2328 144.336 21.8737C144.336 16.512 146.107 14.689 151.469 14.689C156.832 14.689 158.608 16.5045 158.608 21.8737C158.608 27.2403 156.832 29.0034 151.469 29.0034H151.472ZM117.964 29.0034C112.603 29.0034 110.83 27.2328 110.83 21.8737C110.83 16.512 112.603 14.689 117.964 14.689C123.324 14.689 125.102 16.5045 125.102 21.8737C125.102 27.2403 123.326 29.0034 117.964 29.0034ZM4.35707 0L0 34.8446L7.11338 35.7111L11.4004 0.864059L4.35707 0ZM193.309 32.3722V34.8945H200V8.80541H193.309V11.3327H192.334C191.268 9.9142 188.567 8.05373 184.923 8.05373C176.944 8.05373 171.496 14.1146 171.496 21.8762C171.496 29.6352 176.947 35.6537 184.923 35.6537C188.56 35.6537 191.261 33.7932 192.334 32.3747H193.309V32.3722ZM117.964 8.05123C109.099 8.05123 103.607 14.1121 103.607 21.8737C103.607 29.6327 109.099 35.6512 117.964 35.6512C126.828 35.6512 132.338 29.6252 132.338 21.8737C132.338 14.1196 126.84 8.05123 117.964 8.05123ZM159.006 32.3722V34.8945H165.696V0.299674H158.608V11.3302H157.632C156.569 9.91171 154.173 8.05123 150.542 8.05123C142.563 8.05123 137.11 14.1121 137.11 21.8737C137.11 29.6327 142.563 35.6512 150.542 35.6512C154.173 35.6512 157.01 33.7907 158.03 32.3722H159.006Z" fill="white"/>
</svg>
