<svg width="200" height="40" viewBox="0 0 200 40" fill="none" xmlns="http://www.w3.org/2000/svg">
<path d="M90.3679 34.897H97.5269V20.0532C97.5269 12.2117 92.5358 8.04874 86.5305 8.04874C82.5561 8.04874 79.5535 9.77685 77.3906 12.1692H76.4188C74.7867 10.0416 71.9609 8.04874 67.7672 8.04874C63.9622 8.04874 60.9222 9.7319 59.3325 11.6823H58.3606V8.80291H51.6926V34.897H58.8067V21.2519C58.8067 16.5969 60.1772 15.0037 64.944 15.0037C69.7108 15.0037 71.034 16.5969 71.034 21.2519V34.8945H78.1954V21.2519C78.1954 16.5969 79.5186 15.0037 84.2879 15.0037C89.0597 15.0037 90.3804 16.5969 90.3804 21.2519L90.3704 34.8945L90.3679 34.897ZM23.1738 31.1611C21.8955 30.2321 21.3199 28.8586 21.3199 26.7783C21.3199 24.1637 22.1173 20.9422 23.4404 19.5562C24.3674 18.6247 25.6905 18.1827 27.5021 18.1827C30.0637 18.1827 33.1984 18.857 34.5215 20.2205C35.4061 21.107 35.8048 22.3457 35.8048 24.0738C35.8048 26.5561 35.0971 30.0548 33.5497 31.5157C32.6676 32.3148 31.4765 32.6669 29.7995 32.6669C27.5071 32.6669 24.6265 32.1325 23.1738 31.1611ZM34.4368 36.6551L34.1253 39.0475L40.7884 39.8716L43.9455 14.0172L37.2849 13.1956L36.9735 15.7029H36.2035C35.2068 13.9323 32.5355 11.5374 27.5021 11.5374C20.4827 11.5374 15.3171 16.7218 14.3877 23.8066C14.3016 24.4983 14.2575 25.1947 14.2556 25.8918C14.2556 32.6669 18.848 38.2508 25.9995 39.0475C26.3982 39.0849 26.7944 39.0974 27.1931 39.0924C30.1957 39.0924 32.4483 37.8088 33.5971 36.6576H34.4343L34.4368 36.6551ZM185.166 29.0034C179.824 29.0034 178.057 27.2328 178.057 21.8737C178.057 16.512 179.826 14.689 185.166 14.689C190.509 14.689 192.275 16.5045 192.275 21.8737C192.275 27.2403 190.509 29.0034 185.166 29.0034ZM150.904 29.0034C145.559 29.0034 143.795 27.2328 143.795 21.8737C143.795 16.512 145.559 14.689 150.901 14.689C156.244 14.689 158.013 16.5045 158.013 21.8737C158.013 27.2403 156.244 29.0034 150.901 29.0034H150.904ZM117.521 29.0034C112.181 29.0034 110.415 27.2328 110.415 21.8737C110.415 16.512 112.181 14.689 117.521 14.689C122.861 14.689 124.633 16.5045 124.633 21.8737C124.633 27.2403 122.864 29.0034 117.521 29.0034ZM4.34073 0L0 34.8446L7.0867 35.7111L11.3577 0.864059L4.34073 0ZM192.584 32.3722V34.8945H199.25V8.80541H192.584V11.3327H191.613C190.551 9.9142 187.86 8.05373 184.229 8.05373C176.281 8.05373 170.853 14.1146 170.853 21.8762C170.853 29.6352 176.283 35.6537 184.229 35.6537C187.852 35.6537 190.544 33.7932 191.613 32.3747H192.584V32.3722ZM117.521 8.05123C108.69 8.05123 103.218 14.1121 103.218 21.8737C103.218 29.6327 108.69 35.6512 117.521 35.6512C126.352 35.6512 131.842 29.6252 131.842 21.8737C131.842 14.1196 126.365 8.05123 117.521 8.05123ZM158.409 32.3722V34.8945H165.075V0.299674H158.013V11.3302H157.041C155.982 9.91171 153.595 8.05123 149.977 8.05123C142.028 8.05123 136.596 14.1121 136.596 21.8737C136.596 29.6327 142.028 35.6512 149.977 35.6512C153.595 35.6512 156.421 33.7907 157.437 32.3722H158.409Z" fill="black"/>
</svg>
