<svg width="200" height="28" viewBox="0 0 200 28" fill="none" xmlns="http://www.w3.org/2000/svg">
<path fill-rule="evenodd" clip-rule="evenodd" d="M156.327 0.377616C158.126 -0.0447063 160.008 -0.0869437 161.849 0.293147C160.008 -0.0447114 158.126 -0.00247398 156.327 0.377616ZM16.6492 0.166455C18.1134 -0.0447063 19.5775 -0.00248174 21.0416 0.250912C20.5396 0.20868 20.0376 0.124218 19.5357 0.0819854C18.2389 -0.00247916 16.9421 0.081988 15.6871 0.335382H15.6453C15.9799 0.208685 16.3146 0.25092 16.6492 0.166455ZM14.9341 5.44549C15.8544 5.10763 16.8166 4.89646 17.8205 4.89646C16.8166 4.93869 15.8544 5.14986 14.9341 5.44549ZM73.4574 6.41683C73.4574 6.07897 73.4574 5.78335 73.4574 5.44549C73.4993 5.78335 73.4993 6.07897 73.4574 6.41683C75.5072 6.41683 77.557 6.41683 79.5649 6.41683C79.6904 7.13477 79.5649 7.89496 79.6068 8.61291C79.6068 12.7517 79.6068 16.8904 79.6068 21.0714C79.6068 21.2826 79.6068 21.4515 79.5649 21.6627C79.5649 16.7637 79.5649 11.8226 79.5649 6.92362C79.5649 6.71246 79.5231 6.41683 79.2721 6.45906C77.3897 6.41683 75.4236 6.41683 73.4574 6.41683ZM122.234 8.61291C122.276 8.27505 122.317 7.93718 122.527 7.64156C122.359 7.97942 122.276 8.27505 122.234 8.61291ZM66.6806 9.03523C66.8479 9.66872 66.9734 10.3022 66.9316 10.9779C66.8898 10.9779 66.8479 11.0201 66.8479 11.0201C66.9734 10.8934 66.9316 10.7245 66.9316 10.5978C66.8479 10.091 66.7643 9.58425 66.6806 9.03523ZM138.214 9.41532C138.256 13.0473 138.214 16.6793 138.214 20.3112C138.214 20.7336 138.256 21.1981 138.214 21.6204C133.696 21.6627 129.136 21.6204 124.618 21.6204C123.656 21.5782 122.736 21.4937 121.816 21.3248C122.736 21.4515 123.698 21.5782 124.618 21.6204C129.136 21.6204 133.696 21.6204 138.214 21.6204C138.214 17.5661 138.214 13.4696 138.214 9.41532ZM61.4516 11.1468C62.9994 11.6114 64.6727 11.5269 66.2204 11.1468C64.6727 11.5692 62.9994 11.6536 61.4516 11.1468ZM66.7224 12.625C66.8061 12.625 66.8898 12.5827 66.9734 12.5827C66.9734 12.9628 66.9316 13.3851 66.8479 13.7652C66.8898 13.3851 66.9734 13.0051 66.9734 12.5827C66.8898 12.625 66.7643 12.625 66.7224 12.625ZM125.204 13.0895C125.664 13.0473 126.166 12.9628 126.626 13.0051C129.011 13.0051 131.395 13.0051 133.821 13.0051C133.863 15.5812 133.821 18.1574 133.821 20.7336C131.353 20.7336 128.885 20.7336 126.375 20.7336C125.497 20.7336 124.576 20.6491 123.74 20.3957C124.618 20.7336 125.539 20.7758 126.459 20.7758C128.927 20.7758 131.353 20.7758 133.821 20.7758C133.821 18.1996 133.821 15.6235 133.821 13.0473C131.772 13.0473 129.722 13.0473 127.63 13.0473C126.835 12.9628 125.999 12.9206 125.204 13.0895ZM184.564 12.9628C185.986 12.9628 187.45 12.9628 188.873 12.9628C189.584 12.9628 190.295 12.9206 191.006 13.0051C188.873 12.9628 186.697 12.9628 184.564 12.9628ZM193.265 13.3429C193.432 13.3851 193.641 13.4696 193.767 13.5963C193.641 13.5118 193.474 13.4274 193.265 13.3429ZM195.189 14.7366C195.357 14.6099 195.524 14.9477 195.398 15.0744C195.315 14.9477 195.231 14.8211 195.189 14.7366ZM195.273 18.7909C195.315 18.6642 195.398 18.5375 195.482 18.453C195.566 18.5375 195.44 18.8753 195.273 18.7909ZM194.478 19.5933C194.687 19.2977 194.938 19.0865 195.231 18.8331C195.189 19.0443 195.022 19.1287 194.855 19.2132C194.771 19.3821 194.604 19.5088 194.478 19.5933ZM0 21.1559C0.250994 20.5224 0.292826 19.8467 0.501987 19.171C0.334658 19.8889 0.209161 20.6491 0 21.367V21.1559ZM191.759 21.6627C192.01 21.6204 192.219 21.6204 192.47 21.6204C192.219 21.6204 191.968 21.6627 191.759 21.6627ZM50.868 21.8738C54.0891 22.2117 57.3102 22.2962 60.5313 21.8738C58.2723 22.2539 55.9297 22.2117 53.6289 22.1272C52.6668 22.0428 51.7465 22.0428 50.868 21.8738Z" fill="black"/>
<path fill-rule="evenodd" clip-rule="evenodd" d="M38.653 0.549027C39.0295 0.126705 39.657 0 40.2008 0C40.7028 0.0422323 41.2466 0.126705 41.5812 0.549027C41.7486 0.760189 41.7067 1.05581 41.6649 1.3092C41.4139 2.53394 40.9956 3.71644 40.6191 4.89895C40.4518 5.3635 40.3263 5.82806 40.159 6.29262C40.0753 6.16592 39.9916 6.03921 39.9498 5.91252C39.8661 5.74359 39.8243 5.53243 39.7825 5.3635C39.657 4.85672 39.4478 4.34993 39.2805 3.84314C39.1968 3.67421 39.155 3.50529 39.1131 3.29412C38.9458 2.70287 38.7785 2.11162 38.6112 1.52036C38.4857 1.22474 38.402 0.844653 38.653 0.549027ZM15.6871 0.337866C16.9421 0.0844723 18.2389 5.15405e-06 19.5357 0.0844697C20.0376 0.126702 20.5396 0.211164 21.0416 0.253396C21.4181 0.337861 21.8364 0.42233 22.2129 0.549027C22.6312 0.717956 23.0496 0.844653 23.4679 0.97135C26.8145 2.28055 29.6172 4.77225 31.7925 7.64404C33.9259 10.4736 35.4737 13.6833 36.5614 17.0618C36.6869 17.6109 36.896 18.1599 37.0215 18.7089C37.0634 19.3846 36.7705 20.0181 36.5614 20.6516C36.3522 21.0317 36.1012 21.3273 35.8502 21.6652C35.7666 21.4962 35.6829 21.3273 35.6411 21.1584C35.5156 20.736 35.3482 20.356 35.1391 19.9759C34.8463 19.3002 34.5116 18.6244 34.2188 17.9909C34.0933 17.6953 33.9678 17.4419 33.8004 17.1463C33.1311 15.8793 32.3782 14.6546 31.5833 13.5143C31.5833 13.3876 31.5415 13.3032 31.416 13.2609C29.3662 10.3891 26.8145 7.68628 23.6352 6.08146C23.3006 5.8703 22.9241 5.70136 22.5476 5.57466C21.6691 5.23681 20.7906 4.98341 19.8703 4.85671C19.703 4.77225 19.4938 4.73002 19.2847 4.77225C18.8245 4.73002 18.3643 4.73002 17.9042 4.77225C16.9421 4.77225 15.9381 4.98341 15.0178 5.32127C12.0477 6.33484 9.53775 8.31976 7.4043 10.6003C5.31269 12.8808 3.55573 15.457 2.04977 18.1599C1.92427 18.3288 1.79878 18.54 1.71511 18.7511C1.63145 18.9201 1.54778 19.089 1.42229 19.2579C1.21313 19.5535 1.0458 19.8492 0.962133 20.187C0.752972 20.6094 0.543811 21.0317 0.33465 21.4962C0.292817 21.4962 0.167321 21.4962 0.125488 21.4962V21.2006C0.33465 20.4827 0.460145 19.7647 0.627474 19.0045C0.878468 17.822 1.25496 16.6818 1.63145 15.5415C1.84061 15.1192 2.00794 14.6546 2.13344 14.19C2.55176 13.092 3.05374 11.994 3.59756 10.9382C3.6394 10.8959 3.68123 10.8115 3.68123 10.7692C4.72704 8.78431 5.982 6.92609 7.48796 5.27903C9.70507 2.82956 12.5497 0.886888 15.7708 0.168939C15.6453 0.337868 15.6871 0.337866 15.6871 0.337866ZM156.327 0.380101C158.126 1.03207e-05 160.008 -0.0422271 161.849 0.295631C162.016 0.337863 162.184 0.337858 162.351 0.422323C162.393 0.422323 162.476 0.464557 162.518 0.464557C163.397 0.633487 164.233 0.971347 165.028 1.35144C165.321 1.52037 165.614 1.6893 165.949 1.816C166.911 2.32278 167.789 2.95626 168.668 3.58974C169.839 4.56108 170.927 5.61689 171.889 6.7994C172.223 7.22172 172.6 7.60181 172.851 8.06637C172.893 8.15083 172.935 8.23529 173.018 8.27753C173.269 8.57315 173.52 8.95324 173.688 9.2911C173.729 9.37556 173.771 9.50226 173.855 9.54449C174.315 10.178 174.65 10.8537 175.026 11.5294C175.737 12.9653 176.407 14.4012 176.95 15.9216C177.076 16.3439 177.201 16.724 177.369 17.1041C177.494 17.5686 177.62 17.9909 177.787 18.4555C177.954 19.0045 177.787 19.5535 177.62 20.1026C177.411 20.736 177.076 21.2428 176.616 21.7074C176.114 20.5249 175.612 19.3846 175.068 18.2443C174.942 17.9909 174.817 17.6953 174.65 17.4842C174.524 17.273 174.399 17.0618 174.315 16.8084C174.273 16.6395 174.189 16.5128 174.064 16.3861C173.269 15.0769 172.474 13.7255 171.512 12.5008C170.006 10.5158 168.291 8.74209 166.283 7.30619C165.99 7.0528 165.614 6.88386 165.321 6.63047C165.237 6.54601 165.112 6.46154 164.986 6.41931C164.192 6.03922 163.439 5.6169 162.56 5.40574C160.678 4.77225 158.628 4.68779 156.704 5.19458C156.327 5.27904 155.951 5.40573 155.574 5.49019C155.449 5.49019 155.323 5.53243 155.239 5.6169C154.654 5.91253 154.068 6.12368 153.524 6.41931C153.315 6.50377 153.106 6.63047 152.939 6.75716C149.759 8.65761 147.208 11.5294 145.074 14.5701C144.865 14.7813 144.74 15.0347 144.572 15.2881C144.196 15.8371 143.903 16.4284 143.485 16.9774C143.401 17.0618 143.359 17.1463 143.317 17.2308C143.066 17.7798 142.732 18.2866 142.439 18.8356C141.979 19.6802 141.56 20.5249 141.142 21.4118C141.058 21.5385 141.017 21.7919 140.807 21.7074C140.807 21.6229 140.807 21.5385 140.807 21.454C140.849 21.3695 140.891 21.2428 140.891 21.1584C140.891 21.0739 140.891 20.9472 140.933 20.8627C140.975 20.7783 141.017 20.736 141.017 20.6094C141.017 20.4827 141.058 20.3137 141.058 20.187C141.226 19.638 141.351 19.0468 141.477 18.4977C141.518 18.3288 141.56 18.1599 141.602 18.0332C141.686 17.9065 141.728 17.7798 141.728 17.6109V17.5264C141.769 17.4419 141.811 17.3575 141.811 17.273V17.1885C141.937 16.8507 142.062 16.5128 142.146 16.175C142.23 15.8371 142.355 15.5415 142.481 15.2036C142.648 14.8658 142.773 14.4857 142.899 14.1056C144.07 11.1493 145.66 8.36199 147.71 5.99699C149.299 4.181 151.182 2.57617 153.357 1.47813C153.65 1.35143 153.943 1.18251 154.277 1.09804C154.403 1.09804 154.528 1.01358 154.612 0.97135C155.114 0.675724 155.7 0.506797 156.327 0.380101ZM50.2824 1.09804C51.5373 0.802416 52.8341 0.717959 54.0891 0.591262C56.3062 0.506797 58.5651 0.506795 60.7404 0.97135C61.1169 1.05581 61.5352 1.09804 61.9117 1.26697C61.9954 1.3092 62.1209 1.35144 62.2464 1.35144C62.5392 1.35144 62.832 1.47813 63.083 1.5626C64.5472 2.06939 65.9694 2.70287 67.2244 3.58974C67.2663 3.67421 67.3499 3.71645 67.4336 3.71645C67.6846 3.80091 67.8519 4.01208 68.0611 4.181C69.7344 5.4902 71.073 7.22173 71.7423 9.24888C71.8678 9.62897 71.9933 10.0091 72.0351 10.4314C72.0351 10.5158 72.0351 10.6003 72.077 10.6848C72.077 10.727 72.1188 10.8537 72.1188 10.9382C72.1606 11.6139 72.2025 12.2474 72.077 12.9231C71.9933 13.6833 71.7423 14.4012 71.4913 15.0769C71.4495 15.2036 71.3658 15.3303 71.324 15.457C71.1567 15.7526 70.9893 16.0483 70.7802 16.3861C70.0272 17.4842 69.065 18.4133 67.9774 19.1735C67.8937 19.2579 67.7682 19.3002 67.6427 19.3424C67.5591 19.3846 67.4336 19.4268 67.3917 19.5113C66.8061 19.9336 66.1368 20.2293 65.5093 20.4826C65.0491 20.6516 64.6308 20.8205 64.1707 20.9894C63.9615 21.0739 63.7523 21.1161 63.5432 21.2006C62.9157 21.3695 62.2464 21.5385 61.6189 21.6652C61.5771 21.6652 61.4934 21.6652 61.4516 21.6652C61.3679 21.6652 61.2842 21.6652 61.2006 21.7496C61.1169 21.7496 60.9914 21.7496 60.9077 21.7496C60.7822 21.7496 60.6986 21.7919 60.6149 21.8341C60.5731 21.8341 60.4894 21.8763 60.4476 21.8763C57.2683 22.2986 54.0054 22.2142 50.7843 21.8763C48.4417 21.6229 46.0573 20.9472 44.0075 19.7225C43.9657 19.6802 43.882 19.638 43.8402 19.638C43.7147 19.5958 43.5474 19.5535 43.5892 19.3846C44.0075 19.1312 44.4258 18.8778 44.8442 18.6244C44.9278 18.5822 45.0533 18.4977 45.137 18.5822C45.7226 19.0045 46.3501 19.3424 47.0194 19.638C47.3541 19.8069 47.6888 19.9336 48.0234 20.0603C49.6967 20.6093 51.4118 20.8627 53.1688 20.9894C55.8879 21.1584 58.6488 21.0739 61.2424 20.1026C61.7026 19.9336 62.1209 19.6802 62.5392 19.5113C62.6647 19.4691 62.7902 19.4268 62.832 19.3424L62.8739 19.3001H62.9575C63.1249 19.3001 63.2085 19.1735 63.2922 19.089C64.0033 18.54 64.7145 17.9065 65.2583 17.1463C65.9695 16.175 66.4296 15.0347 66.6806 13.8944C66.8061 13.5143 66.8061 13.092 66.8061 12.7119C66.7224 12.7119 66.6388 12.7541 66.5551 12.7541C65.9694 12.8808 65.4256 13.0498 64.84 13.092V13.1342C64.1288 13.1765 63.4177 13.3032 62.6647 13.2187C61.7862 13.1342 60.9077 12.8808 60.0711 12.5852C59.5273 12.3741 58.9835 12.1629 58.3978 12.0784H58.3142C58.2305 12.0362 58.1468 11.994 58.0632 11.994C56.8919 11.825 55.6787 11.825 54.4656 11.994C53.5034 12.1207 52.5413 12.4163 51.621 12.6697C51.621 12.1207 51.621 11.6139 51.621 11.0649L51.7047 11.0226C52.2485 10.8537 52.7505 10.6848 53.2943 10.5158C53.5453 10.4314 53.7963 10.3891 54.0473 10.3469C54.1728 10.3469 54.2564 10.3047 54.3401 10.2624C55.8879 9.92459 57.5193 10.0935 59.0671 10.5158C59.5691 10.6848 60.0711 10.8959 60.5731 11.0226C60.7822 11.0649 60.9914 11.1493 61.2006 11.2338C62.7484 11.7406 64.4217 11.6561 65.9694 11.2338C66.1786 11.1916 66.3878 11.1493 66.5969 11.1071C66.6388 11.1071 66.6806 11.0649 66.6806 11.0649C66.7224 10.3891 66.5969 9.75566 66.4296 9.12217C66.2204 8.31976 65.9276 7.55958 65.5511 6.84163C65.4256 6.54601 65.2583 6.25038 65.0491 5.99699C64.589 5.32127 64.0033 4.73002 63.3759 4.181C63.1667 4.01208 62.9157 3.88537 62.7484 3.67421C62.6647 3.58975 62.581 3.54752 62.4974 3.50529C61.8281 3.16743 61.2006 2.78733 60.4894 2.57617C60.0293 2.36501 59.5691 2.23831 59.0671 2.15385H59.0253C58.9416 2.11162 58.858 2.06939 58.7743 2.06939C57.9377 1.94269 57.0592 1.81599 56.2225 1.77376C55.3859 1.73153 54.5911 1.77376 53.7544 1.77376C53.3361 1.81599 52.9596 1.85823 52.5413 1.85823C52.4158 1.85823 52.2903 1.90045 52.1648 1.94269C52.0811 1.94269 51.9556 1.94269 51.872 1.94269C51.7883 1.94269 51.7047 1.94269 51.621 1.98492C50.5752 2.15385 49.5294 2.44947 48.4836 2.78733C48.1071 2.8718 47.7306 3.04073 47.3959 3.20965C46.6011 3.54751 45.8063 3.96984 45.0533 4.47662C44.5513 4.22323 44.0494 3.96984 43.5474 3.71645C43.5474 3.67421 43.5474 3.63198 43.5474 3.63198C44.9278 2.70287 46.4756 2.06939 48.0234 1.60483C48.3162 1.52037 48.6509 1.39367 48.9856 1.39367C49.111 1.39367 49.1947 1.35144 49.3202 1.3092C49.4875 1.22474 49.6549 1.22475 49.8222 1.22475C50.1569 1.18251 50.2405 1.14027 50.2824 1.09804ZM124.911 5.32127C125.915 5.19457 126.961 5.15234 128.007 5.15234C129.722 5.15234 131.437 5.19458 133.11 5.40574C133.194 5.44797 133.319 5.4902 133.445 5.44797C134.282 5.4902 135.118 5.74359 135.871 5.99699C136.122 6.12368 136.415 6.20815 136.624 6.37707C136.666 6.46154 136.75 6.50378 136.833 6.50378C137.042 6.54601 137.168 6.75717 137.293 6.88387C137.712 7.30619 138.046 7.89744 138.088 8.48869C138.088 8.61539 138.13 8.74208 138.172 8.86878C138.214 9.0377 138.214 9.1644 138.214 9.33333C138.214 13.3876 138.214 17.4842 138.214 21.5385C133.696 21.5385 129.136 21.5385 124.618 21.5385C123.698 21.5385 122.736 21.3695 121.815 21.2428C120.477 20.9472 119.096 20.4827 118.134 19.4691C117.549 18.8356 117.13 17.9909 117.13 17.1041C117.088 16.175 117.465 15.2459 118.051 14.5279C118.678 13.8522 119.473 13.3032 120.31 12.9653C120.77 12.7964 121.272 12.6274 121.732 12.4585C121.899 12.4163 122.066 12.3318 122.234 12.3741C122.276 12.3741 122.359 12.3318 122.401 12.2896C123.238 12.1207 124.116 11.994 124.995 11.9517C126.124 11.8673 127.296 11.9095 128.425 11.9095C130.224 11.9095 132.023 11.9095 133.821 11.9095C133.821 10.727 133.863 9.58673 133.78 8.40423C133.78 8.362 133.78 8.27752 133.78 8.23529C133.78 8.15083 133.78 8.06637 133.696 7.98191C133.487 7.34842 133.027 6.84163 132.399 6.58824C131.939 6.37707 131.437 6.25038 130.935 6.16591C130.809 6.12368 130.684 6.08146 130.558 6.08146C130.015 6.08146 129.471 5.99699 128.927 5.99699C128.007 5.99699 127.128 5.95476 126.208 6.03922C125.246 6.12369 124.242 6.25039 123.363 6.71494C123.029 6.88387 122.736 7.17949 122.527 7.51735C122.317 7.77074 122.234 8.15083 122.234 8.48869C122.192 8.69985 122.192 8.91101 122.192 9.16441C121.69 9.24887 121.146 9.20664 120.644 9.20664C119.849 9.20664 119.013 9.24887 118.218 9.16441C118.176 8.02414 118.971 7.0528 119.933 6.50378C120.184 6.37708 120.435 6.25038 120.728 6.12368C120.979 5.99698 121.23 5.91253 121.481 5.82806C122.066 5.65913 122.652 5.53243 123.238 5.40574C123.447 5.36351 123.614 5.32127 123.823 5.32127C123.949 5.32127 124.033 5.27904 124.158 5.23681C124.284 5.23681 124.409 5.19458 124.535 5.23681C124.618 5.40574 124.786 5.3635 124.911 5.32127ZM125.204 13.092L125.12 13.1342C124.995 13.0498 124.911 13.0498 124.869 13.2187C124.618 13.1765 124.409 13.3032 124.158 13.3454C123.865 13.4721 123.572 13.5566 123.321 13.7677C123.196 13.6833 122.903 13.81 122.987 13.9789C122.778 14.0633 122.61 14.2323 122.443 14.4012C121.188 15.5415 120.937 17.6531 121.899 19.0468C122.317 19.6802 123.029 20.1026 123.74 20.3982C124.618 20.736 125.539 20.7783 126.459 20.7783C128.927 20.7783 131.353 20.7783 133.821 20.7783C133.821 18.2021 133.821 15.6259 133.821 13.0498C131.772 13.0498 129.722 13.0498 127.63 13.0498C126.835 12.9653 125.999 12.9231 125.204 13.092ZM73.4574 5.44797C76.804 5.44797 80.1506 5.44797 83.539 5.44797C85.6724 5.44797 87.8477 5.40574 89.9812 5.44797C90.023 5.78583 90.023 6.08145 89.9812 6.41931C88.0151 6.41931 86.0071 6.41931 84.041 6.41931C84.041 11.4872 84.041 16.5551 84.041 21.6229C82.5769 21.6229 81.1127 21.6652 79.6486 21.6229C79.6486 21.4118 79.6904 21.2428 79.6904 21.0317C79.6904 16.8929 79.6904 12.7542 79.6904 8.57316C79.6486 7.85521 79.7323 7.09502 79.6486 6.37707C77.5988 6.37707 75.5909 6.37707 73.5411 6.37707C73.4993 6.08145 73.4993 5.78583 73.4574 5.44797ZM92.4493 5.44797C92.4911 5.53244 92.5748 5.61689 92.6166 5.70136C96.6325 10.8959 100.648 16.0905 104.664 21.3273C103.116 23.4389 101.611 25.5928 100.105 27.7466C100.105 27.7888 100.063 27.9155 100.021 28C100.397 28 100.816 28 101.192 28C101.318 28 101.443 27.9155 101.527 27.8733C101.82 27.451 102.113 27.0709 102.405 26.6486C102.573 26.3529 102.782 26.0995 102.991 25.8039C104.162 24.1991 105.292 22.5943 106.421 20.9894C107.844 18.9623 109.308 16.9351 110.73 14.908C112.654 12.2051 114.579 9.5445 116.461 6.84163C116.586 6.58824 116.754 6.37707 116.963 6.16591C117.13 5.95475 117.298 5.74359 117.381 5.49019C116.921 5.49019 116.419 5.49019 115.959 5.49019C115.833 5.61689 115.708 5.78582 115.624 5.91252C114.202 7.89743 112.78 9.88236 111.357 11.9095C111.232 12.1207 111.065 12.3318 110.897 12.543C110.144 13.5566 109.433 14.5701 108.722 15.5837C108.387 16.1327 107.927 16.5973 107.634 17.1463C107.593 17.273 107.509 17.3575 107.425 17.4419C107.174 17.6109 107.132 18.0754 106.798 18.0754C106.63 17.9065 106.505 17.6531 106.338 17.4842C106.254 17.3997 106.17 17.3152 106.128 17.1885C105.961 16.8929 105.752 16.6818 105.543 16.3861C104.622 15.2036 103.744 13.9789 102.782 12.7964C102.656 12.7119 102.573 12.5852 102.531 12.4585C102.28 12.0362 101.945 11.6983 101.694 11.3183C100.188 9.33334 98.6823 7.39065 97.1763 5.40574C96.9671 5.32127 96.758 5.3635 96.5488 5.3635C95.2102 5.44797 93.8297 5.44797 92.4493 5.44797ZM180.13 5.44797C181.594 5.44797 183.058 5.44797 184.522 5.44797C184.564 7.60182 184.522 9.75566 184.564 11.9095C185.944 11.9095 187.325 11.9095 188.705 11.9095C190.755 11.9095 192.847 11.9095 194.896 12.3741C194.98 12.4585 195.064 12.5008 195.189 12.4585C195.357 12.5008 195.482 12.543 195.649 12.5852C196.11 12.7542 196.528 12.9231 196.988 13.0498C197.867 13.4299 198.745 13.9789 199.331 14.7813C199.665 15.2036 199.833 15.7104 200 16.2172V17.3997C199.874 17.7376 199.749 18.1176 199.582 18.4555C199.456 18.4977 199.414 18.54 199.414 18.6667V18.7089C199.289 18.7089 199.247 18.7934 199.247 18.9201C198.787 19.5113 198.159 19.9336 197.49 20.3137C197.365 20.3137 197.239 20.356 197.197 20.4826C195.691 21.1584 194.06 21.454 192.47 21.5807C192.219 21.5807 192.01 21.6229 191.759 21.6229C191.299 21.6652 190.839 21.6652 190.42 21.6652C186.99 21.6652 183.56 21.6652 180.13 21.6652C180.088 16.3017 180.13 10.8537 180.13 5.44797ZM184.564 12.9653C184.522 15.5415 184.564 18.1176 184.564 20.6938C186.404 20.736 188.245 20.6938 190.086 20.6938C191.508 20.6938 193.056 20.5671 194.269 19.7647C194.311 19.7225 194.436 19.638 194.478 19.638C194.604 19.5535 194.771 19.4268 194.855 19.2579C194.98 19.1312 195.189 19.089 195.231 18.8778L195.273 18.7934C195.44 18.8778 195.566 18.54 195.482 18.4555C196.026 17.4419 195.984 16.0905 195.398 15.0769C195.524 14.9502 195.357 14.6124 195.189 14.7391C194.938 14.359 194.562 14.0634 194.227 13.8522C194.185 13.81 194.06 13.7255 193.976 13.6833L193.851 13.5988C193.683 13.4721 193.516 13.3876 193.349 13.3454C193.223 13.3032 193.098 13.2609 192.972 13.2609V13.1765L192.889 13.1342L192.805 13.1765C192.219 13.0498 191.634 12.9653 191.048 12.9653C190.337 12.8808 189.626 12.9653 188.914 12.9231C187.45 12.9653 185.986 12.9231 184.564 12.9653Z" fill="black"/>
</svg>
