<svg width="32" height="70" viewBox="0 0 32 70" xmlns="http://www.w3.org/2000/svg">
<path d="M1.9987 28V66.5C1.9987 68.4329 3.56584 70 5.4987 70H26.4987C28.4316 70 29.9987 68.4329 29.9987 66.5V28C30.643 28 31.1654 27.4776 31.1654 26.8333V19.8333C31.1654 19.189 30.643 18.6667 29.9987 18.6667H25.332V15.1667C25.332 14.5224 24.8096 14 24.1654 14H22.9987V10.5C22.9987 9.85571 22.4763 9.33333 21.832 9.33333H20.6654V1.16667C20.6654 0.522379 20.143 0 19.4987 0H10.1654C9.52108 0 8.9987 0.522379 8.9987 1.16667V5.83333C8.9987 6.47762 9.52108 7 10.1654 7H13.6654V9.33333H10.1654C9.52108 9.33333 8.9987 9.85571 8.9987 10.5V14H7.83203C7.18774 14 6.66536 14.5224 6.66536 15.1667V18.6667H1.9987C1.35441 18.6667 0.832031 19.189 0.832031 19.8333V26.8333C0.832031 27.4776 1.35441 28 1.9987 28ZM27.6654 66.5C27.6654 67.1443 27.143 67.6667 26.4987 67.6667H5.4987C4.85441 67.6667 4.33203 67.1443 4.33203 66.5V28H27.6654V66.5ZM14.832 4.66667H11.332V2.33333H18.332V9.33333H15.9987V5.83333C15.9987 5.18905 15.4763 4.66667 14.832 4.66667ZM11.332 11.6667H20.6654V14H11.332V11.6667ZM8.9987 16.3333H22.9987V18.6667H8.9987V16.3333ZM3.16536 21H28.832V25.6667H3.16536V21Z"/>
</svg>
