<svg width="70" height="71" viewBox="0 0 70 71" fill="none" xmlns="http://www.w3.org/2000/svg">
<mask id="path-1-inside-1" fill="white">
<path d="M0.000485221 35C0.000484616 41.9223 2.0532 48.6892 5.89905 54.445C9.74489 60.2007 15.2111 64.6867 21.6066 67.3358C28.002 69.9848 35.0393 70.678 41.8286 69.3275C48.618 67.977 54.8544 64.6436 59.7492 59.7487C64.6441 54.8539 67.9775 48.6175 69.328 41.8282C70.6785 35.0388 69.9853 28.0015 67.3363 21.6061C64.6872 15.2107 60.2012 9.74441 54.4454 5.89856C48.6897 2.05271 41.9228 -2.53717e-06 35.0005 -3.0598e-06L35.0005 35L0.000485221 35Z"/>
</mask>
<path d="M0.000485221 35C0.000484616 41.9223 2.0532 48.6892 5.89905 54.445C9.74489 60.2007 15.2111 64.6867 21.6066 67.3358C28.002 69.9848 35.0393 70.678 41.8286 69.3275C48.618 67.977 54.8544 64.6436 59.7492 59.7487C64.6441 54.8539 67.9775 48.6175 69.328 41.8282C70.6785 35.0388 69.9853 28.0015 67.3363 21.6061C64.6872 15.2107 60.2012 9.74441 54.4454 5.89856C48.6897 2.05271 41.9228 -2.53717e-06 35.0005 -3.0598e-06L35.0005 35L0.000485221 35Z" stroke="#B4B2BB" stroke-width="2" mask="url(#path-1-inside-1)"/>
<path d="M35 1.5299e-06C30.4037 1.73081e-06 25.8525 0.905306 21.6061 2.66422C17.3597 4.42314 13.5013 7.00122 10.2513 10.2513C7.00121 13.5013 4.42313 17.3597 2.66421 21.6061C0.905302 25.8525 -1.73081e-06 30.4037 -1.5299e-06 35L35 35L35 1.5299e-06Z" fill="#B4B2BB"/>
</svg>
