<svg width="9" height="13" viewBox="0 0 9 13" fill="none" xmlns="http://www.w3.org/2000/svg">
<path d="M4.69722 0.5C3.04275 0.5 1.69727 1.84548 1.69727 3.49995C1.69727 5.15443 3.04275 6.49991 4.69722 6.49991C6.35169 6.49991 7.69717 5.15443 7.69717 3.49995C7.69717 1.84548 6.35169 0.5 4.69722 0.5ZM4.69722 4.99993C3.86998 4.99993 3.19724 4.32719 3.19724 3.49995C3.19724 2.67272 3.86998 1.99998 4.69722 1.99998C5.52446 1.99998 6.1972 2.67272 6.1972 3.49995C6.1972 4.32719 5.52446 4.99993 4.69722 4.99993Z" fill="#1F1A3D"/>
<path d="M8.67555 6.42306C8.3823 6.12981 7.90831 6.12981 7.61506 6.42306C6.00709 8.03104 3.38963 8.03104 1.78091 6.42306C1.48766 6.12981 1.01367 6.12981 0.720422 6.42306C0.427177 6.71631 0.427177 7.1903 0.720422 7.48429C1.65341 8.41728 2.83614 8.94902 4.05562 9.08777L1.9174 11.226C1.62416 11.5192 1.62416 11.9932 1.9174 12.2865C2.21065 12.5797 2.68464 12.5797 2.97789 12.2865L4.69761 10.5667L6.41733 12.2865C6.56358 12.4327 6.75558 12.5062 6.94758 12.5062C7.13957 12.5062 7.33157 12.4327 7.47782 12.2865C7.77106 11.9932 7.77106 11.5192 7.47782 11.226L5.3396 9.08777C6.55908 8.94902 7.74181 8.41728 8.6748 7.48429C8.96804 7.19105 8.96804 6.71631 8.67555 6.42306Z" fill="#1F1A3D"/>
</svg>
