<svg width="150" height="33" viewBox="0 0 150 33" fill="none" xmlns="http://www.w3.org/2000/svg">
<path d="M17.5095 25.2449C11.8123 25.9579 6.98843 21.1345 7.69538 15.3883C8.1944 11.4877 11.3133 8.30002 15.1807 7.79671C20.8779 7.04174 25.7017 11.9071 24.9948 17.6533C24.4958 21.5539 21.3769 24.7416 17.5095 25.2449ZM17.9669 0.0792459C7.6538 -0.92738 -0.95432 7.79671 0.0853072 18.2405C0.833839 25.9579 7.03002 32.1654 14.6817 32.9204C25.0364 33.927 33.6445 25.2449 32.6049 14.8011C31.8563 7.08368 25.6601 0.834215 17.9669 0.0792459Z" fill="#0160F5"/>
<path d="M93.1534 25.161C85.169 25.874 78.4322 21.0506 79.4303 15.3045C80.1372 11.4038 84.5037 8.21614 89.9097 7.71283C97.8941 6.95786 104.631 11.8232 103.633 17.5694C102.926 21.47 98.5594 24.6577 93.1534 25.161ZM93.7771 0.0792459C79.3471 -0.92738 67.2874 7.79671 68.7429 18.2405C69.7825 25.9579 78.4738 32.1654 89.2028 32.9204C103.716 33.927 115.776 25.2449 114.32 14.8011C113.239 7.08368 104.548 0.834215 93.7771 0.0792459V0.0792459Z" fill="#0160F5"/>
<path d="M41.3791 1.00391C39.0087 1.00391 37.1374 3.18496 37.6364 5.65961C38.0107 7.46317 39.6741 8.72147 41.5038 8.72147H52.1496L35.6403 30.7836C35.0997 31.4967 35.5987 32.5452 36.5136 32.5452L62.5043 32.5033C64.334 32.5033 66.039 31.245 66.3717 29.4414C66.8707 26.9668 64.9994 24.7857 62.629 24.7857L49.6545 24.8277L66.1638 2.76552C66.7044 2.05249 66.2054 1.00391 65.2905 1.00391H41.3791" fill="#0160F5"/>
<path d="M145.259 1.08711C143.471 1.4646 142.265 3.14233 142.265 4.94589V17.7805L121.639 1.29682C120.932 0.709616 119.851 1.25488 119.851 2.17763L119.892 28.6439C119.892 30.4894 121.098 32.1252 122.886 32.5027C125.34 33.006 127.544 31.1185 127.544 28.7278V15.8092L148.212 32.2929C148.919 32.8801 150 32.3349 150 31.4121L149.958 4.86201C149.917 2.42929 147.713 0.583786 145.259 1.08711" fill="#0160F5"/>
</svg>
