<svg width="151" height="33" viewBox="0 0 151 33" fill="none" xmlns="http://www.w3.org/2000/svg">
<path d="M17.5754 25.2449C11.8568 25.9579 7.01474 21.1345 7.72435 15.3883C8.22525 11.4877 11.3559 8.30002 15.2379 7.79671C20.9565 7.04174 25.7985 11.9071 25.0889 17.6533C24.588 21.5539 21.4574 24.7416 17.5754 25.2449ZM18.0345 0.0792459C7.68261 -0.92738 -0.957913 7.79671 0.0856284 18.2405C0.836978 25.9579 7.05649 32.1654 14.737 32.9204C25.1306 33.927 33.7712 25.2449 32.7276 14.8011C31.9763 7.08368 25.7568 0.834215 18.0345 0.0792459Z" fill="white"/>
<path d="M93.504 25.161C85.4896 25.874 78.7274 21.0506 79.7292 15.3045C80.4388 11.4038 84.8217 8.21614 90.2481 7.71283C98.2625 6.95786 105.025 11.8232 104.023 17.5694C103.313 21.47 98.9304 24.6577 93.504 25.161ZM94.1301 0.0792459C79.6457 -0.92738 67.5407 7.79671 69.0016 18.2405C70.0452 25.9579 78.7692 32.1654 89.5385 32.9204C104.106 33.927 116.211 25.2449 114.75 14.8011C113.665 7.08368 104.941 0.834215 94.1301 0.0792459Z" fill="white"/>
<path d="M41.5348 1.00391C39.1555 1.00391 37.2772 3.18497 37.7781 5.65963C38.1537 7.4632 39.8234 8.72151 41.66 8.72151H52.3459L35.7745 30.7838C35.2318 31.4968 35.7327 32.5454 36.651 32.5454L62.7395 32.5035C64.5762 32.5035 66.2876 31.2452 66.6215 29.4416C67.1224 26.9669 65.244 24.7859 62.8648 24.7859L49.8414 24.8278L66.4128 2.76553C66.9554 2.05249 66.4545 1.00391 65.5362 1.00391H41.5348" fill="white"/>
<path d="M145.806 1.08711C144.011 1.4646 142.801 3.14233 142.801 4.94589V17.7805L122.097 1.29682C121.387 0.709616 120.302 1.25488 120.302 2.17763L120.343 28.6439C120.343 30.4894 121.554 32.1252 123.349 32.5026C125.812 33.006 128.024 31.1185 128.024 28.7278V15.8092L148.77 32.2929C149.479 32.8801 150.565 32.3349 150.565 31.4121L150.523 4.862C150.481 2.42929 148.269 0.583786 145.806 1.08711Z" fill="white"/>
</svg>
