<svg width="11" height="13" viewBox="0 0 11 13" fill="none" xmlns="http://www.w3.org/2000/svg">
<path d="M10.9934 3.51245C10.3103 3.51245 9.68 3.28522 9.17387 2.9019C8.59339 2.46247 8.17632 1.81788 8.02904 1.07494C7.99257 0.891373 7.97294 0.70194 7.97107 0.507812H6.0197V5.8617L6.01736 8.79427C6.01736 9.57829 5.50888 10.2431 4.80404 10.4769C4.59948 10.5447 4.37855 10.5769 4.14851 10.5642C3.85489 10.548 3.57972 10.459 3.34057 10.3154C2.83163 10.0097 2.48657 9.45529 2.47721 8.82103C2.46249 7.82973 3.26061 7.02153 4.24717 7.02153C4.44191 7.02153 4.62893 7.05346 4.80404 7.11144V5.64809V5.12204C4.61935 5.09458 4.43139 5.08026 4.24132 5.08026C3.16149 5.08026 2.15156 5.53095 1.42964 6.34291C0.883997 6.95651 0.556704 7.73936 0.506207 8.56024C0.440047 9.63862 0.833033 10.6637 1.59516 11.42C1.70714 11.5311 1.82473 11.6341 1.9477 11.7292C2.60112 12.2341 3.39995 12.5078 4.24132 12.5078C4.43139 12.5078 4.61935 12.4937 4.80404 12.4663C5.59001 12.3494 6.3152 11.9881 6.88749 11.42C7.5907 10.7222 7.97925 9.79566 7.98346 8.80953L7.9734 4.43027C8.30888 4.69012 8.67568 4.90514 9.06937 5.07204C9.68164 5.33143 10.3308 5.46288 10.999 5.46264V4.0399V3.51198C10.9995 3.51245 10.9939 3.51245 10.9934 3.51245Z" fill="#1F1A3D"/>
</svg>
