<svg width="200" height="51" viewBox="0 0 200 51" fill="none" xmlns="http://www.w3.org/2000/svg">
<path fill-rule="evenodd" clip-rule="evenodd" d="M197.809 22.5796C198.975 22.5796 200 21.5949 200 20.3818C200 19.1858 198.975 18.2358 197.809 18.2358C196.607 18.2358 195.6 19.1858 195.6 20.3818C195.6 21.5949 196.607 22.5796 197.809 22.5796ZM197.809 14.7892C198.975 14.7892 200 13.8399 200 12.5915C200 11.3955 198.975 10.4284 197.809 10.4284C196.607 10.4284 195.6 11.3955 195.6 12.5915C195.6 13.8399 196.607 14.7892 197.809 14.7892ZM129.624 16.513C129.624 19.309 127.68 21.4191 124.817 21.4191C121.953 21.4191 120.009 19.309 120.009 16.513C120.009 13.7167 121.953 11.5891 124.817 11.5891C127.68 11.5891 129.624 13.7167 129.624 16.513ZM115.609 16.513C115.609 21.7532 119.514 25.6396 124.817 25.6396C130.119 25.6396 134.025 21.7358 134.025 16.513C134.025 11.2724 130.083 7.36803 124.817 7.36803C119.514 7.36803 115.609 11.2724 115.609 16.513ZM110.201 25.0067C111.014 25.8328 112.374 25.8682 113.205 25.0416C114.018 24.2506 114.106 22.8786 113.294 22.0523L107.762 16.372L113.082 10.9029C113.876 10.0767 113.806 8.72238 112.993 7.94855C112.18 7.12174 110.819 7.15757 110.023 7.98378L104.528 13.6108C104.05 14.1039 103.714 14.1738 103.361 14.1738C102.813 14.1738 102.353 13.8046 102.353 13.2419V9.47843C102.353 8.30024 101.363 7.35058 100.179 7.35058C98.9958 7.35058 98.0057 8.30024 98.0057 9.47843V23.5116C98.0057 24.6901 98.9958 25.6396 100.179 25.6396C101.363 25.6396 102.353 24.6901 102.353 23.5116V19.5195C102.353 18.9748 102.813 18.6056 103.361 18.6056C103.714 18.6056 104.05 18.6763 104.528 19.1677L110.201 25.0067ZM190.262 11.8348C191.464 11.8348 192.418 10.9029 192.418 9.72504C192.418 8.58176 191.464 7.61434 190.262 7.61434H186.975C181.602 7.61434 177.785 11.4308 177.785 16.548C177.785 21.6653 181.602 25.481 186.975 25.481H190.262C191.464 25.481 192.418 24.5491 192.418 23.371C192.418 22.2281 191.464 21.2606 190.262 21.2606H186.851C183.988 21.2606 182.097 19.2563 182.097 16.548C182.097 13.8399 183.988 11.8348 186.851 11.8348H190.262ZM170.856 16.513C170.856 19.309 168.912 21.4191 166.05 21.4191C163.186 21.4191 161.242 19.309 161.242 16.513C161.242 13.7167 163.186 11.5891 166.05 11.5891C168.912 11.5891 170.856 13.7167 170.856 16.513ZM156.841 16.513C156.841 21.7532 160.747 25.6396 166.05 25.6396C171.352 25.6396 175.258 21.7358 175.258 16.513C175.258 11.2724 171.316 7.36803 166.05 7.36803C160.747 7.36803 156.841 11.2724 156.841 16.513ZM70.0908 17.1101L64.9911 8.42339C64.4073 7.43879 63.1709 7.08681 62.1103 7.56193C61.0317 8.17708 60.697 9.47844 61.315 10.516L67.4104 20.7573C66.6734 21.2432 65.8757 21.414 65.0087 21.4896C63.8246 21.5949 63.0289 22.4389 63.0289 23.5468C63.0289 24.8659 64.1075 25.6045 65.2036 25.6045C67.6771 25.6045 69.8335 24.3559 71.3886 22.6147C72.803 21.032 73.8812 19.0275 74.8883 17.1456L78.476 10.4459C79.0238 9.40827 78.6885 8.05393 77.5743 7.52641C76.5321 7.03382 75.2596 7.47372 74.7119 8.49384L70.0908 17.1101ZM85.4401 11.8174V23.5116C85.4401 24.7075 86.4469 25.6396 87.6493 25.6396C88.8683 25.6396 89.8578 24.7075 89.8578 23.5116V11.8174H93.1448C94.3474 11.8174 95.3191 10.8677 95.3191 9.67234C95.3191 8.5113 94.3474 7.54388 93.1448 7.54388H82.1346C80.9323 7.54388 79.9604 8.5113 79.9604 9.67234C79.9604 10.8677 80.9323 11.8174 82.1346 11.8174H85.4401ZM137.49 23.5116C137.506 24.6901 138.497 25.6396 139.68 25.6396C140.865 25.6396 141.854 24.6901 141.854 23.5116V18.6405H149.012V23.5116C149.012 24.6901 150.019 25.6396 151.203 25.6396C152.387 25.6396 153.378 24.6901 153.378 23.5116V9.47843C153.378 8.30024 152.371 7.35058 151.185 7.35058C150.001 7.35058 149.012 8.30024 149.012 9.47843V14.3492H141.836V9.47843C141.836 8.30024 140.847 7.35058 139.663 7.35058C138.479 7.35058 137.49 8.30024 137.49 9.47843V23.5116Z" fill="#0DB14B"/>
<path d="M62.9378 40.0604L66.1369 35.6555C66.2756 35.4681 66.4538 35.3203 66.7113 35.3203C67.1173 35.3203 67.276 35.5961 67.276 35.9313V41.519C67.276 41.8442 67.0977 42.1203 66.6917 42.1203C66.2756 42.1203 66.0874 41.8442 66.0874 41.519V37.3997L62.8685 41.7753C62.7396 41.943 62.5613 42.1203 62.3137 42.1203C61.9473 42.1203 61.749 41.8936 61.749 41.519V35.9313C61.749 35.606 61.9276 35.3203 62.3433 35.3203C62.7495 35.3203 62.9378 35.606 62.9378 35.9313V40.0604Z" fill="black"/>
<path d="M69.199 40.7539C69.6447 40.7539 69.8922 41.079 69.8922 41.4437C69.8922 41.8179 69.6447 42.1235 69.199 42.1235C68.7532 42.1235 68.5156 41.8179 68.5156 41.4437C68.5156 41.079 68.7532 40.7539 69.199 40.7539Z" fill="black"/>
<path d="M71.576 40.7539C72.0216 40.7539 72.2692 41.079 72.2692 41.4437C72.2692 41.8179 72.0216 42.1235 71.576 42.1235C71.1302 42.1235 70.8926 41.8179 70.8926 41.4437C70.8926 41.079 71.1302 40.7539 71.576 40.7539Z" fill="black"/>
<path d="M77.0832 40.0604L80.2824 35.6555C80.421 35.4681 80.5992 35.3203 80.8568 35.3203C81.2628 35.3203 81.4214 35.5961 81.4214 35.9313V41.519C81.4214 41.8442 81.2432 42.1203 80.837 42.1203C80.421 42.1203 80.2327 41.8442 80.2327 41.519V37.3997L77.0138 41.7753C76.8849 41.943 76.7067 42.1203 76.4592 42.1203C76.0928 42.1203 75.8945 41.8936 75.8945 41.519V35.9313C75.8945 35.606 76.073 35.3203 76.4888 35.3203C76.8949 35.3203 77.0832 35.606 77.0832 35.9313V40.0604Z" fill="black"/>
<path d="M83.6426 40.7539C84.088 40.7539 84.3359 41.079 84.3359 41.4437C84.3359 41.8179 84.088 42.1235 83.6426 42.1235C83.1966 42.1235 82.959 41.8179 82.959 41.4437C82.959 41.079 83.1966 40.7539 83.6426 40.7539Z" fill="black"/>
<path d="M86.317 40.7539C86.7628 40.7539 87.0104 41.079 87.0104 41.4437C87.0104 41.8179 86.7628 42.1235 86.317 42.1235C85.8714 42.1235 85.6338 41.8179 85.6338 41.4437C85.6338 41.079 85.8714 40.7539 86.317 40.7539Z" fill="black"/>
<path d="M94.1805 41.1652C95.5274 41.1652 96.191 40.0912 96.191 38.7213C96.191 37.3611 95.5274 36.2772 94.1805 36.2772C92.8432 36.2772 92.1796 37.3611 92.1796 38.7213C92.1796 40.0912 92.8432 41.1652 94.1805 41.1652ZM94.1805 35.2227C96.3297 35.2227 97.439 36.7697 97.439 38.7213C97.439 40.6822 96.3297 42.2196 94.1805 42.2196C92.0311 42.2196 90.9316 40.6822 90.9316 38.7213C90.9316 36.7697 92.0311 35.2227 94.1805 35.2227Z" fill="black"/>
<path d="M102.968 39.1737H99.8185V41.519C99.8185 41.8541 99.6103 42.1203 99.2242 42.1203C98.8281 42.1203 98.6299 41.8541 98.6299 41.519V35.9313C98.6299 35.5961 98.8281 35.3203 99.2242 35.3203C99.6103 35.3203 99.8185 35.5961 99.8185 35.9313V38.1189H102.968V35.9313C102.968 35.5961 103.166 35.3203 103.562 35.3203C103.949 35.3203 104.157 35.5961 104.157 35.9313V41.519C104.157 41.8541 103.949 42.1203 103.562 42.1203C103.166 42.1203 102.968 41.8541 102.968 41.519V39.1737Z" fill="black"/>
<path d="M109.972 35.3203C110.368 35.3203 110.566 35.5961 110.566 35.9313V41.519C110.566 41.8541 110.368 42.1203 109.972 42.1203C109.576 42.1203 109.377 41.8541 109.377 41.519V36.3747H107.545C107.525 37.5675 107.446 39.4002 107.089 40.6618C106.862 41.47 106.357 42.1694 105.574 42.1694C105 42.1694 104.732 41.8246 104.841 41.4009C104.92 41.0758 105.178 41.0463 105.416 41.0463C105.663 41.0463 105.901 40.8491 106.04 40.386C106.297 39.5678 106.426 38.0699 106.456 35.9313C106.465 35.557 106.674 35.3203 107.02 35.3203H109.972Z" fill="black"/>
<path d="M113.528 39.2729H115.42L114.459 36.7895L113.528 39.2729ZM115.757 40.1994H113.211L112.696 41.5887C112.577 41.9337 112.32 42.2491 111.884 42.0717C111.577 41.9438 111.557 41.5987 111.686 41.2635L113.915 35.7055C114.043 35.3704 114.242 35.2227 114.519 35.2227C114.826 35.2227 114.994 35.4098 115.093 35.6463L117.391 41.254C117.51 41.5493 117.47 41.9438 117.124 42.0717C116.747 42.2097 116.45 42.0322 116.312 41.658L115.757 40.1994Z" fill="black"/>
<path d="M119.66 34.259C119.511 34.0618 119.491 33.8157 119.66 33.658C119.887 33.4409 120.115 33.5791 120.304 33.7564C120.581 34.0226 120.868 34.131 121.225 34.131C121.581 34.131 121.859 34.0323 122.136 33.7665C122.324 33.5791 122.552 33.4607 122.78 33.658C122.968 33.8157 122.918 34.0618 122.77 34.259C122.522 34.5941 121.977 34.8898 121.225 34.8898C120.472 34.8898 119.907 34.5941 119.66 34.259ZM119.69 40.0635L122.889 35.6586C123.027 35.4712 123.206 35.3234 123.463 35.3234C123.869 35.3234 124.028 35.5992 124.028 35.9344V41.5221C124.028 41.8473 123.849 42.1234 123.443 42.1234C123.027 42.1234 122.839 41.8473 122.839 41.5221V37.4028L119.62 41.7783C119.491 41.9461 119.313 42.1234 119.066 42.1234C118.699 42.1234 118.501 41.8967 118.501 41.5221V35.9344C118.501 35.6091 118.679 35.3234 119.095 35.3234C119.501 35.3234 119.69 35.6091 119.69 35.9344V40.0635Z" fill="black"/>
<path d="M130.051 39.1737H126.901V41.519C126.901 41.8541 126.693 42.1203 126.306 42.1203C125.91 42.1203 125.712 41.8541 125.712 41.519V35.9313C125.712 35.5961 125.91 35.3203 126.306 35.3203C126.693 35.3203 126.901 35.5961 126.901 35.9313V38.1189H130.051V35.9313C130.051 35.5961 130.248 35.3203 130.644 35.3203C131.031 35.3203 131.238 35.5961 131.238 35.9313V41.519C131.238 41.8541 131.031 42.1203 130.644 42.1203C130.248 42.1203 130.051 41.8541 130.051 41.519V39.1737Z" fill="black"/>
<path fill-rule="evenodd" clip-rule="evenodd" d="M47.4114 5.52398C47.4114 2.47354 44.8956 0 41.7927 0H5.61894C2.51592 0 0 2.47354 0 5.52398V27.6952C0 40.5659 10.6131 51 23.7055 51C36.7984 51 47.4114 40.5659 47.4114 27.6952C47.4105 18.8705 47.4132 14.349 47.4114 5.52398Z" fill="#FFC709"/>
<path fill-rule="evenodd" clip-rule="evenodd" d="M29.8221 33.8557C29.8221 32.6544 28.8257 31.6836 27.6177 31.6836C26.4089 31.6836 25.4125 32.6544 25.4125 33.8557C25.4125 35.0583 26.4089 36.0492 27.6177 36.0492C28.8257 36.0492 29.8221 35.0583 29.8221 33.8557ZM21.9998 33.8557C21.9998 32.6544 21.004 31.6836 19.7741 31.6836C18.5658 31.6836 17.5908 32.6544 17.5908 33.8557C17.5908 35.0583 18.5658 36.0492 19.7741 36.0492C21.004 36.0492 21.9998 35.0583 21.9998 33.8557Z" fill="black"/>
</svg>
