<svg width="13" height="8" viewBox="0 0 13 8" fill="none" xmlns="http://www.w3.org/2000/svg">
<path d="M10.4565 5.01009C10.2625 4.76509 10.318 4.65609 10.4565 4.43709C10.459 4.43459 12.0605 2.22159 12.2255 1.47109L12.2265 1.47059C12.3085 1.19709 12.2265 0.996094 11.83 0.996094H10.518C10.184 0.996094 10.03 1.16859 9.94752 1.36159C9.94752 1.36159 9.27952 2.96059 8.33452 3.99709C8.02952 4.29659 7.88852 4.39259 7.72202 4.39259C7.64002 4.39259 7.51252 4.29659 7.51252 4.02309V1.47059C7.51252 1.14259 7.41902 0.996094 7.14252 0.996094H5.07952C4.87002 0.996094 4.74552 1.14909 4.74552 1.29159C4.74552 1.60259 5.21802 1.67409 5.26702 2.54909V4.44759C5.26702 4.86359 5.19152 4.94009 5.02402 4.94009C4.57802 4.94009 3.49552 3.33459 2.85402 1.49709C2.72452 1.14059 2.59802 0.996594 2.26152 0.996594H0.949023C0.574523 0.996594 0.499023 1.16909 0.499023 1.36209C0.499023 1.70309 0.945023 3.39859 2.57302 5.63859C3.65802 7.1676 5.18602 7.9961 6.57602 7.9961C7.41152 7.9961 7.51352 7.8121 7.51352 7.4956C7.51352 6.0346 7.43802 5.89659 7.85652 5.89659C8.05052 5.89659 8.38452 5.99259 9.16452 6.73009C10.056 7.6046 10.2025 7.9961 10.7015 7.9961H12.0135C12.3875 7.9961 12.577 7.8121 12.468 7.4491C12.2185 6.6856 10.5325 5.11509 10.4565 5.01009Z" fill="#1F1A3D"/>
</svg>
