<svg width="200" height="24" viewBox="0 0 200 24" fill="none" xmlns="http://www.w3.org/2000/svg">
<path d="M6.06007 23.4139L0 0.424164H3.9847L8.63352 18.0694L13.6144 0.424164H17.3501L22.4139 18.1542L27.1458 0.424164H31.1305L25.0704 23.4139H20.4216L15.5237 6.19279L10.6259 23.4139H6.06007ZM33.87 0.424164H37.6886V23.4139H33.87V0.424164ZM45.7411 19.766H54.9557V23.329H42.0054V0.424164H45.7411V19.766ZM66.6607 0.424164C69.8153 0.424164 72.3887 1.52699 74.3811 3.73264C76.4565 5.9383 77.5357 8.65295 77.5357 11.8766C77.5357 15.1002 76.4565 17.8149 74.3811 20.0205C72.3057 22.2262 69.7323 23.329 66.6607 23.329H57.7782V0.424164H66.6607ZM66.6607 19.8509C68.8191 19.8509 70.5624 19.0874 71.8907 17.6452C73.2189 16.1182 73.966 14.2519 73.966 11.9614C73.966 9.67094 73.3019 7.80462 71.8907 6.27763C70.5624 4.75064 68.8191 4.07197 66.6607 4.07197H61.5138V19.8509H66.6607ZM97.6252 16.7969C97.6252 18.6632 96.9611 20.275 95.6328 21.4627C94.3046 22.6504 92.7273 23.329 90.818 23.329H81.0223V0.424164H90.0709C91.8972 0.424164 93.4744 1.10283 94.8027 2.29049C96.1309 3.47815 96.712 5.00514 96.712 6.78662C96.712 8.82261 95.9649 10.3496 94.3876 11.4524C96.38 12.5553 97.6252 14.4216 97.6252 16.7969ZM84.7579 3.98714V10.0103H90.0709C91.7311 10.0103 92.9764 8.65295 92.9764 6.95629C92.9764 5.25963 91.7311 3.90231 90.0709 3.90231H84.7579V3.98714ZM90.818 19.8509C92.5613 19.8509 93.8895 18.4087 93.8895 16.6272C93.8895 14.8457 92.5613 13.4036 90.818 13.4036H84.8409V19.8509H90.818ZM104.847 19.766H114.892V23.4139H101.112V0.424164H114.726V4.07197H104.847V10.0103H113.896V13.5732H104.847V19.766ZM131.163 23.4139L126.348 15.0154H121.948V23.4139H118.213V0.424164H127.261C129.337 0.424164 130.997 1.10283 132.408 2.62982C133.82 4.07197 134.567 5.76863 134.567 7.88945C134.567 10.7738 132.74 13.4884 130.084 14.5064L135.231 23.4139H131.163ZM121.948 3.98714V11.7069H127.261C129.254 11.7069 130.831 10.0103 130.831 7.88945C130.831 5.76863 129.254 4.07197 127.261 4.07197C127.344 3.98714 121.948 3.98714 121.948 3.98714ZM151.087 23.4139L146.272 15.0154H141.872V23.4139H138.136V0.424164H147.185C149.26 0.424164 150.921 1.10283 152.332 2.62982C153.743 4.07197 154.49 5.76863 154.49 7.88945C154.49 10.7738 152.664 13.4884 150.007 14.5064L155.154 23.4139H151.087ZM141.872 3.98714V11.7069H147.185C149.177 11.7069 150.755 10.0103 150.755 7.88945C150.755 5.76863 149.177 4.07197 147.185 4.07197H141.872V3.98714ZM157.894 0.424164H161.629V23.4139H157.894V0.424164ZM169.765 19.766H179.81V23.4139H166.029V0.424164H179.644V4.07197H169.765V10.0103H178.813V13.5732H169.765V19.766ZM182.383 18.1542L185.621 16.2879C186.534 18.9177 188.36 20.1902 191.266 20.1902C194.088 20.1902 195.499 19.0025 195.499 17.1362C195.499 16.2031 195.084 15.5244 194.337 15.0154C193.59 14.5064 192.262 13.9126 190.269 13.4036C188.111 12.7249 187.032 12.3008 185.538 11.2828C184.043 10.1799 183.379 8.73778 183.379 6.61696C183.379 4.58097 184.126 2.96915 185.538 1.78149C186.949 0.59383 188.692 0 190.685 0C194.337 0 197.16 1.95115 198.571 5.08997L195.416 6.95629C194.503 4.83547 192.843 3.73264 190.685 3.73264C188.526 3.73264 187.115 4.83547 187.115 6.61696C187.115 8.31361 188.194 9.07711 191.681 10.1799C192.511 10.4344 193.175 10.6889 193.59 10.8586C194.005 11.0283 194.586 11.1979 195.25 11.5373C195.997 11.7918 196.579 12.2159 196.911 12.4704C198.156 13.4036 199.401 15.0154 199.235 17.2211C199.235 19.257 198.488 20.9537 196.994 22.1414C195.499 23.329 193.59 23.9229 191.183 23.9229C186.783 23.838 183.628 21.7172 182.383 18.1542Z" fill="#BF3D90"/>
</svg>
