<svg width="200" height="24" viewBox="0 0 200 24" fill="none" xmlns="http://www.w3.org/2000/svg">
<path d="M6.08288 23.4139L0 0.424164H3.9997L8.66602 18.0694L13.6656 0.424164H17.4154L22.4983 18.1542L27.248 0.424164H31.2477L25.1648 23.4139H20.4985L15.5822 6.19279L10.6659 23.4139H6.08288ZM33.9975 0.424164H37.8305V23.4139H33.9975V0.424164ZM45.9132 19.766H55.1625V23.329H42.1635V0.424164H45.9132V19.766ZM66.9117 0.424164C70.0781 0.424164 72.6612 1.52699 74.6611 3.73264C76.7443 5.9383 77.8275 8.65295 77.8275 11.8766C77.8275 15.1002 76.7443 17.8149 74.6611 20.0205C72.5779 22.2262 69.9948 23.329 66.9117 23.329H57.9957V0.424164H66.9117ZM66.9117 19.8509C69.0782 19.8509 70.828 19.0874 72.1613 17.6452C73.4945 16.1182 74.2444 14.2519 74.2444 11.9614C74.2444 9.67094 73.5778 7.80462 72.1613 6.27763C70.828 4.75064 69.0782 4.07197 66.9117 4.07197H61.7454V19.8509H66.9117ZM97.9927 16.7969C97.9927 18.6632 97.326 20.275 95.9928 21.4627C94.6596 22.6504 93.0764 23.329 91.1599 23.329H81.3272V0.424164H90.4099C92.2431 0.424164 93.8263 1.10283 95.1595 2.29049C96.4928 3.47815 97.0761 5.00514 97.0761 6.78662C97.0761 8.82261 96.3261 10.3496 94.7429 11.4524C96.7428 12.5553 97.9927 14.4216 97.9927 16.7969ZM85.077 3.98714V10.0103H90.4099C92.0764 10.0103 93.3264 8.65295 93.3264 6.95629C93.3264 5.25963 92.0764 3.90231 90.4099 3.90231H85.077V3.98714ZM91.1599 19.8509C92.9097 19.8509 94.243 18.4087 94.243 16.6272C94.243 14.8457 92.9097 13.4036 91.1599 13.4036H85.1603V19.8509H91.1599ZM105.242 19.766H115.325V23.4139H101.492V0.424164H115.158V4.07197H105.242V10.0103H114.325V13.5732H105.242V19.766ZM131.657 23.4139L126.824 15.0154H122.408V23.4139H118.658V0.424164H127.74C129.824 0.424164 131.49 1.10283 132.907 2.62982C134.323 4.07197 135.073 5.76863 135.073 7.88945C135.073 10.7738 133.24 13.4884 130.574 14.5064L135.74 23.4139H131.657ZM122.408 3.98714V11.7069H127.74C129.74 11.7069 131.324 10.0103 131.324 7.88945C131.324 5.76863 129.74 4.07197 127.74 4.07197C127.824 3.98714 122.408 3.98714 122.408 3.98714ZM151.655 23.4139L146.822 15.0154H142.406V23.4139H138.656V0.424164H147.739C149.822 0.424164 151.489 1.10283 152.905 2.62982C154.322 4.07197 155.072 5.76863 155.072 7.88945C155.072 10.7738 153.239 13.4884 150.572 14.5064L155.738 23.4139H151.655ZM142.406 3.98714V11.7069H147.739C149.739 11.7069 151.322 10.0103 151.322 7.88945C151.322 5.76863 149.739 4.07197 147.739 4.07197H142.406V3.98714ZM158.488 0.424164H162.238V23.4139H158.488V0.424164ZM170.404 19.766H180.487V23.4139H166.654V0.424164H180.32V4.07197H170.404V10.0103H179.487V13.5732H170.404V19.766ZM183.07 18.1542L186.319 16.2879C187.236 18.9177 189.069 20.1902 191.986 20.1902C194.819 20.1902 196.235 19.0025 196.235 17.1362C196.235 16.2031 195.819 15.5244 195.069 15.0154C194.319 14.5064 192.986 13.9126 190.986 13.4036C188.819 12.7249 187.736 12.3008 186.236 11.2828C184.736 10.1799 184.07 8.73778 184.07 6.61696C184.07 4.58097 184.82 2.96915 186.236 1.78149C187.653 0.59383 189.402 0 191.402 0C195.069 0 197.902 1.95115 199.318 5.08997L196.152 6.95629C195.235 4.83547 193.569 3.73264 191.402 3.73264C189.236 3.73264 187.819 4.83547 187.819 6.61696C187.819 8.31361 188.903 9.07711 192.402 10.1799C193.236 10.4344 193.902 10.6889 194.319 10.8586C194.735 11.0283 195.319 11.1979 195.985 11.5373C196.735 11.7918 197.319 12.2159 197.652 12.4704C198.902 13.4036 200.152 15.0154 199.985 17.2211C199.985 19.257 199.235 20.9537 197.735 22.1414C196.235 23.329 194.319 23.9229 191.902 23.9229C187.486 23.838 184.32 21.7172 183.07 18.1542Z" fill="white"/>
</svg>
