<svg width="201" height="39" viewBox="0 0 201 39" fill="none" xmlns="http://www.w3.org/2000/svg">
<path d="M12.3198 2.94767H10.5058C7.7093 2.94767 5.06395 4.76163 5.06395 10.1279C5.06395 15.2674 7.55814 16.9302 10.5058 16.9302H12.3198V2.94767ZM9.44767 19.8023L4.00581 32.0465H0L5.97093 18.9709C3.17442 17.5349 1.28488 14.8895 1.28488 10.1279C1.28488 3.32558 5.51744 0 10.5814 0H15.7209V31.9709H12.3198V19.8023H9.44767Z" fill="#FF0000"/>
<path d="M82.6109 20.788C82.6109 13.7589 85.3318 9.22402 90.6225 9.22402C92.6632 9.22402 93.7969 9.75309 94.7795 10.3577L94.2504 13.6833C93.3435 12.8519 91.983 12.0961 90.5469 12.0961C88.0528 12.0961 86.2388 14.8926 86.2388 20.5612C86.2388 26.1543 87.5993 29.4043 90.3958 29.4043C92.0586 29.4043 93.419 28.724 94.1749 28.0438L95.0062 30.6136C93.7969 31.6717 92.3609 32.2763 90.3202 32.2763C85.483 32.3519 82.6109 28.4217 82.6109 20.788ZM72.4074 20.788V32.0496H68.9307V9.45076H72.4074V19.881L77.8493 9.45076H81.4016L75.8086 20.0322L82.233 31.974H78.4539L72.4074 20.788ZM56.0062 18.7473H61.7504C61.7504 14.8926 61.1458 12.0961 59.1051 12.0961C56.9888 12.0205 56.233 14.6659 56.0062 18.7473ZM59.8609 32.3519C55.1749 32.3519 52.3783 28.6484 52.3783 21.695C52.3783 14.4391 54.419 9.14844 59.1807 9.14844C62.9597 9.14844 65.3783 11.9449 65.3783 19.5787V21.4682H55.9307C55.9307 26.5322 57.3667 29.2531 60.1632 29.2531C62.1283 29.2531 63.7155 28.3461 64.6225 27.7415L65.4539 30.3868C63.9423 31.5961 62.0528 32.3519 59.8609 32.3519ZM45.0469 12.3229H41.1923V12.7008C41.1923 17.4624 40.9655 24.3403 39.076 29.1775H45.0469V12.3229ZM50.2621 36.4333H47.0876V32.0496H37.4888V36.5089H34.39V29.2531H35.7504C37.7911 24.4915 38.0179 17.538 38.0179 11.4915V9.60193H48.4481V29.2531H50.2621V36.4333ZM32.3493 9.45076V31.974H28.8725V21.9217H23.6574V32.0496H20.1807V9.45076H23.6574V18.974H28.8725V9.45076H32.3493Z" fill="black"/>
<path d="M108.838 9.45022C108.384 7.78743 108.006 6.35138 107.779 4.91533H107.628C107.704 6.42696 107.779 8.01417 107.779 9.67696V32.0491H105.739V0.078125H108.309L113.75 20.4851C113.977 21.3165 114.279 22.9793 114.431 24.1886H114.582C114.733 22.9793 115.111 21.3165 115.338 20.4851L120.779 0.078125H123.274V32.0491H121.157V9.67696C121.157 8.16533 121.233 6.57812 121.309 4.91533H121.157C120.779 6.72929 120.477 8.01417 120.099 9.37464L115.338 27.1363H113.599L108.838 9.45022Z" fill="black"/>
<path d="M137.18 26.381V20.1833H134.762C131.058 20.1833 129.244 21.8461 129.244 25.7763C129.244 28.9508 130.605 30.7647 132.797 30.7647C134.837 30.7647 136.349 28.7996 137.18 26.381ZM137.256 29.0263C136.198 31.1426 134.611 32.5031 132.343 32.5031C129.32 32.5031 127.204 30.0845 127.204 26.0031C127.204 21.1659 129.849 18.6717 134.686 18.6717H137.18V15.8752C137.18 12.474 135.895 10.9624 133.401 10.9624C131.512 10.9624 129.773 11.8694 128.64 13.4566L128.035 11.4159C128.942 10.2822 130.832 9.14844 133.326 9.14844C137.029 9.14844 139.145 11.1891 139.145 15.6484V27.9682C139.145 29.5554 139.372 31.2938 139.675 32.1252H137.785C137.558 31.445 137.332 30.6136 137.256 29.0263Z" fill="black"/>
<path d="M155.017 20.2525C155.017 14.3571 153.43 10.8804 150.785 10.8804C148.744 10.8804 147.081 12.9966 146.099 15.4152V28.0373C147.006 29.8513 148.215 30.7583 150.256 30.7583C153.128 30.7583 155.017 27.3571 155.017 20.2525ZM146.099 30.4559V38.9966H143.982V9.51989H145.796L145.948 13.2234C146.93 11.1071 148.593 9.06641 151.087 9.06641C154.866 9.06641 157.058 13.6013 157.058 20.1013C157.058 28.3397 154.261 32.4211 150.105 32.4211C148.442 32.4211 147.006 31.5897 146.099 30.4559Z" fill="black"/>
<path d="M163.256 32.0481H161.14V9.44922H163.256V20.1062L170.814 9.44922H172.855L165.448 19.955L173.384 32.0481H171.041L163.256 20.3329V32.0481Z" fill="black"/>
<path d="M176.407 19.498H184.645C185.023 13.5271 183.209 10.8061 180.942 10.8061C178.523 10.8061 176.634 13.8294 176.407 19.498ZM181.32 30.6085C184.343 30.6085 185.854 28.1899 185.854 28.1899L186.535 29.8527C186.535 29.8527 184.872 32.4224 181.244 32.4224C176.482 32.4224 174.291 28.1143 174.291 20.7073C174.291 13.3003 177.087 8.99219 180.866 8.99219C184.721 8.99219 187.291 13.0736 186.535 21.0852H176.331C176.482 27.2829 178.07 30.6085 181.32 30.6085Z" fill="black"/>
<path d="M195.853 11.2554V32.0402H193.737V11.2554H188.522V9.44141H200.993V11.2554H195.853Z" fill="black"/>
</svg>
