<svg width="200" height="39" viewBox="0 0 200 39" fill="none" xmlns="http://www.w3.org/2000/svg">
<path d="M12.2589 2.93311H10.4539C7.67122 2.93311 5.03894 4.73811 5.03894 10.0779C5.03894 15.192 7.5208 16.8466 10.4539 16.8466H12.2589V2.93311ZM9.401 19.7045L3.98603 31.8882H0L5.94143 18.8772C3.15874 17.4483 1.27854 14.816 1.27854 10.0779C1.27854 3.30915 5.49019 0 10.5291 0H15.6433V31.813H12.2589V19.7045H9.401Z" fill="white"/>
<path d="M82.2024 20.6875C82.2024 13.6932 84.9099 9.18068 90.1744 9.18068C92.2051 9.18068 93.3332 9.70713 94.3109 10.3088L93.7844 13.618C92.8819 12.7907 91.5282 12.0386 90.0992 12.0386C87.6174 12.0386 85.8124 14.8213 85.8124 20.4619C85.8124 26.0273 87.1661 29.2612 89.9488 29.2612C91.6034 29.2612 92.9571 28.5843 93.7092 27.9075L94.5365 30.4646C93.3332 31.5175 91.9042 32.1191 89.8736 32.1191C85.0603 32.1943 82.2024 28.2835 82.2024 20.6875ZM72.0493 20.6875V31.8935H68.5897V9.4063H72.0493V19.785L77.4643 9.4063H80.9991L75.4337 19.9354L81.8264 31.8183H78.066L72.0493 20.6875ZM55.7292 18.6569H61.445C61.445 14.8213 60.8433 12.0386 58.8127 12.0386C56.7069 11.9634 55.9548 14.5957 55.7292 18.6569ZM59.5648 32.1943C54.9019 32.1943 52.1192 28.5091 52.1192 21.59C52.1192 14.37 54.1498 9.10547 58.8879 9.10547C62.6483 9.10547 65.055 11.8882 65.055 19.4842V21.3644H55.654C55.654 26.4033 57.0829 29.1108 59.8656 29.1108C61.821 29.1108 63.4004 28.2083 64.3029 27.6066L65.1302 30.2389C63.626 31.4423 61.7458 32.1943 59.5648 32.1943ZM44.824 12.2642H40.9884V12.6402C40.9884 17.3784 40.7628 24.2223 38.8826 29.0356H44.824V12.2642ZM50.0134 36.2556H46.8546V31.8935H37.3032V36.3308H34.2197V29.1108H35.5734C37.604 24.3727 37.8297 17.4536 37.8297 11.4369V9.55672H48.2084V29.1108H50.0134V36.2556ZM32.1891 9.4063V31.8183H28.7295V21.8156H23.5401V31.8935H20.0806V9.4063H23.5401V18.8825H28.7295V9.4063H32.1891Z" fill="white"/>
<path d="M108.3 9.40392C107.849 7.74934 107.473 6.32039 107.247 4.89144H107.097C107.172 6.3956 107.247 7.97497 107.247 9.62955V31.8911H105.216V0.078125H107.773L113.188 20.3843C113.414 21.2116 113.715 22.8662 113.865 24.0695H114.016C114.166 22.8662 114.542 21.2116 114.768 20.3843L120.183 0.078125H122.665V31.8911H120.559V9.62955C120.559 8.12539 120.634 6.54602 120.709 4.89144H120.559C120.183 6.69643 119.882 7.97497 119.506 9.32871L114.768 27.0026H113.038L108.3 9.40392Z" fill="white"/>
<path d="M136.503 26.2529V20.0858H134.096C130.411 20.0858 128.606 21.7404 128.606 25.6512C128.606 28.81 129.96 30.615 132.141 30.615C134.171 30.615 135.675 28.6596 136.503 26.2529ZM136.578 28.8852C135.525 30.991 133.946 32.3447 131.689 32.3447C128.681 32.3447 126.575 29.9381 126.575 25.8769C126.575 21.0635 129.207 18.5817 134.021 18.5817H136.503V15.799C136.503 12.4146 135.224 10.9105 132.742 10.9105C130.862 10.9105 129.132 11.813 128.004 13.3923L127.402 11.3617C128.305 10.2336 130.185 9.10547 132.667 9.10547C136.352 9.10547 138.458 11.1361 138.458 15.5734V27.8323C138.458 29.4116 138.684 31.1414 138.985 31.9687H137.104C136.879 31.2918 136.653 30.4645 136.578 28.8852Z" fill="white"/>
<path d="M154.251 20.1503C154.251 14.2841 152.672 10.8245 150.039 10.8245C148.009 10.8245 146.354 12.9303 145.376 15.337V27.8967C146.279 29.7017 147.482 30.6042 149.513 30.6042C152.371 30.6042 154.251 27.2199 154.251 20.1503ZM145.376 30.3034V38.8019H143.271V9.47078H145.076L145.226 13.156C146.204 11.0501 147.858 9.01953 150.34 9.01953C154.1 9.01953 156.281 13.532 156.281 19.9999C156.281 28.1976 153.499 32.2588 149.362 32.2588C147.708 32.2588 146.279 31.4315 145.376 30.3034Z" fill="white"/>
<path d="M162.45 31.8895H160.344V9.40234H162.45V20.0067L169.97 9.40234H172.001L164.631 19.8563L172.527 31.8895H170.196L162.45 20.2323V31.8895Z" fill="white"/>
<path d="M175.536 19.4031H183.733C184.109 13.4617 182.304 10.7542 180.048 10.7542C177.641 10.7542 175.761 13.7625 175.536 19.4031ZM180.424 30.4587C183.432 30.4587 184.937 28.0521 184.937 28.0521L185.613 29.7066C185.613 29.7066 183.959 32.2637 180.349 32.2637C175.611 32.2637 173.43 27.9768 173.43 20.6065C173.43 13.2361 176.212 8.94922 179.973 8.94922C183.808 8.94922 186.365 13.0105 185.613 20.9825H175.46C175.611 27.1496 177.19 30.4587 180.424 30.4587Z" fill="white"/>
<path d="M194.886 11.1995V31.8817H192.78V11.1995H187.591V9.39453H200V11.1995H194.886Z" fill="white"/>
</svg>
