<svg width="13" height="9" viewBox="0 0 13 9" fill="none" xmlns="http://www.w3.org/2000/svg">
<path d="M12.2518 1.83004C12.1134 1.30997 11.7081 0.900029 11.1942 0.759987C10.2551 0.5 6.49891 0.5 6.49891 0.5C6.49891 0.5 2.74279 0.5 1.80374 0.750076C1.29965 0.890026 0.884459 1.31006 0.746123 1.83004C0.499023 2.77995 0.499023 4.75 0.499023 4.75C0.499023 4.75 0.499023 6.72996 0.746123 7.66997C0.88455 8.18994 1.28976 8.59997 1.80383 8.74001C2.75268 9 6.499 9 6.499 9C6.499 9 10.2551 9 11.1942 8.74992C11.7082 8.60997 12.1134 8.19994 12.2519 7.67997C12.499 6.72996 12.499 4.76 12.499 4.76C12.499 4.76 12.5089 2.77995 12.2518 1.83004Z" fill="#1F1A3D"/>
<path d="M5.00195 6.50781L8.50195 4.75781L5.00195 3.00781V6.50781Z" fill="#E9E8EC"/>
</svg>
