<svg width="13" height="13" viewBox="0 0 13 13" fill="none" xmlns="http://www.w3.org/2000/svg">
<path fill-rule="evenodd" clip-rule="evenodd" d="M6.4329 0.507812C3.95973 0.508048 2.24603 0.516276 1.36637 1.37528C0.507407 2.25474 0.499177 4.04892 0.499177 6.44165C3.15602 6.36147 4.37098 6.29495 5.33999 5.34871C6.28618 4.3797 6.35273 3.16476 6.4329 0.507812ZM1.36622 11.6406C0.507253 10.7611 0.499023 8.96692 0.499023 6.5742C3.15587 6.65438 4.37083 6.7209 5.33984 7.66714C6.28603 8.63615 6.35258 9.85108 6.43275 12.5078C3.95958 12.5078 2.24587 12.4998 1.36622 11.6406ZM6.56538 12.5078C6.64556 9.85108 6.71211 8.63615 7.65832 7.66714C8.6273 6.7209 9.84226 6.65438 12.4991 6.5742C12.4989 8.96692 12.4906 10.7611 11.6317 11.6406C10.752 12.4998 9.03858 12.5078 6.56538 12.5078ZM6.56538 0.507812C6.64556 3.16476 6.71211 4.3797 7.65832 5.34871C8.6273 6.29495 9.84226 6.36147 12.4991 6.44165C12.4989 4.04892 12.4906 2.25474 11.6317 1.37528C10.752 0.516276 9.03858 0.508048 6.56538 0.507812Z" fill="#1F1A3D"/>
</svg>
